<svg xmlns="http://www.w3.org/2000/svg" width="335" height="191.729" viewBox="0 0 335 191.729">
  <g id="_12" data-name="12" transform="translate(6916 10677.357)">
    <path id="Rectángulo_35173" data-name="Rectángulo 35173" d="M0,0H178A157,157,0,0,1,335,157v0a0,0,0,0,1,0,0H0a0,0,0,0,1,0,0V0A0,0,0,0,1,0,0Z" transform="translate(-6916 -10655)" fill="#f3f9ff"/>
    <g id="Grupo_91573" data-name="Grupo 91573" transform="translate(-7248.872 -10713.089)">
      <path id="Trazado_139989" data-name="Trazado 139989" d="M402.1,171.571a.641.641,0,0,1-.322-1.2l23.948-13.826a6.553,6.553,0,0,0,3.268-5.658V114.77a1.967,1.967,0,0,1,2.952-1.7l38.7,22.434V105.354a.641.641,0,1,1,1.281,0v31.26a.64.64,0,0,1-.962.554L431.3,114.178a.684.684,0,0,0-1.028.593v36.12a7.838,7.838,0,0,1-3.907,6.768l-23.948,13.826A.643.643,0,0,1,402.1,171.571Z" transform="translate(0 -0.938)" fill="#5793ce"/>
      <path id="Trazado_139990" data-name="Trazado 139990" d="M450.666,198.588a.641.641,0,0,1-.322-1.2l29.786-17.2a6.553,6.553,0,0,0,3.267-5.658v-62.21a.641.641,0,0,1,1.281,0v62.21a7.836,7.836,0,0,1-3.907,6.768l-29.786,17.2A.643.643,0,0,1,450.666,198.588Z" transform="translate(-0.66 -1.033)" fill="#5793ce"/>
      <g id="Grupo_91566" data-name="Grupo 91566" transform="translate(439.945 35.732)">
        <path id="Trazado_139991" data-name="Trazado 139991" d="M504.7,228.588a.688.688,0,0,1-.344-1.284l27.008-15.594a6.5,6.5,0,0,0,3.242-5.636l-.089-29.04a6.507,6.507,0,0,0-3.25-5.6l-34.859-20.075a.689.689,0,0,1-.345-.6V119.3a.689.689,0,0,1,1.378,0v31.062l34.513,19.876a7.888,7.888,0,0,1,3.94,6.791l.089,29.04a7.88,7.88,0,0,1-3.932,6.833L505.042,228.5A.686.686,0,0,1,504.7,228.588Z" transform="translate(-441.231 -36.859)" fill="#5793ce"/>
        <g id="Grupo_91550" data-name="Grupo 91550" transform="translate(51.235 64.622)">
          <g id="Grupo_91549" data-name="Grupo 91549">
            <g id="Grupo_91547" data-name="Grupo 91547" transform="translate(1.641 15.906)">
              <rect id="Rectángulo_35362" data-name="Rectángulo 35362" width="5.289" height="11.412" transform="translate(0)" fill="#5793ce"/>
              <path id="Trazado_139992" data-name="Trazado 139992" d="M498.594,130a4.135,4.135,0,0,1-3.739,0,1.14,1.14,0,0,1,0-2.159,4.129,4.129,0,0,1,3.739,0A1.14,1.14,0,0,1,498.594,130Z" transform="translate(-494.08 -117.506)" fill="#5793ce"/>
            </g>
            <g id="Grupo_91548" data-name="Grupo 91548">
              <rect id="Rectángulo_35363" data-name="Rectángulo 35363" width="8.57" height="17.899" transform="translate(0)" fill="#5793ce"/>
              <path id="Trazado_139993" data-name="Trazado 139993" d="M494.08,119.266v3.862a6.842,6.842,0,0,0,5.288,0v-3.863A6.838,6.838,0,0,0,494.08,119.266Z" transform="translate(-492.439 -101.483)" fill="#396caa"/>
              <path id="Trazado_139994" data-name="Trazado 139994" d="M499.731,121.106a6.693,6.693,0,0,1-6.059,0c-1.674-.966-1.674-2.532,0-3.5a6.693,6.693,0,0,1,6.059,0C501.405,118.574,501.405,120.14,499.731,121.106Z" transform="translate(-492.416 -101.457)" fill="#5793ce"/>
            </g>
          </g>
        </g>
        <g id="Grupo_91554" data-name="Grupo 91554" transform="translate(39.148 57.743)">
          <g id="Grupo_91553" data-name="Grupo 91553">
            <g id="Grupo_91551" data-name="Grupo 91551" transform="translate(1.64 15.906)">
              <rect id="Rectángulo_35364" data-name="Rectángulo 35364" width="5.289" height="11.412" transform="translate(0)" fill="#5793ce"/>
              <path id="Trazado_139995" data-name="Trazado 139995" d="M486.34,123.024a4.135,4.135,0,0,1-3.739,0,1.14,1.14,0,0,1,0-2.159,4.135,4.135,0,0,1,3.739,0A1.14,1.14,0,0,1,486.34,123.024Z" transform="translate(-481.826 -110.532)" fill="#5793ce"/>
            </g>
            <g id="Grupo_91552" data-name="Grupo 91552">
              <rect id="Rectángulo_35365" data-name="Rectángulo 35365" width="8.57" height="17.899" fill="#5793ce"/>
              <path id="Trazado_139996" data-name="Trazado 139996" d="M481.826,112.292v3.863a6.846,6.846,0,0,0,5.288,0v-3.863A6.846,6.846,0,0,0,481.826,112.292Z" transform="translate(-480.185 -94.509)" fill="#396caa"/>
              <path id="Trazado_139997" data-name="Trazado 139997" d="M487.477,114.133a6.7,6.7,0,0,1-6.06,0c-1.673-.967-1.673-2.533,0-3.5a6.693,6.693,0,0,1,6.06,0C489.151,111.6,489.151,113.166,487.477,114.133Z" transform="translate(-480.163 -94.484)" fill="#5793ce"/>
            </g>
          </g>
        </g>
        <g id="Grupo_91558" data-name="Grupo 91558" transform="translate(27.061 50.864)">
          <g id="Grupo_91557" data-name="Grupo 91557">
            <g id="Grupo_91555" data-name="Grupo 91555" transform="translate(1.64 15.906)">
              <rect id="Rectángulo_35366" data-name="Rectángulo 35366" width="5.289" height="11.412" transform="translate(0)" fill="#5793ce"/>
              <path id="Trazado_139998" data-name="Trazado 139998" d="M474.086,116.05a4.129,4.129,0,0,1-3.74,0,1.14,1.14,0,0,1,0-2.159,4.135,4.135,0,0,1,3.74,0A1.14,1.14,0,0,1,474.086,116.05Z" transform="translate(-469.572 -103.558)" fill="#5793ce"/>
            </g>
            <g id="Grupo_91556" data-name="Grupo 91556">
              <rect id="Rectángulo_35367" data-name="Rectángulo 35367" width="8.57" height="17.899" fill="#5793ce"/>
              <path id="Trazado_139999" data-name="Trazado 139999" d="M469.572,105.318v3.863a6.844,6.844,0,0,0,5.289,0v-3.863A6.849,6.849,0,0,0,469.572,105.318Z" transform="translate(-467.932 -87.535)" fill="#396caa"/>
              <ellipse id="Elipse_4438" data-name="Elipse 4438" cx="4.285" cy="2.474" rx="4.285" ry="2.474" transform="translate(0 15.425)" fill="#5793ce"/>
            </g>
          </g>
        </g>
        <g id="Grupo_91565" data-name="Grupo 91565">
          <g id="Grupo_91561" data-name="Grupo 91561">
            <path id="Trazado_140000" data-name="Trazado 140000" d="M529.78,133.14l11.491-6.768-10.943-13.658-2.877,4.7Z" transform="translate(-441.657 -36.778)" fill="#5793ce"/>
            <path id="Trazado_140001" data-name="Trazado 140001" d="M445.23,57.283l18.338-10.551s-.69,10.53-.69,10.551-10.536,3.264-10.536,3.264Z" transform="translate(-440.54 -35.881)" fill="#5793ce"/>
            <path id="Trazado_140002" data-name="Trazado 140002" d="M532.044,97.748a11.548,11.548,0,0,0-3.968-1.471c-1.849-9.717-8.61-20.036-16.672-24.691a16.313,16.313,0,0,0-6.823-2.309c-1.1-11.779-9.29-25.164-19.235-30.905-5.194-3-9.908-3.354-13.386-1.518v-.009l-.169.1c-.089.049-.177.1-.264.152l-10.813,6.387,3.592,2.838c-3.226,1.41-5.264,5.027-5.264,10.374,0,9.861,6.924,21.853,15.464,26.783l57.538,41.087c6.413,3.7,11.611.7,11.611-6.7S538.457,101.451,532.044,97.748Z" transform="translate(-440.727 -35.732)" fill="#5793ce"/>
            <path id="Trazado_140003" data-name="Trazado 140003" d="M459.584,52.353l24.819-14.5c-4.818-2.512-9.172-2.72-12.436-1v-.009l-.169.1c-.089.049-.177.1-.264.152l-10.813,6.387,3.592,2.838A8.669,8.669,0,0,0,459.584,52.353Z" transform="translate(-440.735 -35.732)" fill="#5793ce"/>
            <path id="Trazado_140004" data-name="Trazado 140004" d="M505.791,95.494,523.9,84.866c-3.106-5.372-7.383-10.065-12.118-12.8-.627-.362-1.245-.679-1.854-.955L486.893,84.584Z" transform="translate(-441.106 -36.213)" fill="#5793ce"/>
            <path id="Trazado_140005" data-name="Trazado 140005" d="M465.909,44.674l8.071,4.66,14.779-8.705a29.4,29.4,0,0,0-3.32-2.25,20.726,20.726,0,0,0-5.165-2.17Z" transform="translate(-440.821 -35.738)" fill="#d4ecff"/>
            <path id="Trazado_140006" data-name="Trazado 140006" d="M522.186,81.886,507.732,90.4l5.028,5.607,13.12-7.747A42.21,42.21,0,0,0,522.186,81.886Z" transform="translate(-441.389 -36.359)" fill="#d4ecff"/>
            <path id="Trazado_140007" data-name="Trazado 140007" d="M520.438,104.528a11.551,11.551,0,0,0-3.967-1.471c-1.849-9.717-8.611-20.037-16.673-24.692a16.32,16.32,0,0,0-6.823-2.308c-1.1-11.779-9.29-25.164-19.235-30.905-10.695-6.175-19.365-1.17-19.365,11.18,0,.418.012.841.032,1.266-7.82-3.627-13.931.46-13.931,9.724,0,9.861,6.924,21.852,15.463,26.783l64.5,37.239c6.413,3.7,11.612.7,11.612-6.7S526.851,108.231,520.438,104.528Z" transform="translate(-440.475 -35.824)" fill="#d4ecff"/>
            <g id="Grupo_91559" data-name="Grupo 91559" transform="translate(3.537 5.764)">
              <path id="Trazado_140008" data-name="Trazado 140008" d="M454.455,57.775c-.02-.424-.032-.847-.032-1.266,0-.019,0-.036,0-.052-4.321-1.681-8.034-.949-10.364,1.747C446.592,56.12,450.273,55.836,454.455,57.775Z" transform="translate(-444.061 -41.765)" fill="#fff"/>
              <path id="Trazado_140009" data-name="Trazado 140009" d="M521.633,103.6a11.545,11.545,0,0,0-3.967-1.471c-1.849-9.717-8.61-20.037-16.673-24.692a16.32,16.32,0,0,0-6.822-2.308c-1.1-11.779-9.291-25.164-19.235-30.905-6.663-3.847-12.539-3.354-16.024.551,3.55-3.034,8.984-3.151,15.079.369,9.945,5.741,18.134,19.126,19.235,30.905a16.32,16.32,0,0,1,6.823,2.308c8.062,4.655,14.824,14.975,16.673,24.692a11.551,11.551,0,0,1,3.967,1.471c6.413,3.7,11.612,12.707,11.612,20.112a9.565,9.565,0,0,1-1.852,6.177c1.739-1.34,2.8-3.769,2.8-7.1C533.245,116.3,528.046,107.3,521.633,103.6Z" transform="translate(-444.263 -41.575)" fill="#fff"/>
            </g>
            <g id="Grupo_91560" data-name="Grupo 91560" transform="translate(3.241 9.917)">
              <path id="Trazado_140010" data-name="Trazado 140010" d="M453.087,60.584l4.848,2.248-.247-5.338c-.018-.375-.028-.748-.028-1.117,0-4.766,1.438-8.221,4.05-9.73s6.325-1.026,10.452,1.357c8.876,5.124,16.619,17.6,17.628,28.4l.254,2.721,2.724.21a13.1,13.1,0,0,1,5.451,1.884c7.05,4.07,13.4,13.529,15.109,22.489l.427,2.243,2.255.354a8.373,8.373,0,0,1,2.85,1.075c5.415,3.127,9.99,11.051,9.99,17.3,0,2.341-.648,4.057-1.779,4.711s-2.943.356-4.97-.814L457.6,91.342c-7.5-4.332-13.842-15.312-13.842-23.976,0-3.4,1-5.99,2.751-7.107a4.714,4.714,0,0,1,2.571-.688A9.7,9.7,0,0,1,453.087,60.584Z" transform="translate(-443.761 -45.786)" fill="#396caa"/>
            </g>
          </g>
          <g id="Grupo_91564" data-name="Grupo 91564" transform="translate(30.692 41.259)">
            <path id="Trazado_140011" data-name="Trazado 140011" d="M485.851,101.74l1.7-.854-1.675-1.269Z" transform="translate(-471.784 -77.859)" fill="#5793ce"/>
            <path id="Trazado_140012" data-name="Trazado 140012" d="M480.67,78.456l1.652-.835.03.865Z" transform="translate(-471.713 -77.56)" fill="#5793ce"/>
            <path id="Trazado_140013" data-name="Trazado 140013" d="M490.749,96.267l1.724-.867-3.318-3.156Z" transform="translate(-471.829 -77.759)" fill="#5793ce"/>
            <g id="Grupo_91562" data-name="Grupo 91562" transform="translate(1.727)">
              <path id="Trazado_140014" data-name="Trazado 140014" d="M486.95,100.635l-8.056-4.745a1.719,1.719,0,0,1-.738-1.354l.027-9.326,9.537,5.617-.027,9.326C487.691,100.66,487.358,100.876,486.95,100.635Z" transform="translate(-473.406 -77.663)" fill="#5793ce"/>
              <path id="Trazado_140015" data-name="Trazado 140015" d="M482.2,77.631l-8.7,5.6c-.369.238-.071,1.124.49,1.454l8.886,5.233,8.886,5.234c.561.33.863-.2.5-.873l-8.64-15.811C483.248,77.783,482.581,77.389,482.2,77.631Z" transform="translate(-473.341 -77.559)" fill="#5793ce"/>
            </g>
            <g id="Grupo_91563" data-name="Grupo 91563" transform="translate(0 0.87)">
              <path id="Trazado_140016" data-name="Trazado 140016" d="M485.2,101.517l-8.055-4.745a1.714,1.714,0,0,1-.738-1.354l.027-9.326,9.536,5.617-.026,9.326C485.94,101.542,485.607,101.758,485.2,101.517Z" transform="translate(-471.655 -78.545)" fill="#d4ecff"/>
              <path id="Trazado_140017" data-name="Trazado 140017" d="M480.453,78.513l-8.7,5.6c-.369.238-.071,1.124.489,1.454l8.887,5.233,8.886,5.234c.56.33.863-.2.5-.873l-8.64-15.811C481.5,78.665,480.829,78.27,480.453,78.513Z" transform="translate(-471.59 -78.441)" fill="#d4ecff"/>
            </g>
          </g>
        </g>
        <path id="Trazado_140018" data-name="Trazado 140018" d="M471.472,113.935c0,.559-.393.785-.877.506a1.939,1.939,0,0,1-.877-1.519c0-.56.393-.786.877-.507A1.94,1.94,0,0,1,471.472,113.935Z" transform="translate(-440.873 -36.773)" fill="#d4ecff"/>
      </g>
      <g id="Grupo_91569" data-name="Grupo 91569" transform="translate(496.587 173.313)">
        <path id="Trazado_140019" data-name="Trazado 140019" d="M509.689,197.6l1.965-.791-1.528-1.175Z" transform="translate(-498.058 -175.487)" fill="#5793ce"/>
        <path id="Trazado_140020" data-name="Trazado 140020" d="M508.693,176.04l1.908-.774-.135.8Z" transform="translate(-498.044 -175.21)" fill="#5793ce"/>
        <path id="Trazado_140021" data-name="Trazado 140021" d="M515.932,192.534l1.991-.8-2.9-2.923Z" transform="translate(-498.13 -175.394)" fill="#5793ce"/>
        <g id="Grupo_91567" data-name="Grupo 91567" transform="translate(1.995)">
          <path id="Trazado_140022" data-name="Trazado 140022" d="M511.045,196.58l-7.61-4.394a1.231,1.231,0,0,1-.52-1.254l1.824-8.637,9.009,5.2-1.824,8.637A.573.573,0,0,1,511.045,196.58Z" transform="translate(-499.961 -175.305)" fill="#5793ce"/>
          <path id="Trazado_140023" data-name="Trazado 140023" d="M510.462,175.275l-10.284,5.185c-.436.22-.291,1.041.239,1.346l8.4,4.846,8.394,4.847c.53.306.952-.186.693-.808l-6.1-14.643C511.538,175.416,510.906,175.051,510.462,175.275Z" transform="translate(-499.921 -175.209)" fill="#5793ce"/>
        </g>
        <g id="Grupo_91568" data-name="Grupo 91568" transform="translate(0 0.806)">
          <path id="Trazado_140024" data-name="Trazado 140024" d="M509.022,197.4,501.411,193a1.235,1.235,0,0,1-.52-1.255l1.824-8.637,9.009,5.2L509.9,196.95A.573.573,0,0,1,509.022,197.4Z" transform="translate(-497.938 -176.122)" fill="#d4ecff"/>
          <path id="Trazado_140025" data-name="Trazado 140025" d="M508.439,176.092l-10.284,5.185c-.436.22-.291,1.041.239,1.346l8.4,4.846,8.394,4.847c.53.306.952-.186.693-.809l-6.1-14.642C509.515,176.232,508.884,175.868,508.439,176.092Z" transform="translate(-497.898 -176.026)" fill="#d4ecff"/>
        </g>
      </g>
      <g id="Grupo_91572" data-name="Grupo 91572" transform="translate(443.778 143.019)">
        <path id="Trazado_140026" data-name="Trazado 140026" d="M456.152,166.892l1.965-.791-1.528-1.175Z" transform="translate(-444.521 -144.776)" fill="#5793ce"/>
        <path id="Trazado_140027" data-name="Trazado 140027" d="M455.157,145.329l1.909-.774-.135.8Z" transform="translate(-444.508 -144.499)" fill="#5793ce"/>
        <path id="Trazado_140028" data-name="Trazado 140028" d="M462.4,161.823l1.991-.8-2.9-2.923Z" transform="translate(-444.594 -144.683)" fill="#5793ce"/>
        <g id="Grupo_91570" data-name="Grupo 91570" transform="translate(1.995)">
          <path id="Trazado_140029" data-name="Trazado 140029" d="M457.509,165.869l-7.611-4.394a1.234,1.234,0,0,1-.52-1.254l1.824-8.637,9.009,5.2-1.823,8.637A.573.573,0,0,1,457.509,165.869Z" transform="translate(-446.424 -144.594)" fill="#5793ce"/>
          <path id="Trazado_140030" data-name="Trazado 140030" d="M456.925,144.564l-10.283,5.185c-.437.221-.292,1.041.238,1.346l8.4,4.847,8.394,4.846c.53.306.953-.186.693-.808l-6.1-14.643C458,144.705,457.37,144.34,456.925,144.564Z" transform="translate(-446.384 -144.498)" fill="#5793ce"/>
        </g>
        <g id="Grupo_91571" data-name="Grupo 91571" transform="translate(0 0.806)">
          <path id="Trazado_140031" data-name="Trazado 140031" d="M455.486,166.685l-7.61-4.393a1.232,1.232,0,0,1-.52-1.255l1.823-8.637,9.009,5.2-1.823,8.638A.573.573,0,0,1,455.486,166.685Z" transform="translate(-444.402 -145.411)" fill="#d4ecff"/>
          <path id="Trazado_140032" data-name="Trazado 140032" d="M454.9,145.381l-10.284,5.185c-.437.22-.291,1.041.239,1.346l8.394,4.846,8.4,4.847c.53.306.952-.186.692-.808l-6.1-14.643C455.978,145.521,455.347,145.157,454.9,145.381Z" transform="translate(-444.361 -145.315)" fill="#d4ecff"/>
        </g>
      </g>
      <path id="Trazado_140033" data-name="Trazado 140033" d="M483.764,120.573c0,.559-.393.786-.877.506a1.939,1.939,0,0,1-.878-1.519c0-.559.394-.786.878-.506A1.938,1.938,0,0,1,483.764,120.573Z" transform="translate(-1.095 -1.131)" fill="#d4ecff"/>
      <path id="Trazado_140034" data-name="Trazado 140034" d="M496.056,127.211c0,.559-.393.786-.878.507a1.941,1.941,0,0,1-.877-1.52c0-.559.393-.786.877-.506A1.936,1.936,0,0,1,496.056,127.211Z" transform="translate(-1.262 -1.221)" fill="#d4ecff"/>
    </g>
  </g>
</svg>
