<svg xmlns="http://www.w3.org/2000/svg" width="335" height="188.606" viewBox="0 0 335 188.606">
  <g id="_16" data-name="16" transform="translate(6916 8942.606)">
    <path id="Rectángulo_35360" data-name="Rectángulo 35360" d="M0,0H178A157,157,0,0,1,335,157v0a0,0,0,0,1,0,0H0a0,0,0,0,1,0,0V0A0,0,0,0,1,0,0Z" transform="translate(-6916 -8928)" fill="#f3f9ff"/>
    <g id="Grupo_91546" data-name="Grupo 91546" transform="translate(-7170.073 -8978.338)">
      <path id="Trazado_139786" data-name="Trazado 139786" d="M401.879,148.5a.42.42,0,0,1-.211-.783l15.684-9.055a4.291,4.291,0,0,0,2.14-3.706V111.3a1.288,1.288,0,0,1,1.934-1.114l25.348,14.693V105.133a.42.42,0,1,1,.839,0v20.473a.419.419,0,0,1-.63.363l-25.978-15.058a.448.448,0,0,0-.673.388v23.656a5.133,5.133,0,0,1-2.559,4.432l-15.684,9.055A.421.421,0,0,1,401.879,148.5Z" transform="translate(-55.563 -24.417)" fill="#5793ce"/>
      <path id="Trazado_139787" data-name="Trazado 139787" d="M450.445,168.6a.42.42,0,0,1-.211-.783l19.507-11.263a4.292,4.292,0,0,0,2.14-3.706V112.107a.42.42,0,0,1,.839,0V152.85a5.132,5.132,0,0,1-2.559,4.432l-19.507,11.263A.421.421,0,0,1,450.445,168.6Z" transform="translate(-72.754 -26.886)" fill="#5793ce"/>
      <g id="Grupo_91489" data-name="Grupo 91489" transform="translate(371.101 35.732)">
        <path id="Trazado_139788" data-name="Trazado 139788" d="M501.719,190.639a.451.451,0,0,1-.226-.841l17.688-10.213a4.256,4.256,0,0,0,2.123-3.691l-.058-19.019a4.261,4.261,0,0,0-2.129-3.669l-22.83-13.148a.451.451,0,0,1-.226-.391v-20.6a.451.451,0,0,1,.9,0v20.343l22.6,13.017a5.166,5.166,0,0,1,2.58,4.448l.058,19.019a5.161,5.161,0,0,1-2.575,4.475l-17.688,10.213A.45.45,0,0,1,501.719,190.639Z" transform="translate(-460.151 -65.069)" fill="#5793ce"/>
        <g id="Grupo_91473" data-name="Grupo 91473" transform="translate(33.556 42.323)">
          <g id="Grupo_91472" data-name="Grupo 91472">
            <g id="Grupo_91470" data-name="Grupo 91470" transform="translate(1.075 10.417)">
              <rect id="Rectángulo_35353" data-name="Rectángulo 35353" width="3.464" height="7.474" transform="translate(0)" fill="#5793ce"/>
              <path id="Trazado_139789" data-name="Trazado 139789" d="M497.036,129.1a2.709,2.709,0,0,1-2.449,0,.746.746,0,0,1,0-1.414,2.7,2.7,0,0,1,2.449,0A.746.746,0,0,1,497.036,129.1Z" transform="translate(-494.08 -120.917)" fill="#5793ce"/>
            </g>
            <g id="Grupo_91471" data-name="Grupo 91471">
              <rect id="Rectángulo_35354" data-name="Rectángulo 35354" width="5.613" height="11.723" transform="translate(0)" fill="#5793ce"/>
              <path id="Trazado_139790" data-name="Trazado 139790" d="M494.08,119.082v2.529a4.481,4.481,0,0,0,3.463,0v-2.53A4.478,4.478,0,0,0,494.08,119.082Z" transform="translate(-493.005 -107.435)" fill="#396caa"/>
              <path id="Trazado_139791" data-name="Trazado 139791" d="M497.207,119.649a4.383,4.383,0,0,1-3.969,0,1.209,1.209,0,0,1,0-2.291,4.383,4.383,0,0,1,3.969,0A1.209,1.209,0,0,1,497.207,119.649Z" transform="translate(-492.416 -106.78)" fill="#5793ce"/>
            </g>
          </g>
        </g>
        <g id="Grupo_91477" data-name="Grupo 91477" transform="translate(25.639 37.818)">
          <g id="Grupo_91476" data-name="Grupo 91476">
            <g id="Grupo_91474" data-name="Grupo 91474" transform="translate(1.074 10.417)">
              <rect id="Rectángulo_35355" data-name="Rectángulo 35355" width="3.464" height="7.474" transform="translate(0)" fill="#5793ce"/>
              <path id="Trazado_139792" data-name="Trazado 139792" d="M484.782,122.125a2.708,2.708,0,0,1-2.449,0,.746.746,0,0,1,0-1.414,2.708,2.708,0,0,1,2.449,0A.746.746,0,0,1,484.782,122.125Z" transform="translate(-481.826 -113.943)" fill="#5793ce"/>
            </g>
            <g id="Grupo_91475" data-name="Grupo 91475">
              <rect id="Rectángulo_35356" data-name="Rectángulo 35356" width="5.613" height="11.723" fill="#5793ce"/>
              <path id="Trazado_139793" data-name="Trazado 139793" d="M481.826,112.108v2.53a4.484,4.484,0,0,0,3.463,0v-2.53A4.484,4.484,0,0,0,481.826,112.108Z" transform="translate(-480.751 -100.462)" fill="#396caa"/>
              <path id="Trazado_139794" data-name="Trazado 139794" d="M484.953,112.675a4.388,4.388,0,0,1-3.969,0,1.21,1.21,0,0,1,0-2.291,4.384,4.384,0,0,1,3.969,0A1.209,1.209,0,0,1,484.953,112.675Z" transform="translate(-480.163 -99.806)" fill="#5793ce"/>
            </g>
          </g>
        </g>
        <g id="Grupo_91481" data-name="Grupo 91481" transform="translate(17.723 33.313)">
          <g id="Grupo_91480" data-name="Grupo 91480">
            <g id="Grupo_91478" data-name="Grupo 91478" transform="translate(1.074 10.417)">
              <rect id="Rectángulo_35357" data-name="Rectángulo 35357" width="3.464" height="7.474" transform="translate(0)" fill="#5793ce"/>
              <path id="Trazado_139795" data-name="Trazado 139795" d="M472.528,115.151a2.7,2.7,0,0,1-2.449,0,.746.746,0,0,1,0-1.414,2.708,2.708,0,0,1,2.449,0A.746.746,0,0,1,472.528,115.151Z" transform="translate(-469.572 -106.97)" fill="#5793ce"/>
            </g>
            <g id="Grupo_91479" data-name="Grupo 91479">
              <rect id="Rectángulo_35358" data-name="Rectángulo 35358" width="5.613" height="11.723" fill="#5793ce"/>
              <path id="Trazado_139796" data-name="Trazado 139796" d="M469.572,105.134v2.53a4.483,4.483,0,0,0,3.464,0v-2.53A4.486,4.486,0,0,0,469.572,105.134Z" transform="translate(-468.498 -93.488)" fill="#396caa"/>
              <ellipse id="Elipse_4437" data-name="Elipse 4437" cx="2.806" cy="1.62" rx="2.806" ry="1.62" transform="translate(0 10.103)" fill="#5793ce"/>
            </g>
          </g>
        </g>
        <g id="Grupo_91488" data-name="Grupo 91488" transform="translate(0)">
          <g id="Grupo_91484" data-name="Grupo 91484">
            <path id="Trazado_139797" data-name="Trazado 139797" d="M528.976,126.091l7.526-4.432-7.167-8.945-1.884,3.078Z" transform="translate(-471.262 -62.981)" fill="#5793ce"/>
            <path id="Trazado_139798" data-name="Trazado 139798" d="M445.23,53.642l12.01-6.91s-.452,6.9-.452,6.91-6.9,2.138-6.9,2.138Z" transform="translate(-442.158 -39.626)" fill="#5793ce"/>
            <path id="Trazado_139799" data-name="Trazado 139799" d="M506.853,76.348a7.564,7.564,0,0,0-2.6-.963c-1.211-6.364-5.639-13.122-10.919-16.171a10.684,10.684,0,0,0-4.469-1.512c-.721-7.714-6.084-16.481-12.6-20.241-3.4-1.965-6.489-2.2-8.767-.994v-.006l-.11.064c-.058.032-.116.065-.173.1l-7.082,4.183,2.353,1.859c-2.113.923-3.448,3.292-3.448,6.794,0,6.458,4.534,14.312,10.128,17.541l37.683,26.909c4.2,2.425,7.6.459,7.6-4.39A16.81,16.81,0,0,0,506.853,76.348Z" transform="translate(-447.047 -35.732)" fill="#5793ce"/>
            <path id="Trazado_139800" data-name="Trazado 139800" d="M459.584,46.618l16.255-9.5c-3.155-1.645-6.007-1.781-8.144-.652v-.006l-.11.064c-.058.032-.116.065-.173.1l-7.082,4.183,2.353,1.859A5.677,5.677,0,0,0,459.584,46.618Z" transform="translate(-447.239 -35.732)" fill="#5793ce"/>
            <path id="Trazado_139801" data-name="Trazado 139801" d="M499.27,87.081l11.86-6.96a22.974,22.974,0,0,0-7.936-8.382c-.411-.237-.815-.444-1.215-.625l-15.086,8.823Z" transform="translate(-456.906 -48.256)" fill="#5793ce"/>
            <path id="Trazado_139802" data-name="Trazado 139802" d="M465.909,41.753l5.286,3.052,9.679-5.7A19.246,19.246,0,0,0,478.7,37.63a13.573,13.573,0,0,0-3.383-1.421Z" transform="translate(-449.478 -35.901)" fill="#d4ecff"/>
            <path id="Trazado_139803" data-name="Trazado 139803" d="M517.2,81.886l-9.466,5.578,3.293,3.672,8.593-5.074A27.645,27.645,0,0,0,517.2,81.886Z" transform="translate(-464.282 -52.069)" fill="#d4ecff"/>
            <path id="Trazado_139804" data-name="Trazado 139804" d="M492.845,83.127a7.565,7.565,0,0,0-2.6-.963c-1.211-6.364-5.64-13.123-10.92-16.171a10.688,10.688,0,0,0-4.469-1.512c-.721-7.714-6.084-16.481-12.6-20.241-7-4.044-12.683-.766-12.683,7.322,0,.274.008.551.021.829-5.122-2.375-9.124.3-9.124,6.369,0,6.458,4.535,14.311,10.127,17.541l42.243,24.389c4.2,2.425,7.605.459,7.605-4.39A16.81,16.81,0,0,0,492.845,83.127Z" transform="translate(-440.475 -38.13)" fill="#d4ecff"/>
            <g id="Grupo_91482" data-name="Grupo 91482" transform="translate(2.317 3.775)">
              <path id="Trazado_139805" data-name="Trazado 139805" d="M450.868,57.011c-.013-.278-.021-.555-.021-.829,0-.012,0-.023,0-.034-2.83-1.1-5.262-.621-6.788,1.144C445.719,55.927,448.13,55.741,450.868,57.011Z" transform="translate(-444.061 -46.525)" fill="#fff"/>
              <path id="Trazado_139806" data-name="Trazado 139806" d="M499.989,82.194a7.561,7.561,0,0,0-2.6-.963c-1.211-6.364-5.639-13.123-10.92-16.171A10.689,10.689,0,0,0,482,63.548c-.721-7.714-6.085-16.481-12.6-20.241-4.364-2.52-8.212-2.2-10.495.361,2.325-1.987,5.884-2.063,9.876.242,6.513,3.76,11.877,12.527,12.6,20.241a10.688,10.688,0,0,1,4.469,1.512c5.28,3.049,9.709,9.807,10.92,16.171a7.565,7.565,0,0,1,2.6.963,16.81,16.81,0,0,1,7.605,13.172,6.264,6.264,0,0,1-1.213,4.045,5.632,5.632,0,0,0,1.831-4.648A16.808,16.808,0,0,0,499.989,82.194Z" transform="translate(-449.318 -41.575)" fill="#fff"/>
            </g>
            <g id="Grupo_91483" data-name="Grupo 91483" transform="translate(2.123 6.495)">
              <path id="Trazado_139807" data-name="Trazado 139807" d="M449.869,55.478l3.175,1.472-.161-3.5c-.012-.245-.018-.49-.018-.731,0-3.122.942-5.384,2.653-6.372s4.142-.672,6.845.889c5.813,3.356,10.884,11.526,11.545,18.6l.167,1.782,1.784.138a8.576,8.576,0,0,1,3.57,1.234c4.617,2.666,8.779,8.86,9.9,14.729l.28,1.469,1.477.232a5.484,5.484,0,0,1,1.866.7,14.706,14.706,0,0,1,6.543,11.333c0,1.533-.424,2.657-1.165,3.085s-1.927.233-3.255-.533L452.827,75.622c-4.914-2.837-9.066-10.028-9.066-15.7,0-2.227.657-3.923,1.8-4.655a3.087,3.087,0,0,1,1.684-.45A6.35,6.35,0,0,1,449.869,55.478Z" transform="translate(-443.761 -45.786)" fill="#396caa"/>
            </g>
          </g>
          <g id="Grupo_91487" data-name="Grupo 91487" transform="translate(20.101 27.022)">
            <path id="Trazado_139808" data-name="Trazado 139808" d="M485.851,101.007l1.114-.56-1.1-.831Z" transform="translate(-476.638 -85.367)" fill="#5793ce"/>
            <path id="Trazado_139809" data-name="Trazado 139809" d="M480.67,78.168l1.082-.547.02.566Z" transform="translate(-474.804 -77.581)" fill="#5793ce"/>
            <path id="Trazado_139810" data-name="Trazado 139810" d="M490.2,94.879l1.129-.568-2.173-2.067Z" transform="translate(-477.807 -82.758)" fill="#5793ce"/>
            <g id="Grupo_91485" data-name="Grupo 91485" transform="translate(1.131)">
              <path id="Trazado_139811" data-name="Trazado 139811" d="M483.915,95.313l-5.276-3.107a1.126,1.126,0,0,1-.483-.887l.017-6.108,6.246,3.678L484.4,95C484.4,95.329,484.183,95.47,483.915,95.313Z" transform="translate(-475.045 -80.268)" fill="#5793ce"/>
              <path id="Trazado_139812" data-name="Trazado 139812" d="M479.146,77.606l-5.7,3.666c-.242.156-.047.736.321.952l5.819,3.427,5.82,3.428c.368.216.565-.132.326-.572l-5.659-10.355C479.83,77.706,479.392,77.448,479.146,77.606Z" transform="translate(-473.341 -77.559)" fill="#5793ce"/>
            </g>
            <g id="Grupo_91486" data-name="Grupo 91486" transform="translate(0 0.57)">
              <path id="Trazado_139813" data-name="Trazado 139813" d="M482.164,96.195l-5.275-3.107a1.122,1.122,0,0,1-.483-.887l.017-6.108,6.245,3.678-.017,6.108C482.65,96.211,482.432,96.352,482.164,96.195Z" transform="translate(-473.294 -81.149)" fill="#d4ecff"/>
              <path id="Trazado_139814" data-name="Trazado 139814" d="M477.395,78.488l-5.7,3.666c-.242.156-.046.736.32.952l5.82,3.427,5.819,3.428c.367.216.565-.132.325-.572l-5.659-10.355C478.079,78.588,477.641,78.329,477.395,78.488Z" transform="translate(-471.59 -78.441)" fill="#d4ecff"/>
            </g>
          </g>
        </g>
        <path id="Trazado_139815" data-name="Trazado 139815" d="M470.867,113.37c0,.366-.257.514-.574.331a1.27,1.27,0,0,1-.574-.995c0-.367.257-.515.574-.332A1.27,1.27,0,0,1,470.867,113.37Z" transform="translate(-450.826 -62.833)" fill="#d4ecff"/>
      </g>
      <g id="Grupo_91497" data-name="Grupo 91497" transform="translate(319.854 108.049)">
        <path id="Trazado_139816" data-name="Trazado 139816" d="M388.29,229.294l15.839-9.145c.972-.561.851-1.542-.272-2.19l-15.294-8.83a4.215,4.215,0,0,0-3.793-.157l-15.839,9.145c-.972.561-.85,1.541.272,2.189l15.294,8.83A4.214,4.214,0,0,0,388.29,229.294Z" transform="translate(-363.671 -169.237)" fill="#b2d3ea"/>
        <g id="Grupo_91491" data-name="Grupo 91491" transform="translate(0 21.873)">
          <path id="Trazado_139817" data-name="Trazado 139817" d="M361.155,206.861h0v-6.843l15.346-.008,5.3-3.062a5.28,5.28,0,0,1,4.75.2L391.5,200l15.359-.008v7.038a1.377,1.377,0,0,1-.816,1.273l-19.834,11.451a5.28,5.28,0,0,1-4.75-.2L362.312,208.5A1.881,1.881,0,0,1,361.155,206.861Z" transform="translate(-361.149 -186.82)" fill="#396caa"/>
          <path id="Trazado_139818" data-name="Trazado 139818" d="M396.532,196.478a5.481,5.481,0,0,1,2.546.667L404.027,200l15.359-.008v7.038a1.377,1.377,0,0,1-.816,1.273l-19.834,11.451a4.3,4.3,0,0,1-2.2.471Z" transform="translate(-373.673 -186.822)" fill="#396caa"/>
          <path id="Trazado_139819" data-name="Trazado 139819" d="M429.217,201.922h1.738v7.038a1.377,1.377,0,0,1-.816,1.273l-.923.533Z" transform="translate(-385.243 -188.748)" fill="#5793ce"/>
          <path id="Trazado_139820" data-name="Trazado 139820" d="M397.391,228.34a5.412,5.412,0,0,1-3.8-.043v-7.991h3.8Z" transform="translate(-372.633 -195.256)" fill="#5793ce"/>
          <path id="Trazado_139821" data-name="Trazado 139821" d="M386.211,207.452,406.045,196c1.218-.7,1.065-1.931-.34-2.742L386.553,182.2a5.279,5.279,0,0,0-4.75-.2L361.97,193.457c-1.217.7-1.065,1.93.341,2.742l19.151,11.057A5.277,5.277,0,0,0,386.211,207.452Z" transform="translate(-361.148 -181.531)" fill="#d4ecff"/>
          <path id="Trazado_139822" data-name="Trazado 139822" d="M387.883,206.563l16.622-9.6c1.02-.589.892-1.618-.286-2.3L388.17,185.4a4.423,4.423,0,0,0-3.98-.165l-16.621,9.6c-1.02.589-.892,1.618.286,2.3L383.9,206.4A4.424,4.424,0,0,0,387.883,206.563Z" transform="translate(-363.177 -182.702)" fill="#5793ce"/>
          <g id="Grupo_91490" data-name="Grupo 91490" transform="translate(2.146 18.299)">
            <path id="Trazado_139823" data-name="Trazado 139823" d="M372.45,215.036a1.771,1.771,0,0,0,.8,1.388c.443.255.8.048.8-.463a1.77,1.77,0,0,0-.8-1.388C372.809,214.318,372.45,214.525,372.45,215.036Z" transform="translate(-367.295 -211.488)" fill="#d4ecff"/>
            <path id="Trazado_139824" data-name="Trazado 139824" d="M368.46,212.732a1.77,1.77,0,0,0,.8,1.387c.443.256.8.048.8-.463a1.772,1.772,0,0,0-.8-1.388C368.819,212.014,368.46,212.221,368.46,212.732Z" transform="translate(-365.882 -210.672)" fill="#d4ecff"/>
            <path id="Trazado_139825" data-name="Trazado 139825" d="M364.47,210.429a1.773,1.773,0,0,0,.8,1.388c.443.255.8.048.8-.463a1.772,1.772,0,0,0-.8-1.388C364.829,209.711,364.47,209.918,364.47,210.429Z" transform="translate(-364.47 -209.857)" fill="#d4ecff"/>
          </g>
        </g>
        <g id="Grupo_91493" data-name="Grupo 91493" transform="translate(0 10.936)">
          <path id="Trazado_139826" data-name="Trazado 139826" d="M361.155,189.933h0v-6.844l15.346-.008,5.3-3.062a5.278,5.278,0,0,1,4.75.2l4.949,2.857,15.359-.008V190.1a1.377,1.377,0,0,1-.816,1.272l-19.834,11.452a5.28,5.28,0,0,1-4.75-.2l-19.151-11.057A1.882,1.882,0,0,1,361.155,189.933Z" transform="translate(-361.149 -169.891)" fill="#396caa"/>
          <path id="Trazado_139827" data-name="Trazado 139827" d="M396.532,179.549a5.474,5.474,0,0,1,2.546.668l4.949,2.857,15.359-.008V190.1a1.377,1.377,0,0,1-.816,1.272l-19.834,11.452a4.3,4.3,0,0,1-2.2.47Z" transform="translate(-373.673 -169.893)" fill="#396caa"/>
          <path id="Trazado_139828" data-name="Trazado 139828" d="M429.217,184.993h1.738v7.038a1.377,1.377,0,0,1-.816,1.272l-.923.533Z" transform="translate(-385.243 -171.819)" fill="#5793ce"/>
          <path id="Trazado_139829" data-name="Trazado 139829" d="M397.391,211.411a5.408,5.408,0,0,1-3.8-.043v-7.991h3.8Z" transform="translate(-372.633 -178.327)" fill="#5793ce"/>
          <path id="Trazado_139830" data-name="Trazado 139830" d="M386.211,190.523l19.834-11.451c1.218-.7,1.065-1.93-.34-2.742l-19.152-11.057a5.279,5.279,0,0,0-4.75-.2L361.97,176.528c-1.217.7-1.065,1.93.341,2.742l19.151,11.057A5.279,5.279,0,0,0,386.211,190.523Z" transform="translate(-361.148 -164.602)" fill="#d4ecff"/>
          <path id="Trazado_139831" data-name="Trazado 139831" d="M387.883,189.634l16.622-9.6c1.02-.589.892-1.618-.286-2.3l-16.049-9.266a4.423,4.423,0,0,0-3.98-.165l-16.621,9.6c-1.02.589-.892,1.618.286,2.3l16.049,9.266A4.424,4.424,0,0,0,387.883,189.634Z" transform="translate(-363.177 -165.773)" fill="#5793ce"/>
          <g id="Grupo_91492" data-name="Grupo 91492" transform="translate(2.146 18.3)">
            <path id="Trazado_139832" data-name="Trazado 139832" d="M372.45,198.107a1.77,1.77,0,0,0,.8,1.388c.443.255.8.048.8-.463a1.771,1.771,0,0,0-.8-1.388C372.809,197.389,372.45,197.6,372.45,198.107Z" transform="translate(-367.295 -194.559)" fill="#d4ecff"/>
            <path id="Trazado_139833" data-name="Trazado 139833" d="M368.46,195.8a1.77,1.77,0,0,0,.8,1.387c.443.256.8.048.8-.462a1.77,1.77,0,0,0-.8-1.388C368.819,195.085,368.46,195.293,368.46,195.8Z" transform="translate(-365.882 -193.743)" fill="#5793ce"/>
            <path id="Trazado_139834" data-name="Trazado 139834" d="M364.47,193.5a1.772,1.772,0,0,0,.8,1.388c.443.255.8.048.8-.463a1.772,1.772,0,0,0-.8-1.388C364.829,192.782,364.47,192.989,364.47,193.5Z" transform="translate(-364.47 -192.928)" fill="#5793ce"/>
          </g>
        </g>
        <g id="Grupo_91496" data-name="Grupo 91496" transform="translate(0)">
          <path id="Trazado_139835" data-name="Trazado 139835" d="M361.155,173h0V166.16l15.346-.009,5.3-3.062a5.28,5.28,0,0,1,4.75.2l4.949,2.857,15.359-.008v7.038a1.376,1.376,0,0,1-.816,1.272L386.213,185.9a5.28,5.28,0,0,1-4.75-.2l-19.151-11.057A1.881,1.881,0,0,1,361.155,173Z" transform="translate(-361.149 -152.962)" fill="#396caa"/>
          <path id="Trazado_139836" data-name="Trazado 139836" d="M396.532,162.62a5.482,5.482,0,0,1,2.546.668l4.949,2.857,15.359-.008v7.038a1.376,1.376,0,0,1-.816,1.272L398.736,185.9a4.3,4.3,0,0,1-2.2.471Z" transform="translate(-373.673 -152.964)" fill="#396caa"/>
          <path id="Trazado_139837" data-name="Trazado 139837" d="M429.217,168.064h1.738V175.1a1.376,1.376,0,0,1-.816,1.272l-.923.533Z" transform="translate(-385.243 -154.891)" fill="#5793ce"/>
          <path id="Trazado_139838" data-name="Trazado 139838" d="M397.391,194.482a5.415,5.415,0,0,1-3.8-.043v-7.992h3.8Z" transform="translate(-372.633 -161.398)" fill="#5793ce"/>
          <path id="Trazado_139839" data-name="Trazado 139839" d="M386.211,173.6l19.834-11.452c1.218-.7,1.065-1.93-.34-2.742l-19.152-11.057a5.279,5.279,0,0,0-4.75-.2L361.97,159.6c-1.217.7-1.065,1.93.341,2.742L381.462,173.4A5.28,5.28,0,0,0,386.211,173.6Z" transform="translate(-361.148 -147.673)" fill="#d4ecff"/>
          <path id="Trazado_139840" data-name="Trazado 139840" d="M362.312,167.824l19.152,11.057a5.278,5.278,0,0,0,4.749.2l19.834-11.451a1.825,1.825,0,0,0,.608-.539,1.276,1.276,0,0,1-.608,1.886l-19.834,11.451a5.278,5.278,0,0,1-4.749-.2L362.312,169.17c-1.092-.631-1.424-1.511-.948-2.2A2.65,2.65,0,0,0,362.312,167.824Z" transform="translate(-361.15 -154.503)" fill="#fff"/>
          <g id="Grupo_91494" data-name="Grupo 91494" transform="translate(2.146 18.299)">
            <path id="Trazado_139841" data-name="Trazado 139841" d="M372.45,181.178a1.77,1.77,0,0,0,.8,1.387c.443.256.8.048.8-.463a1.77,1.77,0,0,0-.8-1.387C372.809,180.46,372.45,180.668,372.45,181.178Z" transform="translate(-367.295 -177.63)" fill="#5793ce"/>
            <path id="Trazado_139842" data-name="Trazado 139842" d="M368.46,178.875a1.771,1.771,0,0,0,.8,1.388c.443.255.8.048.8-.463a1.771,1.771,0,0,0-.8-1.388C368.819,178.157,368.46,178.364,368.46,178.875Z" transform="translate(-365.882 -176.815)" fill="#d4ecff"/>
            <path id="Trazado_139843" data-name="Trazado 139843" d="M364.47,176.572a1.772,1.772,0,0,0,.8,1.387c.443.256.8.048.8-.463a1.77,1.77,0,0,0-.8-1.387C364.829,175.853,364.47,176.061,364.47,176.572Z" transform="translate(-364.47 -175.999)" fill="#d4ecff"/>
          </g>
          <g id="Grupo_91495" data-name="Grupo 91495" transform="translate(12.162 6.692)">
            <path id="Trazado_139844" data-name="Trazado 139844" d="M391.7,170.162l9.282-5.359c.57-.329.5-.9-.16-1.283l-8.962-5.174a2.468,2.468,0,0,0-2.222-.092l-9.281,5.358c-.57.329-.5.9.159,1.283l8.962,5.175A2.472,2.472,0,0,0,391.7,170.162Z" transform="translate(-379.974 -158.032)" fill="#5793ce"/>
            <path id="Trazado_139845" data-name="Trazado 139845" d="M395.864,168.943l1.284-.742c.079-.045.068-.125-.022-.177l-1.24-.716a.339.339,0,0,0-.307-.013l-1.284.741c-.079.046-.069.125.022.178l1.24.716A.339.339,0,0,0,395.864,168.943Z" transform="translate(-385.024 -161.3)" fill="#d4ecff"/>
            <path id="Trazado_139846" data-name="Trazado 139846" d="M400.985,164.8l-.026.016a1.558,1.558,0,0,0-.134-.092l-8.962-5.174a2.47,2.47,0,0,0-2.222-.092l-9.255,5.343c-.525-.375-.553-.888-.026-1.191l9.282-5.358a2.468,2.468,0,0,1,2.222.092l8.962,5.174C401.484,163.9,401.555,164.474,400.985,164.8Z" transform="translate(-379.975 -158.032)" fill="#396caa"/>
          </g>
        </g>
      </g>
      <g id="Grupo_91506" data-name="Grupo 91506" transform="translate(354.83 127.727)">
        <path id="Trazado_139847" data-name="Trazado 139847" d="M442.431,259.754l15.839-9.145c.972-.561.85-1.542-.273-2.19l-15.294-8.83a4.214,4.214,0,0,0-3.792-.157l-15.839,9.145c-.972.561-.85,1.541.273,2.189l15.293,8.831A4.216,4.216,0,0,0,442.431,259.754Z" transform="translate(-417.812 -199.697)" fill="#b2d3ea"/>
        <g id="Grupo_91499" data-name="Grupo 91499" transform="translate(0 21.873)">
          <path id="Trazado_139848" data-name="Trazado 139848" d="M415.3,237.321h0v-6.843l15.345-.008,5.3-3.063a5.28,5.28,0,0,1,4.749.2l4.949,2.857L461,230.452v7.038a1.376,1.376,0,0,1-.815,1.273l-19.834,11.451a5.278,5.278,0,0,1-4.749-.2L416.453,238.96A1.88,1.88,0,0,1,415.3,237.321Z" transform="translate(-415.291 -217.28)" fill="#396caa"/>
          <path id="Trazado_139849" data-name="Trazado 139849" d="M450.673,226.938a5.478,5.478,0,0,1,2.546.667l4.949,2.857,15.359-.008v7.038a1.376,1.376,0,0,1-.815,1.273l-19.834,11.451a4.3,4.3,0,0,1-2.2.471Z" transform="translate(-427.814 -217.282)" fill="#396caa"/>
          <path id="Trazado_139850" data-name="Trazado 139850" d="M483.358,232.382H485.1v7.038a1.377,1.377,0,0,1-.815,1.273l-.923.532Z" transform="translate(-439.384 -219.208)" fill="#5793ce"/>
          <path id="Trazado_139851" data-name="Trazado 139851" d="M451.532,258.8a5.41,5.41,0,0,1-3.8-.043v-7.991h3.8Z" transform="translate(-426.774 -225.716)" fill="#5793ce"/>
          <path id="Trazado_139852" data-name="Trazado 139852" d="M440.352,237.912l19.834-11.451c1.217-.7,1.065-1.931-.341-2.742l-19.152-11.057a5.278,5.278,0,0,0-4.749-.2l-19.834,11.451c-1.217.7-1.065,1.93.341,2.742L435.6,237.715A5.276,5.276,0,0,0,440.352,237.912Z" transform="translate(-415.289 -211.991)" fill="#d4ecff"/>
          <path id="Trazado_139853" data-name="Trazado 139853" d="M442.025,237.023l16.621-9.6c1.02-.589.892-1.618-.286-2.3l-16.049-9.266a4.425,4.425,0,0,0-3.98-.165l-16.621,9.6c-1.02.589-.892,1.618.286,2.3l16.049,9.266A4.425,4.425,0,0,0,442.025,237.023Z" transform="translate(-417.318 -213.162)" fill="#5793ce"/>
          <g id="Grupo_91498" data-name="Grupo 91498" transform="translate(2.147 18.299)">
            <path id="Trazado_139854" data-name="Trazado 139854" d="M426.591,245.5a1.771,1.771,0,0,0,.8,1.388c.443.255.8.048.8-.463a1.77,1.77,0,0,0-.8-1.388C426.95,244.778,426.591,244.985,426.591,245.5Z" transform="translate(-421.436 -241.948)" fill="#d4ecff"/>
            <path id="Trazado_139855" data-name="Trazado 139855" d="M422.6,243.192a1.772,1.772,0,0,0,.8,1.388c.443.256.8.048.8-.463a1.77,1.77,0,0,0-.8-1.387C422.96,242.474,422.6,242.681,422.6,243.192Z" transform="translate(-420.024 -241.132)" fill="#5793ce"/>
            <path id="Trazado_139856" data-name="Trazado 139856" d="M418.612,240.889a1.771,1.771,0,0,0,.8,1.388c.443.255.8.048.8-.463a1.77,1.77,0,0,0-.8-1.388C418.971,240.171,418.612,240.378,418.612,240.889Z" transform="translate(-418.612 -240.317)" fill="#d4ecff"/>
          </g>
        </g>
        <g id="Grupo_91501" data-name="Grupo 91501" transform="translate(0 10.936)">
          <path id="Trazado_139857" data-name="Trazado 139857" d="M415.3,220.393h0v-6.844l15.345-.008,5.3-3.062a5.276,5.276,0,0,1,4.749.2l4.949,2.857L461,213.523v7.039a1.376,1.376,0,0,1-.815,1.272l-19.834,11.452a5.278,5.278,0,0,1-4.749-.2l-19.152-11.057A1.88,1.88,0,0,1,415.3,220.393Z" transform="translate(-415.291 -200.351)" fill="#396caa"/>
          <path id="Trazado_139858" data-name="Trazado 139858" d="M450.673,210.009a5.472,5.472,0,0,1,2.546.668l4.949,2.857,15.359-.008v7.038a1.376,1.376,0,0,1-.815,1.272l-19.834,11.451a4.3,4.3,0,0,1-2.2.471Z" transform="translate(-427.814 -200.353)" fill="#396caa"/>
          <path id="Trazado_139859" data-name="Trazado 139859" d="M483.358,215.453H485.1v7.038a1.376,1.376,0,0,1-.815,1.272l-.923.533Z" transform="translate(-439.384 -202.279)" fill="#5793ce"/>
          <path id="Trazado_139860" data-name="Trazado 139860" d="M451.532,241.871a5.406,5.406,0,0,1-3.8-.043v-7.991h3.8Z" transform="translate(-426.774 -208.787)" fill="#5793ce"/>
          <path id="Trazado_139861" data-name="Trazado 139861" d="M440.352,220.983l19.834-11.451c1.217-.7,1.065-1.93-.341-2.742l-19.152-11.057a5.278,5.278,0,0,0-4.749-.2l-19.834,11.451c-1.217.7-1.065,1.93.341,2.742L435.6,220.787A5.278,5.278,0,0,0,440.352,220.983Z" transform="translate(-415.289 -195.062)" fill="#d4ecff"/>
          <path id="Trazado_139862" data-name="Trazado 139862" d="M442.025,220.094l16.621-9.6c1.02-.589.892-1.618-.286-2.3l-16.049-9.266a4.423,4.423,0,0,0-3.98-.165l-16.621,9.6c-1.02.589-.892,1.618.286,2.3l16.049,9.266A4.425,4.425,0,0,0,442.025,220.094Z" transform="translate(-417.318 -196.233)" fill="#5793ce"/>
          <g id="Grupo_91500" data-name="Grupo 91500" transform="translate(2.147 18.3)">
            <path id="Trazado_139863" data-name="Trazado 139863" d="M426.591,228.567a1.77,1.77,0,0,0,.8,1.388c.443.255.8.048.8-.463a1.771,1.771,0,0,0-.8-1.388C426.95,227.849,426.591,228.056,426.591,228.567Z" transform="translate(-421.436 -225.019)" fill="#d4ecff"/>
            <path id="Trazado_139864" data-name="Trazado 139864" d="M422.6,226.264a1.773,1.773,0,0,0,.8,1.388c.443.255.8.048.8-.463a1.77,1.77,0,0,0-.8-1.388C422.96,225.545,422.6,225.753,422.6,226.264Z" transform="translate(-420.024 -224.203)" fill="#d4ecff"/>
            <path id="Trazado_139865" data-name="Trazado 139865" d="M418.612,223.96a1.77,1.77,0,0,0,.8,1.388c.443.256.8.048.8-.463a1.771,1.771,0,0,0-.8-1.388C418.971,223.242,418.612,223.449,418.612,223.96Z" transform="translate(-418.612 -223.388)" fill="#5793ce"/>
          </g>
        </g>
        <g id="Grupo_91504" data-name="Grupo 91504">
          <path id="Trazado_139866" data-name="Trazado 139866" d="M415.3,203.464h0V196.62l15.345-.009,5.3-3.062a5.278,5.278,0,0,1,4.749.2l4.949,2.857L461,196.594v7.038a1.376,1.376,0,0,1-.815,1.272l-19.834,11.452a5.276,5.276,0,0,1-4.749-.2L416.453,205.1A1.881,1.881,0,0,1,415.3,203.464Z" transform="translate(-415.291 -183.422)" fill="#396caa"/>
          <path id="Trazado_139867" data-name="Trazado 139867" d="M450.673,193.08a5.48,5.48,0,0,1,2.546.668l4.949,2.857,15.359-.009v7.038a1.376,1.376,0,0,1-.815,1.272l-19.834,11.452a4.3,4.3,0,0,1-2.2.471Z" transform="translate(-427.814 -183.424)" fill="#396caa"/>
          <path id="Trazado_139868" data-name="Trazado 139868" d="M483.358,198.524H485.1v7.039a1.376,1.376,0,0,1-.815,1.272l-.923.533Z" transform="translate(-439.384 -185.351)" fill="#5793ce"/>
          <path id="Trazado_139869" data-name="Trazado 139869" d="M451.532,224.942a5.413,5.413,0,0,1-3.8-.043v-7.992h3.8Z" transform="translate(-426.774 -191.858)" fill="#5793ce"/>
          <path id="Trazado_139870" data-name="Trazado 139870" d="M440.352,204.055,460.187,192.6c1.217-.7,1.065-1.93-.341-2.742L440.694,178.8a5.278,5.278,0,0,0-4.749-.2l-19.834,11.451c-1.217.7-1.065,1.93.341,2.742L435.6,203.858A5.278,5.278,0,0,0,440.352,204.055Z" transform="translate(-415.289 -178.133)" fill="#d4ecff"/>
          <path id="Trazado_139871" data-name="Trazado 139871" d="M416.454,198.284l19.152,11.057a5.278,5.278,0,0,0,4.749.2l19.834-11.452a1.822,1.822,0,0,0,.607-.539,1.276,1.276,0,0,1-.607,1.886l-19.834,11.451a5.278,5.278,0,0,1-4.749-.2L416.454,199.63c-1.092-.631-1.424-1.511-.948-2.2A2.65,2.65,0,0,0,416.454,198.284Z" transform="translate(-415.291 -184.963)" fill="#fff"/>
          <g id="Grupo_91502" data-name="Grupo 91502" transform="translate(2.147 18.299)">
            <path id="Trazado_139872" data-name="Trazado 139872" d="M426.591,211.638a1.77,1.77,0,0,0,.8,1.388c.443.256.8.048.8-.463a1.77,1.77,0,0,0-.8-1.387C426.95,210.92,426.591,211.128,426.591,211.638Z" transform="translate(-421.436 -208.09)" fill="#5793ce"/>
            <path id="Trazado_139873" data-name="Trazado 139873" d="M422.6,209.335a1.773,1.773,0,0,0,.8,1.388c.443.255.8.048.8-.463a1.77,1.77,0,0,0-.8-1.388C422.96,208.617,422.6,208.824,422.6,209.335Z" transform="translate(-420.024 -207.275)" fill="#5793ce"/>
            <path id="Trazado_139874" data-name="Trazado 139874" d="M418.612,207.031a1.77,1.77,0,0,0,.8,1.388c.443.256.8.048.8-.463a1.77,1.77,0,0,0-.8-1.387C418.971,206.313,418.612,206.521,418.612,207.031Z" transform="translate(-418.612 -206.459)" fill="#d4ecff"/>
          </g>
          <g id="Grupo_91503" data-name="Grupo 91503" transform="translate(12.162 6.692)">
            <path id="Trazado_139875" data-name="Trazado 139875" d="M445.844,200.622l9.281-5.359c.569-.329.5-.9-.16-1.283L446,188.806a2.468,2.468,0,0,0-2.222-.092l-9.281,5.358c-.569.329-.5.9.16,1.283l8.962,5.175A2.472,2.472,0,0,0,445.844,200.622Z" transform="translate(-434.115 -188.492)" fill="#5793ce"/>
            <path id="Trazado_139876" data-name="Trazado 139876" d="M450.005,199.4l1.284-.742c.079-.045.069-.125-.022-.177l-1.24-.716a.341.341,0,0,0-.307-.012l-1.284.741c-.079.046-.069.125.022.178l1.24.716A.339.339,0,0,0,450.005,199.4Z" transform="translate(-439.165 -191.76)" fill="#d4ecff"/>
            <path id="Trazado_139877" data-name="Trazado 139877" d="M455.127,195.264l-.026.015c-.043-.031-.083-.063-.133-.092l-8.962-5.174a2.47,2.47,0,0,0-2.222-.092l-9.255,5.343c-.525-.375-.552-.887-.026-1.191l9.282-5.358a2.468,2.468,0,0,1,2.222.092l8.962,5.174C455.625,194.36,455.7,194.934,455.127,195.264Z" transform="translate(-434.117 -188.492)" fill="#396caa"/>
          </g>
        </g>
        <g id="Grupo_91505" data-name="Grupo 91505" transform="translate(26.826 36.394)">
          <path id="Trazado_139878" data-name="Trazado 139878" d="M456.814,237.124c0,.366.257.515.574.331a1.269,1.269,0,0,0,.574-.995c0-.366-.257-.515-.574-.331A1.269,1.269,0,0,0,456.814,237.124Z" transform="translate(-456.814 -235.028)" fill="#d4ecff"/>
          <path id="Trazado_139879" data-name="Trazado 139879" d="M459.572,235.541c0,.367.258.515.575.332a1.27,1.27,0,0,0,.574-.995c0-.367-.257-.515-.574-.332A1.271,1.271,0,0,0,459.572,235.541Z" transform="translate(-457.79 -234.468)" fill="#d4ecff"/>
          <path id="Trazado_139880" data-name="Trazado 139880" d="M456.814,240.453c0,.366.257.515.574.332a1.271,1.271,0,0,0,.574-1c0-.366-.257-.515-.574-.331A1.269,1.269,0,0,0,456.814,240.453Z" transform="translate(-456.814 -236.206)" fill="#d4ecff"/>
          <path id="Trazado_139881" data-name="Trazado 139881" d="M459.572,238.871c0,.366.258.515.575.331a1.269,1.269,0,0,0,.574-.995c0-.366-.257-.515-.574-.332A1.272,1.272,0,0,0,459.572,238.871Z" transform="translate(-457.79 -235.646)" fill="#5793ce"/>
        </g>
      </g>
      <g id="Grupo_91517" data-name="Grupo 91517" transform="translate(389.807 147.405)">
        <path id="Trazado_139882" data-name="Trazado 139882" d="M496.572,290.214l15.839-9.145c.972-.561.85-1.542-.273-2.19l-15.293-8.83a4.215,4.215,0,0,0-3.793-.157l-15.839,9.145c-.972.561-.85,1.541.273,2.19l15.294,8.83A4.214,4.214,0,0,0,496.572,290.214Z" transform="translate(-471.953 -230.157)" fill="#b2d3ea"/>
        <g id="Grupo_91508" data-name="Grupo 91508" transform="translate(0 21.873)">
          <path id="Trazado_139883" data-name="Trazado 139883" d="M469.438,267.781h0v-6.843l15.345-.008,5.3-3.062a5.278,5.278,0,0,1,4.749.2l4.949,2.857,15.359-.008v7.038a1.376,1.376,0,0,1-.815,1.273l-19.834,11.451a5.281,5.281,0,0,1-4.749-.2L470.594,269.42A1.88,1.88,0,0,1,469.438,267.781Z" transform="translate(-469.432 -247.74)" fill="#396caa"/>
          <path id="Trazado_139884" data-name="Trazado 139884" d="M504.815,257.4a5.477,5.477,0,0,1,2.545.667l4.949,2.857,15.359-.008v7.038a1.376,1.376,0,0,1-.815,1.273l-19.834,11.451a4.3,4.3,0,0,1-2.2.47Z" transform="translate(-481.955 -247.742)" fill="#396caa"/>
          <path id="Trazado_139885" data-name="Trazado 139885" d="M537.5,262.842h1.738v7.038a1.376,1.376,0,0,1-.815,1.273l-.922.533Z" transform="translate(-493.525 -249.668)" fill="#5793ce"/>
          <path id="Trazado_139886" data-name="Trazado 139886" d="M505.673,289.26a5.41,5.41,0,0,1-3.8-.043v-7.991h3.8Z" transform="translate(-480.915 -256.176)" fill="#5793ce"/>
          <path id="Trazado_139887" data-name="Trazado 139887" d="M494.493,268.372l19.834-11.451c1.217-.7,1.065-1.931-.341-2.742l-19.152-11.057a5.278,5.278,0,0,0-4.749-.2l-19.834,11.452c-1.217.7-1.065,1.93.341,2.742l19.151,11.057A5.278,5.278,0,0,0,494.493,268.372Z" transform="translate(-469.43 -242.451)" fill="#d4ecff"/>
          <path id="Trazado_139888" data-name="Trazado 139888" d="M496.166,267.483l16.621-9.6c1.02-.589.892-1.618-.286-2.3l-16.049-9.266a4.423,4.423,0,0,0-3.98-.165l-16.621,9.6c-1.02.589-.892,1.618.286,2.3l16.049,9.265A4.425,4.425,0,0,0,496.166,267.483Z" transform="translate(-471.459 -243.622)" fill="#5793ce"/>
          <g id="Grupo_91507" data-name="Grupo 91507" transform="translate(2.147 18.299)">
            <path id="Trazado_139889" data-name="Trazado 139889" d="M480.732,275.956a1.773,1.773,0,0,0,.8,1.388c.443.255.8.048.8-.463a1.771,1.771,0,0,0-.8-1.388C481.091,275.238,480.732,275.445,480.732,275.956Z" transform="translate(-475.577 -272.408)" fill="#d4ecff"/>
            <path id="Trazado_139890" data-name="Trazado 139890" d="M476.743,273.652a1.77,1.77,0,0,0,.8,1.387c.443.256.8.048.8-.463a1.77,1.77,0,0,0-.8-1.387C477.1,272.934,476.743,273.141,476.743,273.652Z" transform="translate(-474.165 -271.592)" fill="#5793ce"/>
            <path id="Trazado_139891" data-name="Trazado 139891" d="M472.753,271.349a1.771,1.771,0,0,0,.8,1.388c.443.255.8.048.8-.463a1.771,1.771,0,0,0-.8-1.388C473.112,270.631,472.753,270.838,472.753,271.349Z" transform="translate(-472.753 -270.777)" fill="#d4ecff"/>
          </g>
        </g>
        <g id="Grupo_91510" data-name="Grupo 91510" transform="translate(0 10.936)">
          <path id="Trazado_139892" data-name="Trazado 139892" d="M469.438,250.853h0v-6.844L484.783,244l5.3-3.062a5.276,5.276,0,0,1,4.749.2l4.949,2.857,15.359-.008v7.038a1.376,1.376,0,0,1-.815,1.272l-19.834,11.452a5.279,5.279,0,0,1-4.749-.2l-19.151-11.057A1.882,1.882,0,0,1,469.438,250.853Z" transform="translate(-469.432 -230.811)" fill="#396caa"/>
          <path id="Trazado_139893" data-name="Trazado 139893" d="M504.815,240.469a5.477,5.477,0,0,1,2.545.668l4.949,2.857,15.359-.008v7.039a1.376,1.376,0,0,1-.815,1.272l-19.834,11.452a4.3,4.3,0,0,1-2.2.471Z" transform="translate(-481.955 -230.813)" fill="#396caa"/>
          <path id="Trazado_139894" data-name="Trazado 139894" d="M537.5,245.913h1.738v7.039a1.376,1.376,0,0,1-.815,1.272l-.922.533Z" transform="translate(-493.525 -232.739)" fill="#5793ce"/>
          <path id="Trazado_139895" data-name="Trazado 139895" d="M505.673,272.331a5.406,5.406,0,0,1-3.8-.043V264.3h3.8Z" transform="translate(-480.915 -239.247)" fill="#5793ce"/>
          <path id="Trazado_139896" data-name="Trazado 139896" d="M494.493,251.443l19.834-11.451c1.217-.7,1.065-1.93-.341-2.742l-19.152-11.057a5.278,5.278,0,0,0-4.749-.2l-19.834,11.451c-1.217.7-1.065,1.93.341,2.742l19.151,11.057A5.278,5.278,0,0,0,494.493,251.443Z" transform="translate(-469.43 -225.522)" fill="#d4ecff"/>
          <path id="Trazado_139897" data-name="Trazado 139897" d="M496.166,250.554l16.621-9.6c1.02-.589.892-1.618-.286-2.3l-16.049-9.266a4.423,4.423,0,0,0-3.98-.165l-16.621,9.6c-1.02.589-.892,1.618.286,2.3l16.049,9.266A4.425,4.425,0,0,0,496.166,250.554Z" transform="translate(-471.459 -226.693)" fill="#5793ce"/>
          <g id="Grupo_91509" data-name="Grupo 91509" transform="translate(2.147 18.3)">
            <path id="Trazado_139898" data-name="Trazado 139898" d="M480.732,259.027a1.772,1.772,0,0,0,.8,1.388c.443.255.8.048.8-.463a1.771,1.771,0,0,0-.8-1.388C481.091,258.309,480.732,258.516,480.732,259.027Z" transform="translate(-475.577 -255.479)" fill="#5793ce"/>
            <path id="Trazado_139899" data-name="Trazado 139899" d="M476.743,256.724a1.771,1.771,0,0,0,.8,1.388c.443.255.8.048.8-.463a1.77,1.77,0,0,0-.8-1.388C477.1,256.005,476.743,256.212,476.743,256.724Z" transform="translate(-474.165 -254.663)" fill="#5793ce"/>
            <path id="Trazado_139900" data-name="Trazado 139900" d="M472.753,254.42a1.77,1.77,0,0,0,.8,1.388c.443.255.8.048.8-.463a1.771,1.771,0,0,0-.8-1.388C473.112,253.7,472.753,253.909,472.753,254.42Z" transform="translate(-472.753 -253.848)" fill="#d4ecff"/>
          </g>
        </g>
        <g id="Grupo_91513" data-name="Grupo 91513">
          <path id="Trazado_139901" data-name="Trazado 139901" d="M469.438,233.924h0V227.08l15.345-.009,5.3-3.062a5.278,5.278,0,0,1,4.749.2l4.949,2.857,15.359-.008v7.038a1.375,1.375,0,0,1-.815,1.272l-19.834,11.452a5.278,5.278,0,0,1-4.749-.2l-19.151-11.057A1.881,1.881,0,0,1,469.438,233.924Z" transform="translate(-469.432 -213.882)" fill="#396caa"/>
          <path id="Trazado_139902" data-name="Trazado 139902" d="M504.815,223.54a5.478,5.478,0,0,1,2.545.668l4.949,2.857,15.359-.008v7.038a1.375,1.375,0,0,1-.815,1.272l-19.834,11.451a4.3,4.3,0,0,1-2.2.471Z" transform="translate(-481.955 -213.884)" fill="#396caa"/>
          <path id="Trazado_139903" data-name="Trazado 139903" d="M537.5,228.984h1.738v7.038a1.376,1.376,0,0,1-.815,1.272l-.922.533Z" transform="translate(-493.525 -215.811)" fill="#5793ce"/>
          <path id="Trazado_139904" data-name="Trazado 139904" d="M505.673,255.4a5.413,5.413,0,0,1-3.8-.043v-7.991h3.8Z" transform="translate(-480.915 -222.318)" fill="#5793ce"/>
          <path id="Trazado_139905" data-name="Trazado 139905" d="M494.493,234.515l19.834-11.451c1.217-.7,1.065-1.93-.341-2.742l-19.152-11.057a5.278,5.278,0,0,0-4.749-.2l-19.834,11.451c-1.217.7-1.065,1.93.341,2.742l19.151,11.057A5.278,5.278,0,0,0,494.493,234.515Z" transform="translate(-469.43 -208.593)" fill="#d4ecff"/>
          <path id="Trazado_139906" data-name="Trazado 139906" d="M470.595,228.744,489.746,239.8a5.278,5.278,0,0,0,4.749.2l19.834-11.452a1.824,1.824,0,0,0,.607-.539,1.276,1.276,0,0,1-.607,1.886L494.5,241.344a5.278,5.278,0,0,1-4.749-.2l-19.152-11.057c-1.092-.631-1.424-1.512-.948-2.2A2.65,2.65,0,0,0,470.595,228.744Z" transform="translate(-469.432 -215.423)" fill="#fff"/>
          <g id="Grupo_91511" data-name="Grupo 91511" transform="translate(2.147 18.299)">
            <path id="Trazado_139907" data-name="Trazado 139907" d="M480.732,242.1a1.772,1.772,0,0,0,.8,1.387c.443.256.8.048.8-.463a1.77,1.77,0,0,0-.8-1.387C481.091,241.38,480.732,241.587,480.732,242.1Z" transform="translate(-475.577 -238.55)" fill="#d4ecff"/>
            <path id="Trazado_139908" data-name="Trazado 139908" d="M476.743,239.795a1.771,1.771,0,0,0,.8,1.388c.443.255.8.048.8-.463a1.771,1.771,0,0,0-.8-1.388C477.1,239.077,476.743,239.284,476.743,239.795Z" transform="translate(-474.165 -237.735)" fill="#d4ecff"/>
            <path id="Trazado_139909" data-name="Trazado 139909" d="M472.753,237.492a1.77,1.77,0,0,0,.8,1.387c.443.256.8.048.8-.463a1.77,1.77,0,0,0-.8-1.387C473.112,236.773,472.753,236.98,472.753,237.492Z" transform="translate(-472.753 -236.919)" fill="#5793ce"/>
          </g>
          <g id="Grupo_91512" data-name="Grupo 91512" transform="translate(12.162 6.692)">
            <path id="Trazado_139910" data-name="Trazado 139910" d="M499.985,231.082l9.281-5.359c.57-.329.5-.9-.16-1.283l-8.962-5.174a2.47,2.47,0,0,0-2.222-.092l-9.281,5.358c-.57.329-.5.9.16,1.283l8.962,5.175A2.472,2.472,0,0,0,499.985,231.082Z" transform="translate(-488.256 -218.952)" fill="#5793ce"/>
            <path id="Trazado_139911" data-name="Trazado 139911" d="M504.147,229.863l1.284-.741c.079-.046.069-.125-.022-.178l-1.24-.716a.34.34,0,0,0-.308-.013l-1.284.741c-.079.046-.069.125.022.178l1.24.716A.34.34,0,0,0,504.147,229.863Z" transform="translate(-493.307 -222.22)" fill="#d4ecff"/>
            <path id="Trazado_139912" data-name="Trazado 139912" d="M509.268,225.723l-.027.016c-.043-.031-.083-.063-.133-.092l-8.962-5.174a2.47,2.47,0,0,0-2.222-.092l-9.255,5.343c-.525-.375-.552-.887-.026-1.191l9.281-5.358a2.47,2.47,0,0,1,2.222.092l8.962,5.174C509.766,224.82,509.838,225.394,509.268,225.723Z" transform="translate(-488.258 -218.952)" fill="#396caa"/>
          </g>
        </g>
        <g id="Grupo_91514" data-name="Grupo 91514" transform="translate(26.574 25.614)">
          <path id="Trazado_139913" data-name="Trazado 139913" d="M510.564,250.9c0,.366.257.515.574.331a1.269,1.269,0,0,0,.574-.995c0-.366-.257-.515-.574-.331A1.269,1.269,0,0,0,510.564,250.9Z" transform="translate(-510.564 -248.801)" fill="#d4ecff"/>
          <path id="Trazado_139914" data-name="Trazado 139914" d="M513.322,249.315c0,.366.258.515.575.331a1.27,1.27,0,0,0,.574-.995c0-.366-.257-.515-.574-.332A1.272,1.272,0,0,0,513.322,249.315Z" transform="translate(-511.54 -248.241)" fill="#d4ecff"/>
          <path id="Trazado_139915" data-name="Trazado 139915" d="M510.564,254.226c0,.366.257.515.574.332a1.27,1.27,0,0,0,.574-.995c0-.367-.257-.516-.574-.332A1.27,1.27,0,0,0,510.564,254.226Z" transform="translate(-510.564 -249.979)" fill="#d4ecff"/>
          <path id="Trazado_139916" data-name="Trazado 139916" d="M513.322,252.644c0,.366.258.515.575.331a1.269,1.269,0,0,0,.574-.995c0-.366-.257-.515-.574-.331A1.27,1.27,0,0,0,513.322,252.644Z" transform="translate(-511.54 -249.419)" fill="#5793ce"/>
        </g>
        <g id="Grupo_91515" data-name="Grupo 91515" transform="translate(26.574 36.55)">
          <path id="Trazado_139917" data-name="Trazado 139917" d="M510.564,267.826c0,.366.257.515.574.331a1.269,1.269,0,0,0,.574-.995c0-.366-.257-.515-.574-.332A1.271,1.271,0,0,0,510.564,267.826Z" transform="translate(-510.564 -265.73)" fill="#5793ce"/>
          <path id="Trazado_139918" data-name="Trazado 139918" d="M513.322,266.243c0,.366.258.515.575.332a1.271,1.271,0,0,0,.574-1c0-.366-.257-.515-.574-.331A1.271,1.271,0,0,0,513.322,266.243Z" transform="translate(-511.54 -265.169)" fill="#d4ecff"/>
          <path id="Trazado_139919" data-name="Trazado 139919" d="M510.564,271.155c0,.366.257.515.574.331a1.269,1.269,0,0,0,.574-.995c0-.366-.257-.515-.574-.331A1.269,1.269,0,0,0,510.564,271.155Z" transform="translate(-510.564 -266.908)" fill="#5793ce"/>
          <path id="Trazado_139920" data-name="Trazado 139920" d="M513.322,269.573c0,.366.258.515.575.331a1.269,1.269,0,0,0,.574-.995c0-.366-.257-.515-.574-.332A1.272,1.272,0,0,0,513.322,269.573Z" transform="translate(-511.54 -266.348)" fill="#d4ecff"/>
        </g>
        <g id="Grupo_91516" data-name="Grupo 91516" transform="translate(26.574 47.486)">
          <path id="Trazado_139921" data-name="Trazado 139921" d="M510.564,284.754c0,.366.257.515.574.332a1.27,1.27,0,0,0,.574-.995c0-.367-.257-.515-.574-.332A1.27,1.27,0,0,0,510.564,284.754Z" transform="translate(-510.564 -282.658)" fill="#d4ecff"/>
          <path id="Trazado_139922" data-name="Trazado 139922" d="M513.322,283.172c0,.366.258.515.575.331a1.269,1.269,0,0,0,.574-.995c0-.366-.257-.515-.574-.331A1.27,1.27,0,0,0,513.322,283.172Z" transform="translate(-511.54 -282.098)" fill="#5793ce"/>
          <path id="Trazado_139923" data-name="Trazado 139923" d="M510.564,288.084c0,.366.257.515.574.331a1.269,1.269,0,0,0,.574-.995c0-.366-.257-.515-.574-.332A1.271,1.271,0,0,0,510.564,288.084Z" transform="translate(-510.564 -283.837)" fill="#d4ecff"/>
          <path id="Trazado_139924" data-name="Trazado 139924" d="M513.322,286.5c0,.366.258.514.575.331a1.27,1.27,0,0,0,.574-.995c0-.367-.257-.515-.574-.332A1.271,1.271,0,0,0,513.322,286.5Z" transform="translate(-511.54 -283.277)" fill="#d4ecff"/>
        </g>
      </g>
      <g id="Grupo_91520" data-name="Grupo 91520" transform="translate(408.198 125.838)">
        <path id="Trazado_139925" data-name="Trazado 139925" d="M509.689,196.924l1.287-.518-1-.77Z" transform="translate(-502.071 -182.44)" fill="#5793ce"/>
        <path id="Trazado_139926" data-name="Trazado 139926" d="M508.693,175.773l1.25-.507-.088.524Z" transform="translate(-501.719 -175.229)" fill="#5793ce"/>
        <path id="Trazado_139927" data-name="Trazado 139927" d="M515.617,191.249l1.3-.526-1.9-1.914Z" transform="translate(-503.958 -180.023)" fill="#5793ce"/>
        <g id="Grupo_91518" data-name="Grupo 91518" transform="translate(1.307)">
          <path id="Trazado_139928" data-name="Trazado 139928" d="M508.231,191.651l-4.984-2.878a.806.806,0,0,1-.34-.821l1.194-5.657L510,185.7l-1.195,5.657A.375.375,0,0,1,508.231,191.651Z" transform="translate(-500.972 -177.717)" fill="#5793ce"/>
          <path id="Trazado_139929" data-name="Trazado 139929" d="M506.824,175.252l-6.735,3.4c-.286.144-.191.682.156.882l5.5,3.174,5.5,3.175c.347.2.623-.122.454-.529l-3.994-9.59C507.529,175.345,507.115,175.106,506.824,175.252Z" transform="translate(-499.921 -175.209)" fill="#5793ce"/>
        </g>
        <g id="Grupo_91519" data-name="Grupo 91519" transform="translate(0 0.528)">
          <path id="Trazado_139930" data-name="Trazado 139930" d="M506.208,192.467l-4.984-2.877a.809.809,0,0,1-.341-.822l1.195-5.657,5.9,3.407-1.194,5.657A.375.375,0,0,1,506.208,192.467Z" transform="translate(-498.949 -178.534)" fill="#d4ecff"/>
          <path id="Trazado_139931" data-name="Trazado 139931" d="M504.8,176.069l-6.736,3.4c-.286.144-.19.682.156.882l5.5,3.174,5.5,3.175c.347.2.623-.122.454-.53l-3.994-9.59C505.506,176.161,505.093,175.923,504.8,176.069Z" transform="translate(-497.898 -176.026)" fill="#d4ecff"/>
        </g>
      </g>
      <g id="Grupo_91523" data-name="Grupo 91523" transform="translate(373.612 105.998)">
        <path id="Trazado_139932" data-name="Trazado 139932" d="M456.152,166.213l1.287-.518-1-.77Z" transform="translate(-448.535 -151.729)" fill="#5793ce"/>
        <path id="Trazado_139933" data-name="Trazado 139933" d="M455.157,145.062l1.25-.507-.088.524Z" transform="translate(-448.182 -144.518)" fill="#5793ce"/>
        <path id="Trazado_139934" data-name="Trazado 139934" d="M462.08,160.538l1.3-.526-1.9-1.914Z" transform="translate(-450.422 -149.312)" fill="#5793ce"/>
        <g id="Grupo_91521" data-name="Grupo 91521" transform="translate(1.307)">
          <path id="Trazado_139935" data-name="Trazado 139935" d="M454.7,160.94l-4.985-2.878a.809.809,0,0,1-.34-.821l1.195-5.657,5.9,3.407-1.194,5.657A.376.376,0,0,1,454.7,160.94Z" transform="translate(-447.436 -147.006)" fill="#5793ce"/>
          <path id="Trazado_139936" data-name="Trazado 139936" d="M453.287,144.541l-6.735,3.4c-.286.145-.191.682.156.882l5.5,3.175,5.5,3.174c.347.2.624-.122.454-.529l-3.994-9.59C453.992,144.634,453.579,144.395,453.287,144.541Z" transform="translate(-446.384 -144.498)" fill="#5793ce"/>
        </g>
        <g id="Grupo_91522" data-name="Grupo 91522" transform="translate(0 0.528)">
          <path id="Trazado_139937" data-name="Trazado 139937" d="M452.672,161.756l-4.984-2.877a.807.807,0,0,1-.34-.822l1.194-5.657,5.9,3.407-1.194,5.657A.375.375,0,0,1,452.672,161.756Z" transform="translate(-445.413 -147.823)" fill="#d4ecff"/>
          <path id="Trazado_139938" data-name="Trazado 139938" d="M451.265,145.358l-6.736,3.4c-.286.144-.191.682.156.882l5.5,3.174,5.5,3.175c.347.2.623-.122.454-.529l-3.994-9.59C451.969,145.45,451.556,145.212,451.265,145.358Z" transform="translate(-444.361 -145.315)" fill="#d4ecff"/>
        </g>
      </g>
      <path id="Trazado_139944" data-name="Trazado 139944" d="M483.158,120.008c0,.366-.257.515-.574.331a1.27,1.27,0,0,1-.575-.995c0-.366.258-.515.575-.331A1.269,1.269,0,0,1,483.158,120.008Z" transform="translate(-84.076 -29.451)" fill="#d4ecff"/>
      <path id="Trazado_139945" data-name="Trazado 139945" d="M495.45,126.646c0,.366-.257.515-.575.332a1.271,1.271,0,0,1-.574-1c0-.366.257-.515.574-.331A1.268,1.268,0,0,1,495.45,126.646Z" transform="translate(-88.427 -31.801)" fill="#d4ecff"/>
      <path id="Trazado_139953" data-name="Trazado 139953" d="M459.736,323.843a2.583,2.583,0,0,1-1.167,2.023c-.645.372-1.168.07-1.168-.674a2.58,2.58,0,0,1,1.168-2.023C459.214,322.8,459.736,323.1,459.736,323.843Z" transform="translate(-75.365 -101.688)" fill="#b2d3ea"/>
      <g id="Grupo_91526" data-name="Grupo 91526" transform="translate(346.669 123.41)">
        <path id="Trazado_139954" data-name="Trazado 139954" d="M413.442,173.129l1.284-.742c.079-.045.068-.125-.023-.178l-1.24-.716a.341.341,0,0,0-.307-.012l-1.284.741c-.079.046-.068.125.023.178l1.24.716A.343.343,0,0,0,413.442,173.129Z" transform="translate(-405.899 -171.451)" fill="#396caa"/>
        <path id="Trazado_139955" data-name="Trazado 139955" d="M408.86,175.775l1.284-.741c.079-.046.068-.125-.022-.178l-1.24-.716a.341.341,0,0,0-.308-.013l-1.284.742c-.079.045-.069.125.022.177l1.24.716A.341.341,0,0,0,408.86,175.775Z" transform="translate(-404.277 -172.387)" fill="#396caa"/>
        <path id="Trazado_139956" data-name="Trazado 139956" d="M404.278,178.42l1.284-.742c.079-.046.068-.125-.022-.178l-1.24-.716a.343.343,0,0,0-.307-.013l-1.284.742c-.079.045-.069.125.022.178l1.24.716A.343.343,0,0,0,404.278,178.42Z" transform="translate(-402.656 -173.324)" fill="#396caa"/>
      </g>
      <g id="Grupo_91527" data-name="Grupo 91527" transform="translate(329.711 113.248)">
        <path id="Trazado_139957" data-name="Trazado 139957" d="M387.192,157.4l1.284-.741c.079-.046.068-.125-.023-.178l-1.24-.716a.343.343,0,0,0-.308-.013l-1.284.742c-.079.045-.068.125.023.178l1.24.716A.341.341,0,0,0,387.192,157.4Z" transform="translate(-379.649 -155.72)" fill="#396caa"/>
        <path id="Trazado_139958" data-name="Trazado 139958" d="M382.61,160.043l1.284-.742c.079-.045.068-.125-.022-.178l-1.24-.716a.341.341,0,0,0-.307-.012l-1.284.741c-.079.046-.069.125.022.178l1.24.716A.343.343,0,0,0,382.61,160.043Z" transform="translate(-378.027 -156.656)" fill="#396caa"/>
        <path id="Trazado_139959" data-name="Trazado 139959" d="M378.028,162.688l1.284-.741c.079-.046.069-.125-.022-.178l-1.24-.716a.339.339,0,0,0-.307-.013l-1.284.742c-.079.045-.069.125.022.177l1.24.716A.339.339,0,0,0,378.028,162.688Z" transform="translate(-376.406 -157.592)" fill="#396caa"/>
      </g>
    </g>
  </g>
</svg>
