<svg xmlns="http://www.w3.org/2000/svg" width="335" height="189.761" viewBox="0 0 335 189.761">
  <g id="_13" data-name="13" transform="translate(6916 10248)">
    <path id="Rectángulo_35337" data-name="Rectángulo 35337" d="M0,0H178A157,157,0,0,1,335,157v0a0,0,0,0,1,0,0H0a0,0,0,0,1,0,0V0A0,0,0,0,1,0,0Z" transform="translate(-6916 -10224)" fill="#f3f9ff"/>
    <g id="Grupo_91458" data-name="Grupo 91458" transform="translate(-7110.972 -10281.914)">
      <g id="Grupo_91416" data-name="Grupo 91416" transform="translate(270.861 33.914)">
        <g id="Grupo_91408" data-name="Grupo 91408" transform="translate(0)">
          <g id="Grupo_91399" data-name="Grupo 91399">
            <path id="Trazado_139525" data-name="Trazado 139525" d="M315.445,201.012l-28.651-16.337c-1.048-.605-.916-1.662.294-2.361l16.485-9.517a4.544,4.544,0,0,1,4.088-.17l28.65,16.337c1.048.6.916,1.661-.294,2.36l-16.485,9.517A4.544,4.544,0,0,1,315.445,201.012Z" transform="translate(-284.234 -97.441)" fill="#b2d3ea"/>
            <path id="Trazado_139526" data-name="Trazado 139526" d="M337.3,127.51h0V60.624l-26.591-6.96-4.9-2.828a4.875,4.875,0,0,0-4.385.182l-4.569,2.639-14.183-.008,4.2,64.569a1.271,1.271,0,0,0,.753,1.175l26.535,20.022a4.875,4.875,0,0,0,4.385-.182l17.684-10.21A1.738,1.738,0,0,0,337.3,127.51Z" transform="translate(-282.665 -41.486)" fill="#396caa"/>
            <path id="Trazado_139527" data-name="Trazado 139527" d="M303.771,50.4a5.062,5.062,0,0,0-2.351.616l-4.569,2.639-14.182-.008v67.066a1.269,1.269,0,0,0,.753,1.175l30.735,17.526a3.964,3.964,0,0,0,2.035.435l.317-67.485Z" transform="translate(-282.662 -41.489)" fill="#d4ecff"/>
            <path id="Trazado_139528" data-name="Trazado 139528" d="M341.431,157.537a5,5,0,0,0,3.506-.04V89.551h-3.506Z" transform="translate(-309.655 -59.469)" fill="#5793ce"/>
            <path id="Trazado_139529" data-name="Trazado 139529" d="M314.154,64.8,283.418,47.276c-1.124-.649-.983-1.783.315-2.532l17.684-10.21a4.875,4.875,0,0,1,4.385-.182l30.735,17.526c1.124.649.983,1.783-.315,2.532l-17.685,10.21A4.875,4.875,0,0,1,314.154,64.8Z" transform="translate(-282.66 -33.914)" fill="#d4ecff"/>
            <path id="Trazado_139530" data-name="Trazado 139530" d="M336.224,63.038l-17.685,10.21a4.875,4.875,0,0,1-4.385.182L283.419,55.9a1.7,1.7,0,0,1-.561-.5,1.178,1.178,0,0,0,.561,1.741l30.735,17.526a4.875,4.875,0,0,0,4.385-.182l17.685-10.21c1.008-.582,1.315-1.4.875-2.035A2.448,2.448,0,0,1,336.224,63.038Z" transform="translate(-282.66 -43.786)" fill="#fafdff"/>
            <g id="Grupo_91398" data-name="Grupo 91398" transform="translate(11.546 5.67)">
              <path id="Trazado_139531" data-name="Trazado 139531" d="M324.832,62.515,304.369,50.653c-.526-.3-.46-.834.147-1.185l8.276-4.778a2.281,2.281,0,0,1,2.052-.085l20.463,11.862c.526.3.46.834-.148,1.185l-8.275,4.778A2.282,2.282,0,0,1,324.832,62.515Z" transform="translate(-304.014 -44.401)" fill="#173d7a"/>
              <g id="Grupo_91397" data-name="Grupo 91397" transform="translate(8.536 5.236)">
                <path id="Trazado_139532" data-name="Trazado 139532" d="M321.036,55.634l-1.186-.685c-.073-.042-.064-.115.021-.164l1.145-.661a.315.315,0,0,1,.284-.012l1.186.684c.073.042.064.116-.02.164l-1.145.661A.316.316,0,0,1,321.036,55.634Z" transform="translate(-319.801 -54.084)" fill="#d4ecff"/>
                <path id="Trazado_139533" data-name="Trazado 139533" d="M328.363,59.847l-1.186-.685c-.073-.042-.064-.115.02-.164l1.145-.661a.315.315,0,0,1,.284-.012l1.186.685c.073.042.064.115-.021.164l-1.145.661A.316.316,0,0,1,328.363,59.847Z" transform="translate(-323.166 -56.02)" fill="#d4ecff"/>
                <path id="Trazado_139534" data-name="Trazado 139534" d="M335.689,64.06l-1.186-.685c-.072-.042-.063-.115.021-.164l1.145-.661a.316.316,0,0,1,.284-.011l1.186.685c.072.042.064.115-.021.164l-1.145.661A.319.319,0,0,1,335.689,64.06Z" transform="translate(-326.532 -57.955)" fill="#d4ecff"/>
                <path id="Trazado_139535" data-name="Trazado 139535" d="M343.016,68.273l-1.186-.685c-.073-.042-.064-.115.021-.164L343,66.763a.317.317,0,0,1,.284-.011l1.186.684c.072.042.063.115-.021.164l-1.145.661A.316.316,0,0,1,343.016,68.273Z" transform="translate(-329.897 -59.89)" fill="#d4ecff"/>
              </g>
              <path id="Trazado_139536" data-name="Trazado 139536" d="M304.369,50.653l.024.014a1.448,1.448,0,0,1,.123-.084l8.276-4.778a2.281,2.281,0,0,1,2.052-.085l20.439,11.847c.485-.347.51-.819.024-1.1L314.844,44.606a2.281,2.281,0,0,0-2.052.085l-8.276,4.778C303.909,49.82,303.843,50.35,304.369,50.653Z" transform="translate(-304.014 -44.401)" fill="#5793ce"/>
            </g>
          </g>
          <g id="Grupo_91401" data-name="Grupo 91401" transform="translate(38.147 30.014)">
            <path id="Trazado_139537" data-name="Trazado 139537" d="M354.4,103.55l11.635-6.661a2.839,2.839,0,0,0,1.185-2.265V90.463c0-.873-.53-1.274-1.185-.9L354.4,96.228a2.839,2.839,0,0,0-1.185,2.265v4.161C353.214,103.527,353.744,103.928,354.4,103.55Z" transform="translate(-353.214 -89.425)" fill="#173d7a"/>
            <path id="Trazado_139538" data-name="Trazado 139538" d="M366.862,89.456a1.162,1.162,0,0,1,.3.866v4.161a2.839,2.839,0,0,1-1.185,2.265l-11.635,6.662a.855.855,0,0,1-.576.125.706.706,0,0,0,.888.03L366.287,96.9a2.839,2.839,0,0,0,1.185-2.265V90.477C367.472,89.885,367.224,89.518,366.862,89.456Z" transform="translate(-353.467 -89.439)" fill="#fff"/>
            <g id="Grupo_91400" data-name="Grupo 91400" transform="translate(4.426 5.069)">
              <path id="Trazado_139539" data-name="Trazado 139539" d="M361.658,105.087l1.067-.616a.618.618,0,0,0,.258-.494v-1.14c0-.19-.116-.278-.258-.2l-1.067.616a.618.618,0,0,0-.258.494v1.14C361.4,105.082,361.516,105.169,361.658,105.087Z" transform="translate(-361.4 -100.551)" fill="#396caa"/>
              <path id="Trazado_139540" data-name="Trazado 139540" d="M368.259,101.276l1.067-.616a.62.62,0,0,0,.258-.494v-1.14c0-.19-.115-.278-.258-.2l-1.067.616a.62.62,0,0,0-.258.494v1.14C368,101.272,368.117,101.359,368.259,101.276Z" transform="translate(-364.432 -98.8)" fill="#fff"/>
            </g>
          </g>
          <g id="Grupo_91403" data-name="Grupo 91403" transform="translate(38.147 60.079)">
            <path id="Trazado_139541" data-name="Trazado 139541" d="M354.4,159.157l11.635-6.661a2.84,2.84,0,0,0,1.185-2.265V146.07c0-.873-.53-1.274-1.185-.9L354.4,151.835a2.839,2.839,0,0,0-1.185,2.265v4.161C353.214,159.134,353.744,159.535,354.4,159.157Z" transform="translate(-353.214 -145.032)" fill="#173d7a"/>
            <path id="Trazado_139542" data-name="Trazado 139542" d="M366.862,145.063a1.162,1.162,0,0,1,.3.866v4.161a2.84,2.84,0,0,1-1.185,2.265l-11.635,6.662a.858.858,0,0,1-.576.125.708.708,0,0,0,.888.03l11.635-6.661a2.839,2.839,0,0,0,1.185-2.265v-4.161C367.472,145.492,367.224,145.124,366.862,145.063Z" transform="translate(-353.467 -145.046)" fill="#fff"/>
            <g id="Grupo_91402" data-name="Grupo 91402" transform="translate(4.426 5.069)">
              <path id="Trazado_139543" data-name="Trazado 139543" d="M361.658,160.694l1.067-.616a.618.618,0,0,0,.258-.494v-1.14c0-.191-.116-.278-.258-.2l-1.067.616a.618.618,0,0,0-.258.494v1.14C361.4,160.689,361.516,160.776,361.658,160.694Z" transform="translate(-361.4 -156.158)" fill="#396caa"/>
              <path id="Trazado_139544" data-name="Trazado 139544" d="M368.259,156.883l1.067-.616a.618.618,0,0,0,.258-.494v-1.14c0-.19-.115-.278-.258-.2l-1.067.616a.618.618,0,0,0-.258.494v1.14C368,156.879,368.117,156.966,368.259,156.883Z" transform="translate(-364.432 -154.407)" fill="#fff"/>
            </g>
          </g>
          <g id="Grupo_91405" data-name="Grupo 91405" transform="translate(38.147 75.112)">
            <path id="Trazado_139545" data-name="Trazado 139545" d="M354.4,186.96l11.635-6.661a2.839,2.839,0,0,0,1.185-2.265v-4.161c0-.873-.53-1.274-1.185-.9L354.4,179.638a2.84,2.84,0,0,0-1.185,2.265v4.161C353.214,186.937,353.744,187.338,354.4,186.96Z" transform="translate(-353.214 -172.835)" fill="#173d7a"/>
            <path id="Trazado_139546" data-name="Trazado 139546" d="M366.862,172.866a1.162,1.162,0,0,1,.3.866v4.161a2.839,2.839,0,0,1-1.185,2.265l-11.635,6.662a.855.855,0,0,1-.576.125.706.706,0,0,0,.888.03l11.635-6.661a2.839,2.839,0,0,0,1.185-2.265v-4.161C367.472,173.295,367.224,172.928,366.862,172.866Z" transform="translate(-353.467 -172.849)" fill="#fff"/>
            <g id="Grupo_91404" data-name="Grupo 91404" transform="translate(4.426 5.069)">
              <path id="Trazado_139547" data-name="Trazado 139547" d="M361.658,188.5l1.067-.616a.618.618,0,0,0,.258-.494v-1.14c0-.19-.116-.278-.258-.2l-1.067.616a.619.619,0,0,0-.258.494v1.14C361.4,188.493,361.516,188.58,361.658,188.5Z" transform="translate(-361.4 -183.961)" fill="#396caa"/>
              <path id="Trazado_139548" data-name="Trazado 139548" d="M368.259,184.686l1.067-.616a.619.619,0,0,0,.258-.494v-1.14c0-.19-.115-.278-.258-.2l-1.067.616a.62.62,0,0,0-.258.494v1.14C368,184.682,368.117,184.769,368.259,184.686Z" transform="translate(-364.432 -182.21)" fill="#fff"/>
            </g>
          </g>
          <g id="Grupo_91407" data-name="Grupo 91407" transform="translate(38.147 45.046)">
            <path id="Trazado_139549" data-name="Trazado 139549" d="M354.4,131.354l11.635-6.662a2.838,2.838,0,0,0,1.185-2.265v-4.161c0-.873-.53-1.274-1.185-.9L354.4,124.032a2.838,2.838,0,0,0-1.185,2.265v4.16C353.214,131.33,353.744,131.732,354.4,131.354Z" transform="translate(-353.214 -117.228)" fill="#173d7a"/>
            <path id="Trazado_139550" data-name="Trazado 139550" d="M366.862,117.259a1.162,1.162,0,0,1,.3.866v4.161a2.84,2.84,0,0,1-1.185,2.265l-11.635,6.661a.852.852,0,0,1-.576.125.707.707,0,0,0,.888.031l11.635-6.662a2.839,2.839,0,0,0,1.185-2.265v-4.161C367.472,117.688,367.224,117.321,366.862,117.259Z" transform="translate(-353.467 -117.242)" fill="#fff"/>
            <g id="Grupo_91406" data-name="Grupo 91406" transform="translate(4.426 5.069)">
              <path id="Trazado_139551" data-name="Trazado 139551" d="M361.658,132.89l1.067-.616a.62.62,0,0,0,.258-.494v-1.14c0-.19-.116-.278-.258-.2l-1.067.616a.62.62,0,0,0-.258.494v1.14C361.4,132.886,361.516,132.973,361.658,132.89Z" transform="translate(-361.4 -128.354)" fill="#396caa"/>
              <path id="Trazado_139552" data-name="Trazado 139552" d="M368.259,129.08l1.067-.616a.618.618,0,0,0,.258-.494v-1.14c0-.19-.115-.277-.258-.2l-1.067.616a.618.618,0,0,0-.258.494v1.14C368,129.075,368.117,129.162,368.259,129.08Z" transform="translate(-364.432 -126.604)" fill="#fff"/>
            </g>
          </g>
        </g>
        <g id="Grupo_91409" data-name="Grupo 91409" transform="translate(1.326 16.233)">
          <path id="Trazado_139553" data-name="Trazado 139553" d="M313.042,87.584,286.2,72.087a2.6,2.6,0,0,1-1.088-2.078V64.89c0-.8.487-1.169,1.088-.822l26.842,15.5a2.606,2.606,0,0,1,1.087,2.079v5.118C314.129,87.563,313.642,87.931,313.042,87.584Z" transform="translate(-285.112 -63.937)" fill="#5793ce"/>
          <path id="Trazado_139554" data-name="Trazado 139554" d="M313.381,87.369l-25.3-14.607a1.322,1.322,0,0,1-.552-1.054V67.859c0-.407.247-.593.552-.417l25.3,14.607a1.321,1.321,0,0,1,.552,1.054v3.848C313.933,87.358,313.685,87.545,313.381,87.369Z" transform="translate(-286.222 -65.517)" fill="#d4ecff" opacity="0.4"/>
          <path id="Trazado_139555" data-name="Trazado 139555" d="M294.638,76.248l-3.776-2.18a1.284,1.284,0,0,1-.536-1.024h0c0-.394.24-.576.536-.4l3.776,2.18a1.284,1.284,0,0,1,.536,1.024h0C295.174,76.238,294.934,76.419,294.638,76.248Z" transform="translate(-287.507 -67.905)" fill="#d4ecff"/>
          <ellipse id="Elipse_4433" data-name="Elipse 4433" cx="0.505" cy="0.875" rx="0.505" ry="0.875" transform="matrix(0.866, -0.5, 0.5, 0.866, 8.854, 8.624)" fill="#173d7a"/>
          <path id="Trazado_139556" data-name="Trazado 139556" d="M307.238,82.832c0,.395-.277.555-.619.357A1.369,1.369,0,0,1,306,82.118c0-.395.277-.555.619-.357A1.369,1.369,0,0,1,307.238,82.832Z" transform="translate(-294.706 -72.085)" fill="#173d7a"/>
          <path id="Trazado_139557" data-name="Trazado 139557" d="M311.276,85.164c0,.395-.277.555-.619.357a1.369,1.369,0,0,1-.619-1.072c0-.395.277-.555.619-.357A1.368,1.368,0,0,1,311.276,85.164Z" transform="translate(-296.561 -73.156)" fill="#d4ecff"/>
          <path id="Trazado_139558" data-name="Trazado 139558" d="M315.314,87.495c0,.395-.277.555-.619.357a1.368,1.368,0,0,1-.619-1.072c0-.395.277-.555.619-.357A1.367,1.367,0,0,1,315.314,87.495Z" transform="translate(-298.416 -74.227)" fill="#173d7a"/>
          <path id="Trazado_139559" data-name="Trazado 139559" d="M332,97.81l-1.272-.735a.823.823,0,0,1-.344-.657V95.072c0-.253.154-.369.344-.26l1.272.734a.823.823,0,0,1,.344.657V97.55C332.346,97.8,332.193,97.919,332,97.81Z" transform="translate(-305.908 -78.1)" fill="#173d7a"/>
        </g>
        <g id="Grupo_91410" data-name="Grupo 91410" transform="translate(1.326 25.259)">
          <path id="Trazado_139560" data-name="Trazado 139560" d="M313.042,104.277,286.2,88.78a2.6,2.6,0,0,1-1.088-2.079V81.583c0-.8.487-1.169,1.088-.822l26.842,15.5a2.606,2.606,0,0,1,1.087,2.079v5.118C314.129,104.256,313.642,104.624,313.042,104.277Z" transform="translate(-285.112 -80.63)" fill="#5793ce"/>
          <path id="Trazado_139561" data-name="Trazado 139561" d="M313.381,104.062l-25.3-14.607a1.322,1.322,0,0,1-.552-1.054V84.552c0-.407.247-.593.552-.417l25.3,14.607a1.322,1.322,0,0,1,.552,1.054v3.848C313.933,104.051,313.685,104.238,313.381,104.062Z" transform="translate(-286.222 -82.21)" fill="#d4ecff" opacity="0.4"/>
          <path id="Trazado_139562" data-name="Trazado 139562" d="M294.638,92.942l-3.776-2.18a1.284,1.284,0,0,1-.536-1.024h0c0-.395.24-.576.536-.406l3.776,2.18a1.284,1.284,0,0,1,.536,1.024h0C295.174,92.931,294.934,93.113,294.638,92.942Z" transform="translate(-287.507 -84.598)" fill="#d4ecff"/>
          <path id="Trazado_139563" data-name="Trazado 139563" d="M303.2,97.194c0,.395-.277.555-.619.357a1.368,1.368,0,0,1-.619-1.072c0-.395.277-.555.619-.357A1.369,1.369,0,0,1,303.2,97.194Z" transform="translate(-292.852 -87.707)" fill="#fff"/>
          <path id="Trazado_139564" data-name="Trazado 139564" d="M307.238,99.526c0,.395-.277.555-.619.357A1.369,1.369,0,0,1,306,98.811c0-.394.277-.554.619-.357A1.368,1.368,0,0,1,307.238,99.526Z" transform="translate(-294.706 -88.778)" fill="#173d7a"/>
          <path id="Trazado_139565" data-name="Trazado 139565" d="M311.276,101.857c0,.395-.277.555-.619.357a1.368,1.368,0,0,1-.619-1.072c0-.395.277-.555.619-.357A1.368,1.368,0,0,1,311.276,101.857Z" transform="translate(-296.561 -89.849)" fill="#d4ecff"/>
          <ellipse id="Elipse_4434" data-name="Elipse 4434" cx="0.505" cy="0.875" rx="0.505" ry="0.875" transform="matrix(0.866, -0.5, 0.5, 0.866, 15.404, 12.406)" fill="#173d7a"/>
          <path id="Trazado_139566" data-name="Trazado 139566" d="M332,114.5l-1.272-.734a.824.824,0,0,1-.344-.657v-1.346c0-.253.154-.369.344-.26l1.272.734a.822.822,0,0,1,.344.657v1.346C332.346,114.5,332.193,114.613,332,114.5Z" transform="translate(-305.908 -94.793)" fill="#173d7a"/>
        </g>
        <g id="Grupo_91411" data-name="Grupo 91411" transform="translate(1.326 34.284)">
          <path id="Trazado_139567" data-name="Trazado 139567" d="M313.042,120.97l-26.842-15.5a2.6,2.6,0,0,1-1.088-2.078V98.277c0-.8.487-1.169,1.088-.822l26.842,15.5a2.6,2.6,0,0,1,1.087,2.078v5.118C314.129,120.949,313.642,121.318,313.042,120.97Z" transform="translate(-285.112 -97.324)" fill="#5793ce"/>
          <path id="Trazado_139568" data-name="Trazado 139568" d="M313.381,120.755l-25.3-14.607a1.321,1.321,0,0,1-.552-1.054v-3.848c0-.407.247-.593.552-.417l25.3,14.607a1.322,1.322,0,0,1,.552,1.055v3.847C313.933,120.744,313.685,120.931,313.381,120.755Z" transform="translate(-286.222 -98.903)" fill="#d4ecff" opacity="0.4"/>
          <path id="Trazado_139569" data-name="Trazado 139569" d="M294.638,109.635l-3.776-2.18a1.284,1.284,0,0,1-.536-1.024h0c0-.395.24-.576.536-.4l3.776,2.179a1.284,1.284,0,0,1,.536,1.024h0C295.174,109.624,294.934,109.806,294.638,109.635Z" transform="translate(-287.507 -101.291)" fill="#d4ecff"/>
          <path id="Trazado_139570" data-name="Trazado 139570" d="M303.2,113.888c0,.395-.277.555-.619.357a1.368,1.368,0,0,1-.619-1.072c0-.395.277-.554.619-.357A1.37,1.37,0,0,1,303.2,113.888Z" transform="translate(-292.852 -104.401)" fill="#fff"/>
          <path id="Trazado_139571" data-name="Trazado 139571" d="M307.238,116.219c0,.395-.277.555-.619.357A1.368,1.368,0,0,1,306,115.5c0-.395.277-.555.619-.357A1.368,1.368,0,0,1,307.238,116.219Z" transform="translate(-294.706 -105.472)" fill="#173d7a"/>
          <path id="Trazado_139572" data-name="Trazado 139572" d="M311.276,118.55c0,.395-.277.555-.619.357a1.368,1.368,0,0,1-.619-1.072c0-.395.277-.555.619-.357A1.369,1.369,0,0,1,311.276,118.55Z" transform="translate(-296.561 -106.542)" fill="#d4ecff"/>
          <path id="Trazado_139573" data-name="Trazado 139573" d="M315.314,120.881c0,.395-.277.555-.619.357a1.369,1.369,0,0,1-.619-1.072c0-.395.277-.555.619-.357A1.368,1.368,0,0,1,315.314,120.881Z" transform="translate(-298.416 -107.613)" fill="#173d7a"/>
          <path id="Trazado_139574" data-name="Trazado 139574" d="M332,131.2l-1.272-.734a.824.824,0,0,1-.344-.657v-1.345c0-.254.154-.37.344-.26l1.272.734a.823.823,0,0,1,.344.657v1.346C332.346,131.189,332.193,131.306,332,131.2Z" transform="translate(-305.908 -111.486)" fill="#173d7a"/>
        </g>
        <g id="Grupo_91412" data-name="Grupo 91412" transform="translate(1.326 43.31)">
          <path id="Trazado_139575" data-name="Trazado 139575" d="M313.042,137.664l-26.842-15.5a2.6,2.6,0,0,1-1.088-2.078V114.97c0-.8.487-1.169,1.088-.822l26.842,15.5a2.6,2.6,0,0,1,1.087,2.078v5.118C314.129,137.642,313.642,138.011,313.042,137.664Z" transform="translate(-285.112 -114.017)" fill="#5793ce"/>
          <path id="Trazado_139576" data-name="Trazado 139576" d="M313.381,137.448l-25.3-14.607a1.32,1.32,0,0,1-.552-1.054v-3.848c0-.406.247-.593.552-.417l25.3,14.607a1.32,1.32,0,0,1,.552,1.054v3.848C313.933,137.438,313.685,137.625,313.381,137.448Z" transform="translate(-286.222 -115.596)" fill="#d4ecff" opacity="0.4"/>
          <path id="Trazado_139577" data-name="Trazado 139577" d="M294.638,126.328l-3.776-2.18a1.284,1.284,0,0,1-.536-1.024h0c0-.395.24-.576.536-.4l3.776,2.18a1.284,1.284,0,0,1,.536,1.024h0C295.174,126.318,294.934,126.5,294.638,126.328Z" transform="translate(-287.507 -117.985)" fill="#d4ecff"/>
          <path id="Trazado_139578" data-name="Trazado 139578" d="M303.2,130.581c0,.395-.277.555-.619.357a1.368,1.368,0,0,1-.619-1.072c0-.395.277-.555.619-.357A1.368,1.368,0,0,1,303.2,130.581Z" transform="translate(-292.852 -121.094)" fill="#173d7a"/>
          <ellipse id="Elipse_4435" data-name="Elipse 4435" cx="0.505" cy="0.875" rx="0.505" ry="0.875" transform="matrix(0.866, -0.5, 0.5, 0.866, 11.038, 9.885)" fill="#173d7a"/>
          <path id="Trazado_139579" data-name="Trazado 139579" d="M311.276,135.243c0,.395-.277.555-.619.357a1.37,1.37,0,0,1-.619-1.072c0-.395.277-.555.619-.357A1.369,1.369,0,0,1,311.276,135.243Z" transform="translate(-296.561 -123.235)" fill="#d4ecff"/>
          <path id="Trazado_139580" data-name="Trazado 139580" d="M315.314,137.575c0,.395-.277.555-.619.357a1.369,1.369,0,0,1-.619-1.072c0-.395.277-.554.619-.357A1.367,1.367,0,0,1,315.314,137.575Z" transform="translate(-298.416 -124.306)" fill="#173d7a"/>
          <path id="Trazado_139581" data-name="Trazado 139581" d="M332,147.889l-1.272-.734a.824.824,0,0,1-.344-.657v-1.346c0-.254.154-.37.344-.26l1.272.734a.823.823,0,0,1,.344.657v1.346C332.346,147.882,332.193,148,332,147.889Z" transform="translate(-305.908 -128.179)" fill="#d4ecff"/>
        </g>
        <g id="Grupo_91413" data-name="Grupo 91413" transform="translate(1.326 52.336)">
          <path id="Trazado_139582" data-name="Trazado 139582" d="M313.042,154.357,286.2,138.86a2.6,2.6,0,0,1-1.088-2.078v-5.119c0-.8.487-1.169,1.088-.822l26.842,15.5a2.606,2.606,0,0,1,1.087,2.078v5.119C314.129,154.336,313.642,154.7,313.042,154.357Z" transform="translate(-285.112 -130.71)" fill="#5793ce"/>
          <path id="Trazado_139583" data-name="Trazado 139583" d="M313.381,154.142l-25.3-14.607a1.322,1.322,0,0,1-.552-1.055v-3.848c0-.406.247-.593.552-.417l25.3,14.607a1.32,1.32,0,0,1,.552,1.054v3.848C313.933,154.13,313.685,154.318,313.381,154.142Z" transform="translate(-286.222 -132.289)" fill="#d4ecff" opacity="0.4"/>
          <path id="Trazado_139584" data-name="Trazado 139584" d="M294.638,143.021l-3.776-2.18a1.284,1.284,0,0,1-.536-1.024h0c0-.395.24-.576.536-.4l3.776,2.18a1.284,1.284,0,0,1,.536,1.024h0C295.174,143.011,294.934,143.192,294.638,143.021Z" transform="translate(-287.507 -134.678)" fill="#d4ecff"/>
          <path id="Trazado_139585" data-name="Trazado 139585" d="M303.2,147.274c0,.395-.277.555-.619.357a1.367,1.367,0,0,1-.619-1.072c0-.395.277-.555.619-.357A1.368,1.368,0,0,1,303.2,147.274Z" transform="translate(-292.852 -137.787)" fill="#173d7a"/>
          <path id="Trazado_139586" data-name="Trazado 139586" d="M307.238,149.605c0,.395-.277.554-.619.357a1.368,1.368,0,0,1-.619-1.072c0-.395.277-.555.619-.357A1.369,1.369,0,0,1,307.238,149.605Z" transform="translate(-294.706 -138.858)" fill="#fff"/>
          <path id="Trazado_139587" data-name="Trazado 139587" d="M311.276,151.937c0,.395-.277.555-.619.357a1.369,1.369,0,0,1-.619-1.072c0-.395.277-.554.619-.357A1.369,1.369,0,0,1,311.276,151.937Z" transform="translate(-296.561 -139.929)" fill="#d4ecff"/>
          <path id="Trazado_139588" data-name="Trazado 139588" d="M315.314,154.268c0,.395-.277.555-.619.357a1.369,1.369,0,0,1-.619-1.072c0-.395.277-.555.619-.357A1.367,1.367,0,0,1,315.314,154.268Z" transform="translate(-298.416 -141)" fill="#fff"/>
          <path id="Trazado_139589" data-name="Trazado 139589" d="M332,164.582l-1.272-.734a.824.824,0,0,1-.344-.657v-1.346c0-.254.154-.37.344-.26l1.272.734a.823.823,0,0,1,.344.657v1.345C332.346,164.575,332.193,164.692,332,164.582Z" transform="translate(-305.908 -144.873)" fill="#d4ecff"/>
        </g>
        <g id="Grupo_91414" data-name="Grupo 91414" transform="translate(1.326 61.361)">
          <path id="Trazado_139590" data-name="Trazado 139590" d="M313.042,171.05l-26.842-15.5a2.6,2.6,0,0,1-1.088-2.078v-5.118c0-.8.487-1.169,1.088-.822l26.842,15.5a2.606,2.606,0,0,1,1.087,2.078v5.119C314.129,171.029,313.642,171.4,313.042,171.05Z" transform="translate(-285.112 -147.403)" fill="#5793ce"/>
          <path id="Trazado_139591" data-name="Trazado 139591" d="M313.381,170.835l-25.3-14.608a1.322,1.322,0,0,1-.552-1.055v-3.847c0-.407.247-.593.552-.417l25.3,14.607a1.321,1.321,0,0,1,.552,1.054v3.848C313.933,170.824,313.685,171.011,313.381,170.835Z" transform="translate(-286.222 -148.983)" fill="#d4ecff" opacity="0.4"/>
          <path id="Trazado_139592" data-name="Trazado 139592" d="M294.638,159.714l-3.776-2.18a1.284,1.284,0,0,1-.536-1.024h0c0-.394.24-.576.536-.4l3.776,2.18a1.284,1.284,0,0,1,.536,1.024h0C295.174,159.7,294.934,159.885,294.638,159.714Z" transform="translate(-287.507 -151.371)" fill="#d4ecff"/>
          <ellipse id="Elipse_4436" data-name="Elipse 4436" cx="0.505" cy="0.875" rx="0.505" ry="0.875" transform="matrix(0.866, -0.5, 0.5, 0.866, 8.854, 8.624)" fill="#173d7a"/>
          <path id="Trazado_139593" data-name="Trazado 139593" d="M307.238,166.3c0,.395-.277.555-.619.357a1.369,1.369,0,0,1-.619-1.072c0-.395.277-.555.619-.357A1.369,1.369,0,0,1,307.238,166.3Z" transform="translate(-294.706 -155.551)" fill="#173d7a"/>
          <path id="Trazado_139594" data-name="Trazado 139594" d="M311.276,168.63c0,.395-.277.555-.619.357a1.369,1.369,0,0,1-.619-1.072c0-.395.277-.554.619-.357A1.368,1.368,0,0,1,311.276,168.63Z" transform="translate(-296.561 -156.622)" fill="#d4ecff"/>
          <path id="Trazado_139595" data-name="Trazado 139595" d="M315.314,170.961c0,.395-.277.555-.619.357a1.368,1.368,0,0,1-.619-1.072c0-.395.277-.555.619-.357A1.367,1.367,0,0,1,315.314,170.961Z" transform="translate(-298.416 -157.693)" fill="#173d7a"/>
          <path id="Trazado_139596" data-name="Trazado 139596" d="M332,181.275l-1.272-.734a.823.823,0,0,1-.344-.657v-1.346c0-.253.154-.37.344-.26l1.272.734a.823.823,0,0,1,.344.657v1.346C332.346,181.268,332.193,181.385,332,181.275Z" transform="translate(-305.908 -161.566)" fill="#173d7a"/>
        </g>
        <g id="Grupo_91415" data-name="Grupo 91415" transform="translate(1.326 70.387)">
          <path id="Trazado_139597" data-name="Trazado 139597" d="M313.042,187.743l-26.842-15.5a2.6,2.6,0,0,1-1.088-2.078v-5.118c0-.8.487-1.169,1.088-.822l26.842,15.5a2.606,2.606,0,0,1,1.087,2.079v5.118C314.129,187.722,313.642,188.09,313.042,187.743Z" transform="translate(-285.112 -164.096)" fill="#5793ce"/>
          <path id="Trazado_139598" data-name="Trazado 139598" d="M313.381,187.528l-25.3-14.607a1.322,1.322,0,0,1-.552-1.054v-3.848c0-.407.247-.593.552-.417l25.3,14.607a1.321,1.321,0,0,1,.552,1.054v3.848C313.933,187.517,313.685,187.7,313.381,187.528Z" transform="translate(-286.222 -165.676)" fill="#d4ecff" opacity="0.4"/>
          <path id="Trazado_139599" data-name="Trazado 139599" d="M294.638,176.407l-3.776-2.18a1.283,1.283,0,0,1-.536-1.023h0c0-.395.24-.576.536-.406l3.776,2.18a1.284,1.284,0,0,1,.536,1.024h0C295.174,176.4,294.934,176.579,294.638,176.407Z" transform="translate(-287.507 -168.064)" fill="#d4ecff"/>
          <path id="Trazado_139600" data-name="Trazado 139600" d="M303.542,180.691c0,.746-.523,1.048-1.169.675a2.583,2.583,0,0,1-1.169-2.024c0-.746.523-1.048,1.169-.675A2.583,2.583,0,0,1,303.542,180.691Z" transform="translate(-292.503 -170.715)" fill="#fff"/>
          <path id="Trazado_139601" data-name="Trazado 139601" d="M312.84,186.458c0,.395-.277.555-.619.357a1.369,1.369,0,0,1-.619-1.072c0-.395.277-.555.619-.357A1.367,1.367,0,0,1,312.84,186.458Z" transform="translate(-297.279 -173.836)" fill="#173d7a"/>
          <path id="Trazado_139602" data-name="Trazado 139602" d="M316.878,188.789c0,.395-.277.555-.619.357a1.368,1.368,0,0,1-.619-1.072c0-.395.277-.555.619-.357A1.367,1.367,0,0,1,316.878,188.789Z" transform="translate(-299.134 -174.907)" fill="#d4ecff"/>
          <path id="Trazado_139603" data-name="Trazado 139603" d="M320.916,191.12c0,.395-.277.554-.619.357a1.368,1.368,0,0,1-.619-1.072c0-.395.277-.555.619-.357A1.368,1.368,0,0,1,320.916,191.12Z" transform="translate(-300.989 -175.978)" fill="#173d7a"/>
          <path id="Trazado_139604" data-name="Trazado 139604" d="M332,197.969l-1.272-.734a.824.824,0,0,1-.344-.657v-1.346c0-.253.154-.369.344-.26l1.272.734a.823.823,0,0,1,.344.657v1.346C332.346,197.962,332.193,198.078,332,197.969Z" transform="translate(-305.908 -178.259)" fill="#d4ecff"/>
        </g>
      </g>
      <path id="Trazado_139605" data-name="Trazado 139605" d="M306.816,217.848a.537.537,0,0,1-.267-.071l-30.514-17.341a1.183,1.183,0,0,1-.017-2.047l13.09-7.725a1.529,1.529,0,0,0,.748-1.311v-8.514a.541.541,0,1,1,1.081,0v8.514a2.616,2.616,0,0,1-1.28,2.242l-13.09,7.725a.1.1,0,0,0,0,.176l30.514,17.341a.541.541,0,0,1-.268,1.011Z" transform="translate(-8.481 -67.238)" fill="#5793ce"/>
      <g id="Grupo_91421" data-name="Grupo 91421" transform="translate(286.794 142.808)">
        <g id="Grupo_91420" data-name="Grupo 91420" transform="translate(0)">
          <g id="Grupo_91419" data-name="Grupo 91419">
            <g id="Grupo_91417" data-name="Grupo 91417">
              <rect id="Rectángulo_35338" data-name="Rectángulo 35338" width="2.899" height="6.255" transform="translate(7.171 3.179) rotate(119.831)" fill="#5793ce"/>
              <path id="Trazado_139606" data-name="Trazado 139606" d="M312.128,237.236a2.264,2.264,0,0,1,1.02-1.778c.565-.328,1.025-.065,1.026.589a2.264,2.264,0,0,1-1.02,1.778C312.589,238.153,312.13,237.89,312.128,237.236Z" transform="translate(-312.128 -235.317)" fill="#5793ce"/>
            </g>
            <g id="Grupo_91418" data-name="Grupo 91418" transform="translate(2.999 1.614)">
              <rect id="Rectángulo_35339" data-name="Rectángulo 35339" width="4.697" height="9.811" transform="matrix(-0.497, 0.867, -0.867, -0.497, 12.182, 5.122)" fill="#5793ce"/>
              <path id="Trazado_139607" data-name="Trazado 139607" d="M320.954,239.355l-1.836-1.053a3.752,3.752,0,0,0-1.443,2.515l1.837,1.053A3.75,3.75,0,0,0,320.954,239.355Z" transform="translate(-317.675 -238.302)" fill="#396caa"/>
              <path id="Trazado_139608" data-name="Trazado 139608" d="M319.237,241.657a3.671,3.671,0,0,1,1.652-2.881c.915-.532,1.66-.1,1.664.954a3.672,3.672,0,0,1-1.652,2.882C319.985,243.143,319.24,242.716,319.237,241.657Z" transform="translate(-318.392 -238.414)" fill="#5793ce"/>
            </g>
          </g>
        </g>
        <path id="Trazado_139609" data-name="Trazado 139609" d="M315.124,237.055a.293.293,0,0,1,0-.555,1.062,1.062,0,0,1,.961,0,.293.293,0,0,1,0,.555A1.062,1.062,0,0,1,315.124,237.055Z" transform="translate(-313.412 -235.807)" fill="#d4ecff"/>
      </g>
      <g id="Grupo_91426" data-name="Grupo 91426" transform="translate(280.195 146.796)">
        <g id="Grupo_91425" data-name="Grupo 91425">
          <g id="Grupo_91424" data-name="Grupo 91424">
            <g id="Grupo_91422" data-name="Grupo 91422">
              <rect id="Rectángulo_35340" data-name="Rectángulo 35340" width="2.899" height="6.255" transform="translate(7.171 3.179) rotate(119.831)" fill="#5793ce"/>
              <path id="Trazado_139610" data-name="Trazado 139610" d="M299.923,244.612a2.266,2.266,0,0,1,1.02-1.778c.565-.329,1.025-.065,1.027.589a2.265,2.265,0,0,1-1.02,1.778C300.385,245.529,299.925,245.266,299.923,244.612Z" transform="translate(-299.923 -242.692)" fill="#5793ce"/>
            </g>
            <g id="Grupo_91423" data-name="Grupo 91423" transform="translate(3 1.614)">
              <rect id="Rectángulo_35341" data-name="Rectángulo 35341" width="4.697" height="9.811" transform="matrix(-0.497, 0.868, -0.868, -0.497, 12.182, 5.122)" fill="#5793ce"/>
              <path id="Trazado_139611" data-name="Trazado 139611" d="M308.75,246.731l-1.837-1.053a3.75,3.75,0,0,0-1.442,2.515l1.837,1.053A3.751,3.751,0,0,0,308.75,246.731Z" transform="translate(-305.471 -245.678)" fill="#396caa"/>
              <path id="Trazado_139612" data-name="Trazado 139612" d="M307.033,249.033a3.669,3.669,0,0,1,1.652-2.881c.915-.533,1.66-.105,1.663.954a3.669,3.669,0,0,1-1.652,2.881C307.781,250.519,307.036,250.092,307.033,249.033Z" transform="translate(-306.188 -245.79)" fill="#5793ce"/>
            </g>
          </g>
        </g>
        <path id="Trazado_139613" data-name="Trazado 139613" d="M302.919,244.43a.293.293,0,0,1,0-.555,1.063,1.063,0,0,1,.962,0,.293.293,0,0,1,0,.555A1.063,1.063,0,0,1,302.919,244.43Z" transform="translate(-301.207 -243.182)" fill="#d4ecff"/>
      </g>
      <g id="Grupo_91442" data-name="Grupo 91442" transform="translate(376.813 72.045)">
        <path id="Trazado_139614" data-name="Trazado 139614" d="M505.091,139.556a.53.53,0,0,1-.122-.014.541.541,0,0,1-.406-.648L509.836,116a.541.541,0,1,1,1.054.243l-5.273,22.893A.54.54,0,0,1,505.091,139.556Z" transform="translate(-490.531 -109.556)" fill="#5793ce"/>
        <path id="Trazado_139615" data-name="Trazado 139615" d="M492.128,136.57a.534.534,0,0,1-.122-.014.541.541,0,0,1-.405-.648l5.273-22.893a.541.541,0,0,1,1.054.243l-5.273,22.893A.541.541,0,0,1,492.128,136.57Z" transform="translate(-484.577 -108.185)" fill="#5793ce"/>
        <path id="Trazado_139616" data-name="Trazado 139616" d="M479.164,133.585a.565.565,0,0,1-.122-.014.541.541,0,0,1-.406-.649l5.273-22.893a.541.541,0,0,1,1.054.243l-5.273,22.894A.541.541,0,0,1,479.164,133.585Z" transform="translate(-478.622 -106.813)" fill="#5793ce"/>
        <g id="Grupo_91431" data-name="Grupo 91431" transform="translate(1.713 0)">
          <g id="Grupo_91430" data-name="Grupo 91430">
            <g id="Grupo_91429" data-name="Grupo 91429">
              <g id="Grupo_91427" data-name="Grupo 91427" transform="translate(0 8.693)">
                <rect id="Rectángulo_35342" data-name="Rectángulo 35342" width="2.899" height="6.255" transform="translate(1.44 0) rotate(13.191)" fill="#5793ce"/>
                <path id="Trazado_139617" data-name="Trazado 139617" d="M484.078,132.456a2.265,2.265,0,0,1-2-.468.625.625,0,0,1,.27-1.152,2.265,2.265,0,0,1,2,.468A.625.625,0,0,1,484.078,132.456Z" transform="translate(-481.791 -125.225)" fill="#5793ce"/>
              </g>
              <g id="Grupo_91428" data-name="Grupo 91428" transform="translate(0.295)">
                <rect id="Rectángulo_35343" data-name="Rectángulo 35343" width="4.697" height="9.811" transform="matrix(0.974, 0.228, -0.228, 0.974, 2.26, 0)" fill="#5793ce"/>
                <path id="Trazado_139618" data-name="Trazado 139618" d="M483.61,122.322l-.483,2.061a3.749,3.749,0,0,0,2.822.661l.483-2.061A3.751,3.751,0,0,0,483.61,122.322Z" transform="translate(-482.699 -112.626)" fill="#396caa"/>
                <path id="Trazado_139619" data-name="Trazado 139619" d="M486.042,123.2a3.669,3.669,0,0,1-3.234-.758,1.012,1.012,0,0,1,.437-1.867,3.669,3.669,0,0,1,3.234.758A1.012,1.012,0,0,1,486.042,123.2Z" transform="translate(-482.336 -111.797)" fill="#5793ce"/>
              </g>
            </g>
          </g>
          <path id="Trazado_139620" data-name="Trazado 139620" d="M483.22,130.329a.293.293,0,0,1-.532.161,1.062,1.062,0,0,1-.278-.92c.07-.3.308-.371.532-.161A1.062,1.062,0,0,1,483.22,130.329Z" transform="translate(-482.067 -115.852)" fill="#d4ecff"/>
        </g>
        <g id="Grupo_91436" data-name="Grupo 91436" transform="translate(8.212 3.87)">
          <g id="Grupo_91435" data-name="Grupo 91435">
            <g id="Grupo_91434" data-name="Grupo 91434">
              <g id="Grupo_91432" data-name="Grupo 91432" transform="translate(0 8.693)">
                <rect id="Rectángulo_35344" data-name="Rectángulo 35344" width="2.899" height="6.255" transform="translate(1.441 0) rotate(13.191)" fill="#5793ce"/>
                <path id="Trazado_139621" data-name="Trazado 139621" d="M496.1,139.613a2.263,2.263,0,0,1-2-.468.625.625,0,0,1,.27-1.152,2.267,2.267,0,0,1,2,.468A.625.625,0,0,1,496.1,139.613Z" transform="translate(-493.811 -132.382)" fill="#5793ce"/>
              </g>
              <g id="Grupo_91433" data-name="Grupo 91433" transform="translate(0.295)">
                <rect id="Rectángulo_35345" data-name="Rectángulo 35345" width="4.697" height="9.811" transform="translate(2.26 0) rotate(13.192)" fill="#5793ce"/>
                <path id="Trazado_139622" data-name="Trazado 139622" d="M495.63,129.479l-.483,2.061a3.749,3.749,0,0,0,2.822.662l.483-2.061A3.751,3.751,0,0,0,495.63,129.479Z" transform="translate(-494.719 -119.783)" fill="#396caa"/>
                <path id="Trazado_139623" data-name="Trazado 139623" d="M498.062,130.356a3.673,3.673,0,0,1-3.234-.758,1.012,1.012,0,0,1,.437-1.868,3.671,3.671,0,0,1,3.234.758A1.012,1.012,0,0,1,498.062,130.356Z" transform="translate(-494.356 -118.955)" fill="#5793ce"/>
              </g>
            </g>
          </g>
          <path id="Trazado_139624" data-name="Trazado 139624" d="M495.24,137.487a.293.293,0,0,1-.531.161,1.063,1.063,0,0,1-.278-.921.293.293,0,0,1,.531-.161A1.063,1.063,0,0,1,495.24,137.487Z" transform="translate(-494.087 -123.01)" fill="#d4ecff"/>
        </g>
        <g id="Grupo_91441" data-name="Grupo 91441" transform="translate(14.784 7.71)">
          <g id="Grupo_91440" data-name="Grupo 91440" transform="translate(0 0)">
            <g id="Grupo_91439" data-name="Grupo 91439">
              <g id="Grupo_91437" data-name="Grupo 91437" transform="translate(0 8.693)">
                <rect id="Rectángulo_35346" data-name="Rectángulo 35346" width="2.899" height="6.255" transform="translate(1.44 0) rotate(13.191)" fill="#5793ce"/>
                <path id="Trazado_139625" data-name="Trazado 139625" d="M508.252,146.716a2.265,2.265,0,0,1-2-.468.625.625,0,0,1,.27-1.152,2.265,2.265,0,0,1,2,.468A.625.625,0,0,1,508.252,146.716Z" transform="translate(-505.965 -139.485)" fill="#5793ce"/>
              </g>
              <g id="Grupo_91438" data-name="Grupo 91438" transform="translate(0.295)">
                <rect id="Rectángulo_35347" data-name="Rectángulo 35347" width="4.697" height="9.811" transform="translate(2.26 0) rotate(13.192)" fill="#5793ce"/>
                <path id="Trazado_139626" data-name="Trazado 139626" d="M507.785,136.582l-.483,2.061a3.751,3.751,0,0,0,2.822.662l.483-2.062A3.75,3.75,0,0,0,507.785,136.582Z" transform="translate(-506.874 -126.886)" fill="#396caa"/>
                <path id="Trazado_139627" data-name="Trazado 139627" d="M510.216,137.458a3.671,3.671,0,0,1-3.234-.758,1.012,1.012,0,0,1,.438-1.867,3.669,3.669,0,0,1,3.234.758A1.012,1.012,0,0,1,510.216,137.458Z" transform="translate(-506.51 -126.057)" fill="#5793ce"/>
              </g>
            </g>
          </g>
          <path id="Trazado_139628" data-name="Trazado 139628" d="M507.395,144.589a.293.293,0,0,1-.531.161,1.06,1.06,0,0,1-.278-.92.293.293,0,0,1,.531-.161A1.063,1.063,0,0,1,507.395,144.589Z" transform="translate(-506.241 -130.112)" fill="#d4ecff"/>
        </g>
      </g>
      <g id="Grupo_91448" data-name="Grupo 91448" transform="translate(284.358 73.117)">
        <g id="Grupo_91444" data-name="Grupo 91444" transform="translate(0)">
          <path id="Trazado_139629" data-name="Trazado 139629" d="M371.617,290.559l-62.8-36.255c-1.776-1.026-1.553-2.817.5-4l42.759-24.679a7.7,7.7,0,0,1,6.931-.288l62.8,36.255c1.776,1.026,1.553,2.817-.5,4l-42.759,24.679A7.7,7.7,0,0,1,371.617,290.559Z" transform="translate(-307.622 -160.724)" fill="#b2d3ea"/>
          <path id="Trazado_139630" data-name="Trazado 139630" d="M481.712,143.065l-62.8-36.255a2.537,2.537,0,0,0-2.128-.261l0-.006-.114.043-.028.01-2.269.868,2.037,1c-.009.038-.021.073-.029.111L406.16,155.131c-.512,2.33.513,5.05,2.29,6.076l61.285,35.383-.218,2.6,2.48-.961a3.486,3.486,0,0,0,1.776-2.527L484,149.141C484.513,146.81,483.488,144.09,481.712,143.065Z" transform="translate(-352.822 -106.422)" fill="#173d7a"/>
          <path id="Trazado_139631" data-name="Trazado 139631" d="M484.786,143.065l-62.8-36.255a2.537,2.537,0,0,0-2.128-.261l0-.006-.114.043-.028.01-2.269.868,2.037,1c-.009.038-.021.073-.029.111l-6.741,30.686L443.447,163.2l43.323-17.628A4.879,4.879,0,0,0,484.786,143.065Z" transform="translate(-355.897 -106.422)" fill="#396caa"/>
          <path id="Trazado_139632" data-name="Trazado 139632" d="M537.615,181.636l4.78-2.035a5.989,5.989,0,0,0-1.937-4.787L532.892,178Z" transform="translate(-411.094 -137.836)" fill="#274f89"/>
          <path id="Trazado_139633" data-name="Trazado 139633" d="M464.013,199.684l-62.8-36.255c-1.777-1.026-2.8-3.746-2.29-6.076l10.228-46.559c.512-2.33,2.367-3.388,4.144-2.362l62.8,36.255c1.776,1.026,2.8,3.746,2.289,6.076l-10.228,46.559C467.644,199.652,465.789,200.71,464.013,199.684Z" transform="translate(-349.501 -107.165)" fill="#d4ecff"/>
          <path id="Trazado_139634" data-name="Trazado 139634" d="M464.845,199.122l-59.058-34.081a5.38,5.38,0,0,1-2.1-5.56l9.36-42.605c.468-2.132,2.166-3.1,3.791-2.161L475.9,148.8a5.382,5.382,0,0,1,2.1,5.56l-9.36,42.6C468.168,199.093,466.471,200.061,464.845,199.122Z" transform="translate(-351.694 -110.066)" fill="#fff"/>
          <path id="Trazado_139635" data-name="Trazado 139635" d="M464.845,199.122l-59.058-34.081a5.38,5.38,0,0,1-2.1-5.56l9.36-42.605c.468-2.132,2.166-3.1,3.791-2.161L475.9,148.8a5.382,5.382,0,0,1,2.1,5.56l-9.36,42.6C468.168,199.093,466.471,200.061,464.845,199.122Z" transform="translate(-351.694 -110.066)" fill="#fff"/>
          <path id="Trazado_139636" data-name="Trazado 139636" d="M423,251.73,414.42,250.6l-55.409-31.991a7.7,7.7,0,0,0-6.931.287l-39.263,22.66-5.19-.685v2.945h0a2.021,2.021,0,0,0,1.192,1.819l62.8,36.255a7.7,7.7,0,0,0,6.93-.287l42.759-24.679a2.8,2.8,0,0,0,1.7-2.331h0Z" transform="translate(-307.624 -157.632)" fill="#173d7a"/>
          <path id="Trazado_139637" data-name="Trazado 139637" d="M381.371,241.14l-3.937-2.272H334.154l-21.337,12.31-5.19-.685v2.945h0a2.021,2.021,0,0,0,1.192,1.819l62.8,36.255a6.5,6.5,0,0,0,3.577.67Z" transform="translate(-307.624 -167.257)" fill="#396caa"/>
          <path id="Trazado_139638" data-name="Trazado 139638" d="M309.93,260.673l-2.3-.3v2.945h0a2.021,2.021,0,0,0,1.192,1.819l1.107.639Z" transform="translate(-307.624 -177.133)" fill="#5793ce"/>
          <path id="Trazado_139639" data-name="Trazado 139639" d="M427.152,330.888a8.043,8.043,0,0,0,5.889-.365v-6.569h-5.889Z" transform="translate(-362.525 -206.339)" fill="#274f89"/>
          <path id="Trazado_139640" data-name="Trazado 139640" d="M371.617,274.8l-62.8-36.255c-1.776-1.026-1.553-2.817.5-4l42.759-24.679a7.7,7.7,0,0,1,6.931-.287l62.8,36.255c1.776,1.026,1.553,2.817-.5,4l-42.759,24.679A7.705,7.705,0,0,1,371.617,274.8Z" transform="translate(-307.622 -153.485)" fill="#d4ecff"/>
          <path id="Trazado_139641" data-name="Trazado 139641" d="M421.309,272.014,378.55,296.693a7.7,7.7,0,0,1-6.93.287l-62.8-36.255a2.338,2.338,0,0,1-1.1-1.208,1.9,1.9,0,0,0,1.1,2.284l62.8,36.255a7.7,7.7,0,0,0,6.93-.288l42.759-24.679c1.379-.8,1.928-1.865,1.6-2.793A3.338,3.338,0,0,1,421.309,272.014Z" transform="translate(-307.625 -176.742)" fill="#fff"/>
          <g id="Grupo_91443" data-name="Grupo 91443" transform="translate(24.912 57.632)">
            <path id="Trazado_139642" data-name="Trazado 139642" d="M356.692,237.96l-2.841-1.64c-.228-.132-.2-.362.064-.514l3.354-1.936a.989.989,0,0,1,.89-.037l2.841,1.64c.228.132.2.362-.064.514l-3.354,1.937A.991.991,0,0,1,356.692,237.96Z" transform="translate(-353.697 -222.535)" fill="#173d7a"/>
            <path id="Trazado_139643" data-name="Trazado 139643" d="M364.807,242.645,361.966,241c-.228-.131-.2-.362.064-.514l3.354-1.936a.989.989,0,0,1,.89-.037l2.841,1.64c.228.132.2.362-.064.514l-3.354,1.936A.989.989,0,0,1,364.807,242.645Z" transform="translate(-357.425 -224.688)" fill="#173d7a"/>
            <path id="Trazado_139644" data-name="Trazado 139644" d="M372.922,247.331l-2.841-1.641c-.228-.131-.2-.362.064-.514l3.353-1.936a.989.989,0,0,1,.89-.037l2.841,1.64c.228.131.2.362-.064.514l-3.354,1.936A.989.989,0,0,1,372.922,247.331Z" transform="translate(-361.152 -226.84)" fill="#173d7a"/>
            <path id="Trazado_139645" data-name="Trazado 139645" d="M384.146,243.725l-2.841-1.64c-.228-.131-.2-.362.064-.514l2.815-1.625a.987.987,0,0,1,.89-.037l2.841,1.64c.228.132.2.362-.064.514l-2.815,1.625A.989.989,0,0,1,384.146,243.725Z" transform="translate(-366.307 -225.327)" fill="#173d7a"/>
            <path id="Trazado_139646" data-name="Trazado 139646" d="M392.262,248.411l-2.841-1.64c-.228-.132-.2-.362.064-.514l2.815-1.625a.99.99,0,0,1,.891-.037l2.841,1.64c.228.131.2.362-.064.514l-2.815,1.625A.99.99,0,0,1,392.262,248.411Z" transform="translate(-370.035 -227.479)" fill="#173d7a"/>
            <path id="Trazado_139647" data-name="Trazado 139647" d="M400.377,253.1l-2.841-1.64c-.228-.132-.2-.362.064-.514l2.815-1.626a.989.989,0,0,1,.89-.037l2.841,1.64c.228.132.2.362-.064.514l-2.815,1.625A.991.991,0,0,1,400.377,253.1Z" transform="translate(-373.763 -229.63)" fill="#173d7a"/>
            <path id="Trazado_139648" data-name="Trazado 139648" d="M408.492,257.781l-2.841-1.64c-.228-.131-.2-.362.064-.514L408.53,254a.989.989,0,0,1,.89-.037l2.841,1.64c.228.132.2.362-.064.514l-2.815,1.625A.989.989,0,0,1,408.492,257.781Z" transform="translate(-377.49 -231.783)" fill="#173d7a"/>
            <path id="Trazado_139649" data-name="Trazado 139649" d="M416.607,262.466l-2.841-1.64c-.228-.132-.2-.362.064-.514l2.815-1.625a.989.989,0,0,1,.89-.037l2.841,1.64c.228.131.2.362-.064.514L417.5,262.43A.987.987,0,0,1,416.607,262.466Z" transform="translate(-381.217 -233.935)" fill="#173d7a"/>
            <path id="Trazado_139650" data-name="Trazado 139650" d="M424.722,267.152l-2.841-1.64c-.228-.132-.2-.362.064-.514l2.815-1.625a.99.99,0,0,1,.891-.037l2.841,1.64c.228.132.2.362-.064.514l-2.815,1.625A.991.991,0,0,1,424.722,267.152Z" transform="translate(-384.945 -236.087)" fill="#173d7a"/>
            <path id="Trazado_139651" data-name="Trazado 139651" d="M432.838,271.837,430,270.2c-.228-.131-.2-.362.064-.514l2.815-1.625a.989.989,0,0,1,.89-.037l2.841,1.64c.228.132.2.362-.064.514l-2.815,1.625A.989.989,0,0,1,432.838,271.837Z" transform="translate(-388.673 -238.239)" fill="#173d7a"/>
            <path id="Trazado_139652" data-name="Trazado 139652" d="M440.953,276.523l-2.841-1.64c-.228-.132-.2-.362.064-.514l2.815-1.625a.989.989,0,0,1,.89-.037l2.841,1.64c.228.131.2.362-.064.514l-2.815,1.625A.989.989,0,0,1,440.953,276.523Z" transform="translate(-392.4 -240.391)" fill="#173d7a"/>
            <path id="Trazado_139653" data-name="Trazado 139653" d="M449.068,281.208l-2.841-1.64c-.228-.132-.2-.362.064-.514l2.815-1.625a.99.99,0,0,1,.89-.037l2.841,1.64c.228.132.2.362-.064.514l-2.815,1.626A.989.989,0,0,1,449.068,281.208Z" transform="translate(-396.127 -242.543)" fill="#173d7a"/>
            <path id="Trazado_139654" data-name="Trazado 139654" d="M457.183,285.893l-2.841-1.64c-.228-.131-.2-.362.064-.514l2.815-1.625a.987.987,0,0,1,.89-.037l2.841,1.64c.228.132.2.362-.064.514l-2.815,1.625A.989.989,0,0,1,457.183,285.893Z" transform="translate(-399.855 -244.695)" fill="#173d7a"/>
            <path id="Trazado_139655" data-name="Trazado 139655" d="M396.1,241.507l-2.841-1.64c-.228-.132-.2-.362.064-.514l2.815-1.625a.99.99,0,0,1,.891-.037l2.841,1.64c.228.132.2.362-.064.514l-2.815,1.625A.99.99,0,0,1,396.1,241.507Z" transform="translate(-371.8 -224.308)" fill="#396caa"/>
            <path id="Trazado_139656" data-name="Trazado 139656" d="M387.867,236.752l-2.841-1.64c-.228-.132-.2-.362.064-.514l2.815-1.625a.989.989,0,0,1,.89-.037l2.841,1.64c.228.132.2.362-.064.514l-2.815,1.626A.991.991,0,0,1,387.867,236.752Z" transform="translate(-368.016 -222.123)" fill="#396caa"/>
            <path id="Trazado_139657" data-name="Trazado 139657" d="M376.833,230.381l-6.119-3.533c-.228-.131-.2-.362.064-.514l2.815-1.625a.99.99,0,0,1,.891-.037L380.6,228.2c.228.131.2.362-.064.514l-2.815,1.625A.989.989,0,0,1,376.833,230.381Z" transform="translate(-361.442 -218.328)" fill="#173d7a"/>
            <path id="Trazado_139658" data-name="Trazado 139658" d="M383.579,225.154l-4.966-2.867c-.228-.131-.2-.362.064-.514l2.815-1.625a.989.989,0,0,1,.89-.037l4.966,2.867c.228.132.2.362-.064.514l-2.815,1.625A.989.989,0,0,1,383.579,225.154Z" transform="translate(-365.071 -216.233)" fill="#173d7a"/>
            <path id="Trazado_139659" data-name="Trazado 139659" d="M404.219,246.192l-2.841-1.64c-.228-.131-.2-.362.064-.514l2.815-1.625a.987.987,0,0,1,.89-.037l2.841,1.64c.228.132.2.362-.064.514l-2.815,1.625A.989.989,0,0,1,404.219,246.192Z" transform="translate(-375.527 -226.46)" fill="#396caa"/>
            <path id="Trazado_139660" data-name="Trazado 139660" d="M412.334,250.878l-2.841-1.64c-.228-.132-.2-.362.064-.514l2.815-1.625a.989.989,0,0,1,.89-.037l2.841,1.64c.228.131.2.362-.064.514l-2.815,1.625A.989.989,0,0,1,412.334,250.878Z" transform="translate(-379.255 -228.612)" fill="#173d7a"/>
            <path id="Trazado_139661" data-name="Trazado 139661" d="M420.449,255.563l-2.841-1.64c-.228-.132-.2-.362.064-.514l2.815-1.626a.991.991,0,0,1,.89-.037l2.841,1.64c.228.132.2.362-.064.514l-2.815,1.625A.989.989,0,0,1,420.449,255.563Z" transform="translate(-382.982 -230.764)" fill="#173d7a"/>
            <path id="Trazado_139662" data-name="Trazado 139662" d="M428.565,260.248l-2.841-1.64c-.228-.131-.2-.362.064-.514l2.815-1.625a.988.988,0,0,1,.891-.037l2.841,1.64c.228.132.2.362-.064.514l-2.815,1.625A.99.99,0,0,1,428.565,260.248Z" transform="translate(-386.71 -232.916)" fill="#173d7a"/>
            <path id="Trazado_139663" data-name="Trazado 139663" d="M436.68,264.934l-2.841-1.64c-.228-.132-.2-.362.064-.514l2.815-1.625a.989.989,0,0,1,.89-.037l2.841,1.64c.228.131.2.362-.064.514L437.57,264.9A.989.989,0,0,1,436.68,264.934Z" transform="translate(-390.437 -235.068)" fill="#173d7a"/>
            <path id="Trazado_139664" data-name="Trazado 139664" d="M444.8,269.619l-2.841-1.64c-.228-.132-.2-.362.064-.514l2.815-1.625a.989.989,0,0,1,.89-.037l2.841,1.64c.228.132.2.362-.064.514l-2.815,1.625A.989.989,0,0,1,444.8,269.619Z" transform="translate(-394.165 -237.22)" fill="#173d7a"/>
            <path id="Trazado_139665" data-name="Trazado 139665" d="M452.91,274.3l-2.841-1.64c-.228-.131-.2-.362.064-.514l2.815-1.625a.989.989,0,0,1,.89-.037l2.841,1.64c.228.131.2.362-.064.514l-2.815,1.625A.989.989,0,0,1,452.91,274.3Z" transform="translate(-397.892 -239.372)" fill="#173d7a"/>
            <path id="Trazado_139666" data-name="Trazado 139666" d="M461.026,278.99l-2.841-1.64c-.228-.132-.2-.362.064-.514l2.815-1.625a.99.99,0,0,1,.89-.037l2.841,1.64c.228.131.2.362-.064.514l-2.815,1.625A.99.99,0,0,1,461.026,278.99Z" transform="translate(-401.62 -241.524)" fill="#173d7a"/>
            <path id="Trazado_139667" data-name="Trazado 139667" d="M469.141,283.675l-2.841-1.64c-.228-.132-.2-.362.064-.514l2.815-1.625a.989.989,0,0,1,.89-.037l2.841,1.64c.228.132.2.362-.064.514l-2.815,1.625A.989.989,0,0,1,469.141,283.675Z" transform="translate(-405.348 -243.676)" fill="#173d7a"/>
            <path id="Trazado_139668" data-name="Trazado 139668" d="M480.716,290.358l-6.2-3.579c-.228-.132-.2-.362.064-.514l2.815-1.625a.989.989,0,0,1,.89-.037l6.2,3.579c.228.131.2.362-.064.514l-2.815,1.625A.991.991,0,0,1,480.716,290.358Z" transform="translate(-409.121 -245.855)" fill="#173d7a"/>
            <path id="Trazado_139669" data-name="Trazado 139669" d="M497.336,281.71l-5.233-3.021c-.228-.131-.2-.362.064-.514l2.815-1.625a.99.99,0,0,1,.891-.037l5.232,3.021c.228.132.2.362-.064.514l-2.815,1.625A.989.989,0,0,1,497.336,281.71Z" transform="translate(-417.2 -242.14)" fill="#173d7a"/>
            <path id="Trazado_139670" data-name="Trazado 139670" d="M418.43,245.276l-2.841-1.64c-.228-.132-.2-.362.064-.514l2.815-1.625a.989.989,0,0,1,.89-.037l2.841,1.64c.228.131.2.362-.064.514l-2.815,1.625A.989.989,0,0,1,418.43,245.276Z" transform="translate(-382.055 -226.039)" fill="#173d7a"/>
            <path id="Trazado_139671" data-name="Trazado 139671" d="M410.113,240.474l-2.841-1.64c-.228-.132-.2-.362.064-.514l2.815-1.625a.989.989,0,0,1,.89-.037l2.841,1.64c.228.132.2.362-.064.514L411,240.437A.989.989,0,0,1,410.113,240.474Z" transform="translate(-378.235 -223.833)" fill="#173d7a"/>
            <path id="Trazado_139672" data-name="Trazado 139672" d="M401.8,235.672l-2.841-1.64c-.228-.132-.2-.362.064-.514l2.815-1.625a.991.991,0,0,1,.89-.037l2.841,1.64c.228.132.2.362-.064.514l-2.815,1.626A.991.991,0,0,1,401.8,235.672Z" transform="translate(-374.414 -221.627)" fill="#396caa"/>
            <path id="Trazado_139673" data-name="Trazado 139673" d="M393.479,230.87l-2.841-1.64c-.228-.132-.2-.362.064-.514l2.815-1.626a.991.991,0,0,1,.89-.037l2.841,1.64c.228.132.2.362-.064.514l-2.815,1.626A.989.989,0,0,1,393.479,230.87Z" transform="translate(-370.594 -219.422)" fill="#173d7a"/>
            <path id="Trazado_139674" data-name="Trazado 139674" d="M426.546,249.961l-2.841-1.64c-.228-.132-.2-.362.064-.514l2.815-1.626a.991.991,0,0,1,.89-.037l2.841,1.64c.228.132.2.362-.064.514l-2.815,1.626A.992.992,0,0,1,426.546,249.961Z" transform="translate(-385.783 -228.191)" fill="#173d7a"/>
            <path id="Trazado_139675" data-name="Trazado 139675" d="M434.661,254.646l-2.841-1.64c-.228-.131-.2-.362.064-.514l2.815-1.625a.989.989,0,0,1,.89-.037l2.841,1.64c.228.131.2.362-.064.514l-2.815,1.625A.989.989,0,0,1,434.661,254.646Z" transform="translate(-389.51 -230.343)" fill="#173d7a"/>
            <path id="Trazado_139676" data-name="Trazado 139676" d="M442.776,259.332l-2.841-1.64c-.228-.132-.2-.362.064-.514l2.815-1.625a.989.989,0,0,1,.89-.037l2.841,1.64c.228.131.2.362-.064.514l-2.815,1.625A.989.989,0,0,1,442.776,259.332Z" transform="translate(-393.237 -232.495)" fill="#173d7a"/>
            <path id="Trazado_139677" data-name="Trazado 139677" d="M450.891,264.017l-2.841-1.64c-.228-.132-.2-.362.064-.514l2.815-1.626a.991.991,0,0,1,.89-.037l2.841,1.64c.228.132.2.362-.064.514l-2.815,1.625A.99.99,0,0,1,450.891,264.017Z" transform="translate(-396.965 -234.647)" fill="#173d7a"/>
            <path id="Trazado_139678" data-name="Trazado 139678" d="M459.007,268.7l-2.841-1.64c-.228-.131-.2-.362.064-.514l2.815-1.625a.99.99,0,0,1,.891-.037l2.841,1.641c.228.131.2.362-.064.514l-2.815,1.625A.99.99,0,0,1,459.007,268.7Z" transform="translate(-400.692 -236.799)" fill="#173d7a"/>
            <path id="Trazado_139679" data-name="Trazado 139679" d="M467.122,273.388l-2.841-1.64c-.228-.132-.2-.362.064-.514l2.815-1.625a.989.989,0,0,1,.89-.037l2.841,1.64c.228.131.2.362-.064.514l-2.815,1.625A.989.989,0,0,1,467.122,273.388Z" transform="translate(-404.42 -238.951)" fill="#173d7a"/>
            <path id="Trazado_139680" data-name="Trazado 139680" d="M475.237,278.073l-2.841-1.64c-.228-.132-.2-.362.064-.514l2.815-1.626a.99.99,0,0,1,.89-.037l2.841,1.64c.228.132.2.362-.064.514l-2.815,1.625A.989.989,0,0,1,475.237,278.073Z" transform="translate(-408.147 -241.103)" fill="#173d7a"/>
            <path id="Trazado_139681" data-name="Trazado 139681" d="M483.352,282.758l-2.841-1.64c-.228-.131-.2-.362.064-.514l2.815-1.625a.991.991,0,0,1,.89-.037l2.841,1.64c.228.132.2.362-.064.514l-2.815,1.625A.989.989,0,0,1,483.352,282.758Z" transform="translate(-411.875 -243.255)" fill="#173d7a"/>
            <path id="Trazado_139682" data-name="Trazado 139682" d="M491.468,287.444l-2.841-1.64c-.228-.132-.2-.362.064-.514l2.815-1.625a.99.99,0,0,1,.891-.037l2.841,1.64c.228.131.2.362-.064.514l-2.815,1.625A.99.99,0,0,1,491.468,287.444Z" transform="translate(-415.603 -245.407)" fill="#173d7a"/>
            <path id="Trazado_139683" data-name="Trazado 139683" d="M414.157,233.687l-2.841-1.64c-.228-.132-.2-.362.064-.514l2.815-1.625a.989.989,0,0,1,.89-.037l2.841,1.64c.228.132.2.362-.064.514l-2.815,1.625A.989.989,0,0,1,414.157,233.687Z" transform="translate(-380.092 -220.716)" fill="#173d7a"/>
            <path id="Trazado_139684" data-name="Trazado 139684" d="M406.082,229.025l-2.841-1.64c-.228-.132-.2-.362.064-.514l2.815-1.625a.989.989,0,0,1,.89-.037l2.841,1.64c.228.131.2.362-.064.514l-2.815,1.625A.989.989,0,0,1,406.082,229.025Z" transform="translate(-376.383 -218.574)" fill="#173d7a"/>
            <path id="Trazado_139685" data-name="Trazado 139685" d="M398.007,224.363l-2.841-1.64c-.228-.132-.2-.362.064-.514l2.815-1.625a.989.989,0,0,1,.89-.037l2.841,1.64c.228.131.2.362-.064.514l-2.815,1.625A.989.989,0,0,1,398.007,224.363Z" transform="translate(-372.674 -216.433)" fill="#173d7a"/>
            <path id="Trazado_139686" data-name="Trazado 139686" d="M389.933,219.7l-2.841-1.64c-.228-.132-.2-.362.064-.514l2.815-1.625a.99.99,0,0,1,.891-.037l2.841,1.64c.228.131.2.362-.064.514l-2.815,1.625A.99.99,0,0,1,389.933,219.7Z" transform="translate(-368.965 -214.291)" fill="#173d7a"/>
            <path id="Trazado_139687" data-name="Trazado 139687" d="M398.236,215.831l-2.841-1.64c-.228-.132-.2-.362.064-.514l.93-.537a.991.991,0,0,1,.89-.037l2.841,1.64c.228.132.2.362-.064.514l-.931.537A.989.989,0,0,1,398.236,215.831Z" transform="translate(-372.779 -213.014)" fill="#173d7a"/>
            <path id="Trazado_139688" data-name="Trazado 139688" d="M408.774,221.915l-2.841-1.64c-.228-.132-.2-.362.064-.514l.931-.537a.989.989,0,0,1,.89-.037l2.841,1.64c.228.132.2.362-.064.514l-.931.537A.989.989,0,0,1,408.774,221.915Z" transform="translate(-377.62 -215.808)" fill="#173d7a"/>
            <path id="Trazado_139689" data-name="Trazado 139689" d="M416.815,226.558l-2.841-1.64c-.228-.131-.2-.362.064-.514l.931-.537a.989.989,0,0,1,.89-.037l2.841,1.64c.228.131.2.362-.064.514l-.931.537A.989.989,0,0,1,416.815,226.558Z" transform="translate(-381.313 -217.941)" fill="#173d7a"/>
            <path id="Trazado_139690" data-name="Trazado 139690" d="M424.856,231.2l-2.841-1.64c-.228-.132-.2-.362.064-.514l.931-.537a.99.99,0,0,1,.89-.037l2.841,1.64c.228.132.2.362-.064.514l-.93.537A.989.989,0,0,1,424.856,231.2Z" transform="translate(-385.006 -220.073)" fill="#173d7a"/>
            <path id="Trazado_139691" data-name="Trazado 139691" d="M432.9,235.843l-2.841-1.64c-.228-.131-.2-.362.064-.514l.931-.537a.989.989,0,0,1,.89-.037l2.841,1.64c.228.132.2.362-.064.514l-.931.537A.989.989,0,0,1,432.9,235.843Z" transform="translate(-388.7 -222.206)" fill="#173d7a"/>
            <path id="Trazado_139692" data-name="Trazado 139692" d="M477.79,261.762l-2.841-1.64c-.228-.131-.2-.362.064-.514l.931-.537a.989.989,0,0,1,.89-.037l2.841,1.64c.228.132.2.362-.064.514l-.931.537A.989.989,0,0,1,477.79,261.762Z" transform="translate(-409.32 -234.111)" fill="#173d7a"/>
            <path id="Trazado_139693" data-name="Trazado 139693" d="M485.831,266.4l-2.841-1.64c-.228-.132-.2-.362.064-.514l.931-.537a.989.989,0,0,1,.89-.037l2.841,1.64c.228.132.2.362-.064.514l-.931.537A.991.991,0,0,1,485.831,266.4Z" transform="translate(-413.014 -236.243)" fill="#173d7a"/>
            <path id="Trazado_139694" data-name="Trazado 139694" d="M493.873,271.047l-2.841-1.64c-.228-.132-.2-.362.064-.514l.931-.537a.99.99,0,0,1,.89-.037l2.841,1.64c.228.132.2.362-.064.514l-.931.537A.989.989,0,0,1,493.873,271.047Z" transform="translate(-416.707 -238.376)" fill="#173d7a"/>
            <path id="Trazado_139695" data-name="Trazado 139695" d="M501.914,275.69l-2.841-1.64c-.228-.131-.2-.362.064-.514l.931-.537a.989.989,0,0,1,.89-.037l2.841,1.64c.228.131.2.362-.064.514l-.931.537A.989.989,0,0,1,501.914,275.69Z" transform="translate(-420.401 -240.508)" fill="#173d7a"/>
            <path id="Trazado_139696" data-name="Trazado 139696" d="M422.272,238.372l-2.841-1.64c-.228-.131-.2-.362.064-.514l2.815-1.625a.989.989,0,0,1,.89-.037l2.841,1.64c.228.132.2.362-.064.514l-2.815,1.625A.989.989,0,0,1,422.272,238.372Z" transform="translate(-383.82 -222.868)" fill="#173d7a"/>
            <path id="Trazado_139697" data-name="Trazado 139697" d="M430.388,243.057l-2.841-1.64c-.228-.131-.2-.362.064-.514l2.815-1.625a.989.989,0,0,1,.89-.037l2.841,1.64c.228.131.2.362-.064.514l-2.815,1.625A.989.989,0,0,1,430.388,243.057Z" transform="translate(-387.547 -225.02)" fill="#173d7a"/>
            <path id="Trazado_139698" data-name="Trazado 139698" d="M438.5,247.743l-2.841-1.64c-.228-.132-.2-.362.064-.514l2.815-1.625a.989.989,0,0,1,.89-.037l2.841,1.64c.228.132.2.362-.064.514l-2.815,1.626A.99.99,0,0,1,438.5,247.743Z" transform="translate(-391.275 -227.172)" fill="#173d7a"/>
            <path id="Trazado_139699" data-name="Trazado 139699" d="M446.618,252.428l-2.841-1.64c-.228-.132-.2-.362.064-.514l2.815-1.626a.991.991,0,0,1,.89-.037l2.841,1.64c.228.132.2.362-.064.514l-2.815,1.625A.989.989,0,0,1,446.618,252.428Z" transform="translate(-395.002 -229.324)" fill="#173d7a"/>
            <path id="Trazado_139700" data-name="Trazado 139700" d="M454.733,257.113l-2.841-1.64c-.228-.131-.2-.362.064-.514l2.815-1.625a.989.989,0,0,1,.89-.037l2.841,1.64c.228.131.2.362-.064.514l-2.815,1.625A.989.989,0,0,1,454.733,257.113Z" transform="translate(-398.73 -231.476)" fill="#173d7a"/>
            <path id="Trazado_139701" data-name="Trazado 139701" d="M462.849,261.8l-2.841-1.64c-.228-.132-.2-.362.064-.514l2.815-1.625a.989.989,0,0,1,.89-.037l2.841,1.64c.228.132.2.362-.064.514l-2.815,1.626A.991.991,0,0,1,462.849,261.8Z" transform="translate(-402.457 -233.628)" fill="#173d7a"/>
            <path id="Trazado_139702" data-name="Trazado 139702" d="M470.964,266.484l-2.841-1.64c-.228-.132-.2-.362.064-.514L471,262.7a.989.989,0,0,1,.89-.037l2.841,1.64c.228.132.2.362-.064.514l-2.815,1.625A.989.989,0,0,1,470.964,266.484Z" transform="translate(-406.185 -235.78)" fill="#173d7a"/>
            <path id="Trazado_139703" data-name="Trazado 139703" d="M479.079,271.169l-2.841-1.64c-.228-.131-.2-.362.064-.514l2.815-1.625a.989.989,0,0,1,.89-.037l2.841,1.64c.228.131.2.362-.064.514l-2.815,1.625A.989.989,0,0,1,479.079,271.169Z" transform="translate(-409.912 -237.932)" fill="#173d7a"/>
            <path id="Trazado_139704" data-name="Trazado 139704" d="M487.194,275.855l-2.841-1.64c-.228-.132-.2-.362.064-.514l2.815-1.625a.989.989,0,0,1,.89-.037l2.841,1.64c.228.131.2.362-.064.514l-2.815,1.625A.989.989,0,0,1,487.194,275.855Z" transform="translate(-413.64 -240.084)" fill="#173d7a"/>
            <path id="Trazado_139705" data-name="Trazado 139705" d="M371.182,236.24l-8.368-4.831c-.228-.131-.2-.362.064-.514l2.815-1.625a.989.989,0,0,1,.89-.037l8.368,4.832c.228.131.2.362-.064.514l-2.815,1.625A.99.99,0,0,1,371.182,236.24Z" transform="translate(-357.814 -220.423)" fill="#173d7a"/>
            <path id="Trazado_139706" data-name="Trazado 139706" d="M470.879,293.8l-8.368-4.831c-.228-.132-.2-.362.064-.514l2.815-1.625a.99.99,0,0,1,.89-.037l8.368,4.831c.228.132.2.362-.064.514l-2.815,1.625A.989.989,0,0,1,470.879,293.8Z" transform="translate(-403.607 -246.862)" fill="#173d7a"/>
            <path id="Trazado_139707" data-name="Trazado 139707" d="M443.12,287.859l-2.841-1.64c-.228-.131-.2-.362.064-.514l3.354-1.936a.989.989,0,0,1,.89-.037l2.841,1.64c.228.132.2.362-.064.514l-3.354,1.936A.989.989,0,0,1,443.12,287.859Z" transform="translate(-393.395 -245.455)" fill="#173d7a"/>
            <path id="Trazado_139708" data-name="Trazado 139708" d="M382.741,253l-4.544-2.623c-.228-.132-.2-.362.064-.514l3.353-1.936a.992.992,0,0,1,.891-.037l4.544,2.623c.228.132.2.362-.064.514l-3.354,1.936A.989.989,0,0,1,382.741,253Z" transform="translate(-364.88 -228.992)" fill="#173d7a"/>
            <path id="Trazado_139709" data-name="Trazado 139709" d="M433.855,282.51l-4.544-2.623c-.228-.132-.2-.362.064-.514l3.353-1.936a.99.99,0,0,1,.891-.037l4.544,2.623c.228.131.2.362-.064.514l-3.353,1.936A.989.989,0,0,1,433.855,282.51Z" transform="translate(-388.358 -242.547)" fill="#173d7a"/>
            <path id="Trazado_139710" data-name="Trazado 139710" d="M394.449,259.759l-4.544-2.623c-.228-.132-.2-.362.064-.514l3.354-1.936a.989.989,0,0,1,.89-.037l4.544,2.623c.228.132.2.362-.064.514l-3.354,1.936A.989.989,0,0,1,394.449,259.759Z" transform="translate(-370.258 -232.097)" fill="#173d7a"/>
            <path id="Trazado_139711" data-name="Trazado 139711" d="M394.4,254.757l19.756,11.406a.271.271,0,0,1,0,.513l-3.42,1.974a.981.981,0,0,1-.888,0l-19.756-11.406Z" transform="translate(-370.415 -232.187)" fill="#173d7a"/>
            <path id="Trazado_139712" data-name="Trazado 139712" d="M466.409,299.874l3.165,1.827c.187.108.164.3-.052.421l-1.372.792a.809.809,0,0,1-.729.03l-3.165-1.827c-.187-.108-.163-.3.052-.421l1.372-.792A.812.812,0,0,1,466.409,299.874Z" transform="translate(-404.421 -252.877)" fill="#173d7a"/>
            <path id="Trazado_139713" data-name="Trazado 139713" d="M458.226,295.15l3.165,1.827c.187.108.163.3-.052.421l-1.372.792a.809.809,0,0,1-.729.03l-3.165-1.827c-.187-.108-.164-.3.052-.421l1.372-.792A.809.809,0,0,1,458.226,295.15Z" transform="translate(-400.662 -250.707)" fill="#173d7a"/>
            <path id="Trazado_139714" data-name="Trazado 139714" d="M450.111,290.465l3.165,1.827c.187.108.164.3-.052.421l-1.372.792a.809.809,0,0,1-.729.03l-3.165-1.827c-.187-.108-.163-.3.052-.421l1.372-.792A.809.809,0,0,1,450.111,290.465Z" transform="translate(-396.935 -248.555)" fill="#173d7a"/>
            <path id="Trazado_139715" data-name="Trazado 139715" d="M462.708,292.563l3.165,1.827c.187.108.164.3-.052.421l-1.372.792a.809.809,0,0,1-.729.03l-3.165-1.827c-.187-.108-.163-.3.052-.421l1.372-.792A.81.81,0,0,1,462.708,292.563Z" transform="translate(-402.721 -249.519)" fill="#173d7a"/>
          </g>
        </g>
        <g id="Grupo_91447" data-name="Grupo 91447" transform="translate(56.258 13.059)">
          <g id="Grupo_91445" data-name="Grupo 91445">
            <path id="Trazado_139716" data-name="Trazado 139716" d="M449.868,145.445l-4.2-2.424a1.2,1.2,0,0,1-.513-1.244h0a.584.584,0,0,1,.9-.429l4.2,2.424a1.2,1.2,0,0,1,.513,1.243h0A.584.584,0,0,1,449.868,145.445Z" transform="translate(-427.041 -135.479)" fill="#d4ecff"/>
            <path id="Trazado_139717" data-name="Trazado 139717" d="M466.674,155.148l-6.191-3.574a1.2,1.2,0,0,1-.513-1.244h0a.584.584,0,0,1,.9-.429l6.191,3.574a1.2,1.2,0,0,1,.512,1.244h0A.584.584,0,0,1,466.674,155.148Z" transform="translate(-433.845 -139.408)" fill="#d4ecff"/>
            <path id="Trazado_139718" data-name="Trazado 139718" d="M436.331,181.694l-4.2-2.424a1.2,1.2,0,0,1-.513-1.244h0a.584.584,0,0,1,.9-.429l4.2,2.424a1.2,1.2,0,0,1,.512,1.244h0A.584.584,0,0,1,436.331,181.694Z" transform="translate(-420.823 -152.129)" fill="#d4ecff"/>
            <path id="Trazado_139719" data-name="Trazado 139719" d="M451.128,190.237l-6.191-3.574a1.2,1.2,0,0,1-.512-1.244h0a.584.584,0,0,1,.9-.429l6.191,3.574a1.2,1.2,0,0,1,.513,1.244h0A.584.584,0,0,1,451.128,190.237Z" transform="translate(-426.705 -155.525)" fill="#d4ecff"/>
            <path id="Trazado_139720" data-name="Trazado 139720" d="M428.3,140.335l-2.623-1.514a1.2,1.2,0,0,1-.513-1.244h0a.584.584,0,0,1,.9-.429l2.623,1.514a1.2,1.2,0,0,1,.513,1.243h0A.585.585,0,0,1,428.3,140.335Z" transform="translate(-417.858 -133.551)" fill="#d4ecff"/>
            <path id="Trazado_139721" data-name="Trazado 139721" d="M438.67,153.667l-8.014-4.627a1.2,1.2,0,0,1-.512-1.244h0a.584.584,0,0,1,.9-.429L439.056,152a1.2,1.2,0,0,1,.513,1.244h0A.584.584,0,0,1,438.67,153.667Z" transform="translate(-420.145 -138.245)" fill="#d4ecff"/>
            <path id="Trazado_139722" data-name="Trazado 139722" d="M430.287,163.516,427.664,162a1.2,1.2,0,0,1-.512-1.244h0a.584.584,0,0,1,.9-.429l2.623,1.514a1.2,1.2,0,0,1,.512,1.244h0A.584.584,0,0,1,430.287,163.516Z" transform="translate(-418.771 -144.198)" fill="#d4ecff"/>
            <path id="Trazado_139723" data-name="Trazado 139723" d="M452.932,205.966l-7.006-4.045a1.2,1.2,0,0,1-.513-1.243h0a.585.585,0,0,1,.9-.429l7.006,4.045a1.2,1.2,0,0,1,.513,1.244h0A.584.584,0,0,1,452.932,205.966Z" transform="translate(-427.159 -162.534)" fill="#d4ecff"/>
            <path id="Trazado_139724" data-name="Trazado 139724" d="M426.356,175.934l-1.683-.972a1.2,1.2,0,0,1-.513-1.244h0a.584.584,0,0,1,.9-.429l1.683.972a1.2,1.2,0,0,1,.513,1.243h0A.585.585,0,0,1,426.356,175.934Z" transform="translate(-417.397 -150.151)" fill="#d4ecff"/>
            <path id="Trazado_139725" data-name="Trazado 139725" d="M423.771,189.13l-2.091-1.207a1.2,1.2,0,0,1-.513-1.244h0a.584.584,0,0,1,.9-.429l2.091,1.207a1.2,1.2,0,0,1,.512,1.244h0A.584.584,0,0,1,423.771,189.13Z" transform="translate(-416.023 -156.104)" fill="#d4ecff"/>
            <path id="Trazado_139726" data-name="Trazado 139726" d="M435.909,196.138l-5.512-3.182a1.2,1.2,0,0,1-.513-1.244h0a.584.584,0,0,1,.9-.429l5.513,3.182a1.2,1.2,0,0,1,.512,1.244h0A.584.584,0,0,1,435.909,196.138Z" transform="translate(-420.026 -158.416)" fill="#d4ecff"/>
            <path id="Trazado_139727" data-name="Trazado 139727" d="M424.148,196.691l-3.963-2.288a1.2,1.2,0,0,1-.513-1.244h0a.584.584,0,0,1,.9-.429l3.963,2.288a1.2,1.2,0,0,1,.513,1.244h0A.584.584,0,0,1,424.148,196.691Z" transform="translate(-415.335 -159.081)" fill="#d4ecff"/>
            <path id="Trazado_139728" data-name="Trazado 139728" d="M467.839,214.6l-2.546-1.47a1.2,1.2,0,0,1-.512-1.244h0a.584.584,0,0,1,.9-.429l2.546,1.47a1.2,1.2,0,0,1,.512,1.244h0A.584.584,0,0,1,467.839,214.6Z" transform="translate(-436.055 -167.685)" fill="#d4ecff"/>
            <path id="Trazado_139729" data-name="Trazado 139729" d="M444.609,171.785,437.6,167.74a1.2,1.2,0,0,1-.513-1.244h0a.584.584,0,0,1,.9-.429l7.006,4.045a1.2,1.2,0,0,1,.513,1.243h0A.585.585,0,0,1,444.609,171.785Z" transform="translate(-423.336 -146.834)" fill="#d4ecff"/>
            <path id="Trazado_139730" data-name="Trazado 139730" d="M441.37,162.571l-12.21-7.05a1.2,1.2,0,0,1-.512-1.243h0a.584.584,0,0,1,.9-.429l12.21,7.049a1.2,1.2,0,0,1,.513,1.244h0A.584.584,0,0,1,441.37,162.571Z" transform="translate(-419.458 -141.221)" fill="#d4ecff"/>
            <path id="Trazado_139731" data-name="Trazado 139731" d="M433.174,172.526l-7.006-4.045a1.2,1.2,0,0,1-.512-1.243h0a.584.584,0,0,1,.9-.429l7.006,4.045a1.2,1.2,0,0,1,.512,1.244h0A.584.584,0,0,1,433.174,172.526Z" transform="translate(-418.084 -147.174)" fill="#d4ecff"/>
            <path id="Trazado_139732" data-name="Trazado 139732" d="M458.226,179.647l-2.546-1.47a1.2,1.2,0,0,1-.513-1.244h0a.584.584,0,0,1,.9-.429l2.546,1.47a1.2,1.2,0,0,1,.512,1.243h0A.584.584,0,0,1,458.226,179.647Z" transform="translate(-431.64 -151.628)" fill="#d4ecff"/>
            <path id="Trazado_139733" data-name="Trazado 139733" d="M494.053,170.956l-15.073-8.7a1.2,1.2,0,0,1-.513-1.244h0a.584.584,0,0,1,.9-.429l15.073,8.7a1.2,1.2,0,0,1,.513,1.243h0A.585.585,0,0,1,494.053,170.956Z" transform="translate(-442.342 -144.314)" fill="#d4ecff"/>
            <path id="Trazado_139734" data-name="Trazado 139734" d="M431.6,186.3l-8.421-4.862a1.2,1.2,0,0,1-.513-1.243h0a.584.584,0,0,1,.9-.429l8.421,4.862a1.2,1.2,0,0,1,.513,1.244h0A.584.584,0,0,1,431.6,186.3Z" transform="translate(-416.71 -153.128)" fill="#d4ecff"/>
            <path id="Trazado_139735" data-name="Trazado 139735" d="M433.362,135.915l-6.191-3.574a1.2,1.2,0,0,1-.513-1.244h0a.584.584,0,0,1,.9-.429l6.191,3.574a1.2,1.2,0,0,1,.513,1.244h0A.584.584,0,0,1,433.362,135.915Z" transform="translate(-418.545 -130.574)" fill="#d4ecff"/>
            <path id="Trazado_139736" data-name="Trazado 139736" d="M419.383,201.285l-7.17-4.14a1.2,1.2,0,0,1-.513-1.243h0a.585.585,0,0,1,.9-.429l7.17,4.141a1.2,1.2,0,0,1,.512,1.243h0A.584.584,0,0,1,419.383,201.285Z" transform="translate(-411.674 -160.34)" fill="#d4ecff"/>
          </g>
          <g id="Grupo_91446" data-name="Grupo 91446" transform="translate(46.656 35.523)">
            <path id="Trazado_139737" data-name="Trazado 139737" d="M511.659,230.695l-4.2-2.424a1.2,1.2,0,0,1-.512-1.244h0a.584.584,0,0,1,.9-.429l4.2,2.424a1.2,1.2,0,0,1,.513,1.243h0A.585.585,0,0,1,511.659,230.695Z" transform="translate(-502.079 -210.16)" fill="#d4ecff"/>
            <path id="Trazado_139738" data-name="Trazado 139738" d="M514,202.668l-8.014-4.627a1.2,1.2,0,0,1-.513-1.244h0a.584.584,0,0,1,.9-.429L514.383,201a1.2,1.2,0,0,1,.512,1.243h0A.584.584,0,0,1,514,202.668Z" transform="translate(-501.401 -196.275)" fill="#d4ecff"/>
            <path id="Trazado_139739" data-name="Trazado 139739" d="M505.614,212.517,502.991,211a1.2,1.2,0,0,1-.513-1.244h0a.584.584,0,0,1,.9-.429L506,210.844a1.2,1.2,0,0,1,.513,1.243h0A.585.585,0,0,1,505.614,212.517Z" transform="translate(-500.027 -202.228)" fill="#d4ecff"/>
            <path id="Trazado_139740" data-name="Trazado 139740" d="M501.683,224.935,500,223.963a1.2,1.2,0,0,1-.513-1.244h0a.584.584,0,0,1,.9-.429l1.684.972a1.2,1.2,0,0,1,.512,1.244h0A.584.584,0,0,1,501.683,224.935Z" transform="translate(-498.652 -208.181)" fill="#d4ecff"/>
            <path id="Trazado_139741" data-name="Trazado 139741" d="M519.937,220.786l-7.006-4.044a1.2,1.2,0,0,1-.512-1.244h0a.584.584,0,0,1,.9-.429l7.006,4.044a1.2,1.2,0,0,1,.512,1.244h0A.584.584,0,0,1,519.937,220.786Z" transform="translate(-504.592 -204.864)" fill="#d4ecff"/>
            <path id="Trazado_139742" data-name="Trazado 139742" d="M516.7,211.571l-12.21-7.05a1.2,1.2,0,0,1-.513-1.243h0a.585.585,0,0,1,.9-.429l12.21,7.05a1.2,1.2,0,0,1,.513,1.243h0A.584.584,0,0,1,516.7,211.571Z" transform="translate(-500.714 -199.251)" fill="#d4ecff"/>
            <path id="Trazado_139743" data-name="Trazado 139743" d="M508.5,221.527l-7.006-4.045a1.2,1.2,0,0,1-.513-1.244h0a.584.584,0,0,1,.9-.429l7.006,4.045a1.2,1.2,0,0,1,.513,1.244h0A.584.584,0,0,1,508.5,221.527Z" transform="translate(-499.339 -205.205)" fill="#d4ecff"/>
            <path id="Trazado_139744" data-name="Trazado 139744" d="M506.925,235.306l-8.422-4.862a1.2,1.2,0,0,1-.512-1.244h0a.584.584,0,0,1,.9-.429l8.422,4.862a1.2,1.2,0,0,1,.512,1.243h0A.584.584,0,0,1,506.925,235.306Z" transform="translate(-497.965 -211.158)" fill="#d4ecff"/>
          </g>
        </g>
      </g>
      <g id="Grupo_91455" data-name="Grupo 91455" transform="translate(364.123 38.953)">
        <g id="Grupo_91451" data-name="Grupo 91451">
          <path id="Trazado_139745" data-name="Trazado 139745" d="M549.4,137.128l6.617-2.632-1.488-9.735-3.212,2.846Z" transform="translate(-498.44 -80.681)" fill="#5793ce"/>
          <path id="Trazado_139746" data-name="Trazado 139746" d="M467.493,58.265l15.985-6.388s-2.945,6.375-2.95,6.388-8.536,1.976-8.536,1.976Z" transform="translate(-460.82 -47.204)" fill="#5793ce"/>
          <path id="Trazado_139747" data-name="Trazado 139747" d="M525.517,80.783a7.035,7.035,0,0,0-2.59-.89c.882-5.884-1.659-12.093-6.537-14.912a10.644,10.644,0,0,0-4.571-1.436c1.911-7.132-1.041-15.236-7.058-18.712a11.082,11.082,0,0,0-9.536-.919l0-.005-.147.059c-.077.03-.154.06-.23.092l-5.009,1.97,2,1.718a10.143,10.143,0,0,0-6.288,6.282c-2.281,5.971.059,13.231,5.226,16.217l30.716,25.892c3.88,2.242,6.235,1.306,7.948-3.178S529.4,83.024,525.517,80.783Z" transform="translate(-468.713 -43.233)" fill="#5793ce"/>
          <path id="Trazado_139748" data-name="Trazado 139748" d="M488.88,51.4l17.23-6.884a11.009,11.009,0,0,0-8.955-.6l0-.005-.147.059c-.077.03-.154.06-.23.092l-5.009,1.97,2,1.718A9.56,9.56,0,0,0,488.88,51.4Z" transform="translate(-470.644 -43.233)" fill="#5793ce"/>
          <path id="Trazado_139749" data-name="Trazado 139749" d="M523.53,95.181l11.378-4.538a13.71,13.71,0,0,0-5.99-7.75,11.08,11.08,0,0,0-1.149-.578L512.1,88.575Z" transform="translate(-481.307 -61.185)" fill="#5793ce"/>
          <path id="Trazado_139750" data-name="Trazado 139750" d="M500.691,46.99l4.883,2.821,8.474-3.374a13.519,13.519,0,0,0-1.932-1.363,11.981,11.981,0,0,0-3.313-1.313Z" transform="translate(-476.069 -43.476)" fill="#d4ecff"/>
          <path id="Trazado_139751" data-name="Trazado 139751" d="M545.939,94.216l-8.19,3.26,2.416,3.394,7.027-2.794A15.776,15.776,0,0,0,545.939,94.216Z" transform="translate(-493.09 -66.651)" fill="#d4ecff"/>
          <path id="Trazado_139752" data-name="Trazado 139752" d="M506.479,84.762a7.046,7.046,0,0,0-2.59-.89c.882-5.883-1.725-12.132-6.6-14.95a10.305,10.305,0,0,0-4.5-1.4c1.911-7.131-1.041-15.236-7.058-18.712-6.471-3.739-14.033-.708-16.889,6.769q-.145.38-.269.767c-4.937-2.2-10.4.278-12.539,5.887-2.281,5.971.059,13.231,5.226,16.216L500.276,101c3.88,2.242,8.414.424,10.127-4.059S510.359,87,506.479,84.762Z" transform="translate(-455.151 -45.06)" fill="#d4ecff"/>
          <g id="Grupo_91449" data-name="Grupo 91449" transform="translate(5.899 1.7)">
            <path id="Trazado_139753" data-name="Trazado 139753" d="M524.146,83.929a7.032,7.032,0,0,0-2.59-.89c.882-5.884-1.725-12.132-6.6-14.95a10.313,10.313,0,0,0-4.505-1.4c1.912-7.132-1.041-15.236-7.058-18.712a11.017,11.017,0,0,0-11.527.053,11.03,11.03,0,0,1,10.722.4c6.017,3.477,8.969,11.581,7.058,18.712a10.305,10.305,0,0,1,4.5,1.4c4.878,2.819,7.485,9.067,6.6,14.95a7.046,7.046,0,0,1,2.59.891c3.88,2.242,5.637,7.694,3.924,12.177a8.047,8.047,0,0,1-3.05,3.916,7.815,7.815,0,0,0,3.856-4.367C529.783,91.622,528.026,86.171,524.146,83.929Z" transform="translate(-477.912 -46.378)" fill="#fff"/>
            <path id="Trazado_139754" data-name="Trazado 139754" d="M473.575,63.06c.073-.224.153-.448.235-.669a8.689,8.689,0,0,0-7.749.79A8.714,8.714,0,0,1,473.575,63.06Z" transform="translate(-466.061 -53.473)" fill="#fff"/>
          </g>
          <g id="Grupo_91450" data-name="Grupo 91450" transform="translate(2.515 4.108)">
            <path id="Trazado_139755" data-name="Trazado 139755" d="M466.289,59.178a5.128,5.128,0,0,0-2.058.416,7.466,7.466,0,0,0-3.676,4.3c-2,5.246.138,11.894,4.678,14.517l39.026,22.547a4.065,4.065,0,0,0,3.482.493,4.788,4.788,0,0,0,2.4-2.852c1.446-3.786-.1-8.584-3.377-10.477a5.07,5.07,0,0,0-1.856-.652l-1.585-.214.2-1.358c.814-5.426-1.692-11.153-5.957-13.617a8.218,8.218,0,0,0-3.59-1.141l-1.964-.127.442-1.647c1.752-6.539-1.081-14.092-6.451-17.2a8.408,8.408,0,0,0-7.406-.821,9.839,9.839,0,0,0-5.242,5.891c-.085.224-.164.449-.237.676l-1.053,3.232-3.061-1.361A6.723,6.723,0,0,0,466.289,59.178Z" transform="translate(-459.802 -50.831)" fill="#396caa"/>
          </g>
        </g>
        <g id="Grupo_91454" data-name="Grupo 91454" transform="translate(20.166 22.4)">
          <path id="Trazado_139756" data-name="Trazado 139756" d="M507.17,111.511l1.344-.541-1.046-.8Z" transform="translate(-499.211 -96.377)" fill="#5793ce"/>
          <path id="Trazado_139757" data-name="Trazado 139757" d="M505.927,85.263l1.306-.529-.092.548Z" transform="translate(-498.64 -84.695)" fill="#5793ce"/>
          <path id="Trazado_139758" data-name="Trazado 139758" d="M514.449,104.191l1.362-.549-1.987-2Z" transform="translate(-502.267 -92.461)" fill="#5793ce"/>
          <g id="Grupo_91452" data-name="Grupo 91452" transform="translate(1.365)">
            <path id="Trazado_139759" data-name="Trazado 139759" d="M504.263,103.284l-5.208-3.007a.843.843,0,0,1-.356-.859l1.248-5.91,6.165,3.559-1.248,5.911A.393.393,0,0,1,504.263,103.284Z" transform="translate(-496.678 -88.726)" fill="#5793ce"/>
            <path id="Trazado_139760" data-name="Trazado 139760" d="M502.188,84.708l-7.037,3.548c-.3.15-.2.712.163.921l5.745,3.317L506.8,95.81c.362.209.652-.128.474-.553L503.1,85.237C502.924,84.8,502.492,84.555,502.188,84.708Z" transform="translate(-494.974 -84.662)" fill="#5793ce"/>
          </g>
          <g id="Grupo_91453" data-name="Grupo 91453" transform="translate(0 0.551)">
            <path id="Trazado_139761" data-name="Trazado 139761" d="M501.738,104.3,496.53,101.3a.845.845,0,0,1-.356-.859l1.248-5.911,6.165,3.56L502.339,104A.392.392,0,0,1,501.738,104.3Z" transform="translate(-494.153 -89.745)" fill="#d4ecff"/>
            <path id="Trazado_139762" data-name="Trazado 139762" d="M499.663,85.727l-7.038,3.548c-.3.151-.2.712.163.921l5.745,3.317,5.745,3.317c.363.209.652-.128.475-.553l-4.173-10.021C500.4,85.824,499.966,85.574,499.663,85.727Z" transform="translate(-492.449 -85.682)" fill="#d4ecff"/>
          </g>
        </g>
      </g>
      <g id="Grupo_91456" data-name="Grupo 91456" transform="translate(256.972 172.455)">
        <path id="Trazado_139763" data-name="Trazado 139763" d="M261.2,319.842l20.822-11.962a7.112,7.112,0,0,1,6.4.278l42.7,24.773c1.891,1.1,2.093,2.751.451,3.695l-20.822,11.963a7.111,7.111,0,0,1-6.4-.279l-42.7-24.772C259.757,322.44,259.555,320.786,261.2,319.842Z" transform="translate(-258.402 -298.003)" fill="#b2d3ea"/>
        <path id="Trazado_139764" data-name="Trazado 139764" d="M310.146,339.1l21.322-12.25a2.469,2.469,0,0,0,1.427-2h0l.018-3.671-.685,1.181a5.123,5.123,0,0,0-1.338-1.078l-42.936-24.91c-2.433-1.412-6.117-1.572-8.229-.358L258.4,308.261a3.8,3.8,0,0,0-.6.42l-.818-1.047-.017,3.451v0c-.03.951.65,1.961,2.008,2.749l42.936,24.91C304.35,340.153,308.034,340.313,310.146,339.1Z" transform="translate(-256.972 -292.468)" fill="#396caa"/>
        <path id="Trazado_139765" data-name="Trazado 139765" d="M258.433,303.216l21.322-12.25c2.112-1.214,5.8-1.053,8.229.358l42.936,24.91c2.433,1.411,2.693,3.539.581,4.753l-21.322,12.25c-2.112,1.213-5.8,1.053-8.229-.358l-42.936-24.91C256.581,306.557,256.321,304.429,258.433,303.216Z" transform="translate(-256.987 -290.151)" fill="#d4ecff"/>
        <path id="Trazado_139766" data-name="Trazado 139766" d="M331.5,334.11l-21.322,12.25c-2.112,1.214-5.8,1.053-8.229-.358l-42.936-24.91a3.651,3.651,0,0,1-1.978-2.37c-.17,1.02.5,2.141,1.978,3l42.936,24.91c2.433,1.411,6.117,1.572,8.229.358l21.322-12.25a2.329,2.329,0,0,0,1.4-2.383A2.581,2.581,0,0,1,331.5,334.11Z" transform="translate(-256.992 -303.274)" fill="#fff"/>
        <path id="Trazado_139767" data-name="Trazado 139767" d="M261.2,304.527l20.822-11.963a7.112,7.112,0,0,1,6.4.278l42.7,24.773c1.891,1.1,2.093,2.752.451,3.7l-20.822,11.963a7.11,7.11,0,0,1-6.4-.279l-42.7-24.772C259.757,307.124,259.555,305.47,261.2,304.527Z" transform="translate(-258.402 -290.968)" fill="#fff"/>
      </g>
      <g id="Grupo_91457" data-name="Grupo 91457" transform="translate(278.368 185.114)">
        <path id="Trazado_139768" data-name="Trazado 139768" d="M317.47,318.816l-7.708-4.45c-.285-.165-.25-.453.08-.643h0a1.239,1.239,0,0,1,1.115-.047l7.707,4.45c.286.165.25.453-.08.643h0A1.238,1.238,0,0,1,317.47,318.816Z" transform="translate(-302.527 -313.564)" fill="#b2d3ea"/>
        <path id="Trazado_139769" data-name="Trazado 139769" d="M308.17,318.46l-2.75-1.587c-.285-.165-.25-.453.08-.644h0a1.241,1.241,0,0,1,1.115-.046l2.749,1.587c.286.165.25.453-.08.644h0A1.24,1.24,0,0,1,308.17,318.46Z" transform="translate(-300.532 -314.716)" fill="#b2d3ea"/>
        <path id="Trazado_139770" data-name="Trazado 139770" d="M316.7,323.387l-2.75-1.587c-.285-.165-.25-.453.081-.643h0a1.238,1.238,0,0,1,1.115-.047L317.9,322.7c.286.165.25.453-.08.644h0A1.24,1.24,0,0,1,316.7,323.387Z" transform="translate(-304.452 -316.979)" fill="#396caa"/>
        <path id="Trazado_139771" data-name="Trazado 139771" d="M329.954,331.037l-7.465-4.31c-.286-.165-.25-.453.08-.643h0a1.238,1.238,0,0,1,1.115-.047l7.466,4.31c.285.165.25.453-.08.644h0A1.241,1.241,0,0,1,329.954,331.037Z" transform="translate(-308.372 -319.242)" fill="#b2d3ea"/>
        <path id="Trazado_139772" data-name="Trazado 139772" d="M310.709,324.939l-9.631-5.56c-.285-.165-.25-.454.081-.644h0a1.24,1.24,0,0,1,1.115-.046l9.631,5.56c.285.165.25.454-.081.644h0A1.238,1.238,0,0,1,310.709,324.939Z" transform="translate(-298.538 -315.867)" fill="#b2d3ea"/>
        <path id="Trazado_139773" data-name="Trazado 139773" d="M320.3,335.489l-23.56-13.6c-.286-.165-.25-.454.08-.644h0a1.238,1.238,0,0,1,1.115-.046l23.56,13.6c.286.165.25.453-.08.643h0A1.238,1.238,0,0,1,320.3,335.489Z" transform="translate(-296.544 -317.018)" fill="#396caa"/>
        <path id="Trazado_139774" data-name="Trazado 139774" d="M341.51,332.7l-13.557-7.827c-.285-.165-.25-.453.08-.644h0a1.241,1.241,0,0,1,1.115-.046l13.556,7.827c.286.165.25.453-.08.644h0A1.24,1.24,0,0,1,341.51,332.7Z" transform="translate(-310.882 -318.388)" fill="#b2d3ea"/>
      </g>
      <path id="Trazado_139775" data-name="Trazado 139775" d="M320.489,361.846l-1.983-1.144a.855.855,0,0,1-.357-.682h0c0-.263.16-.384.357-.27l1.983,1.144a.854.854,0,0,1,.357.682h0C320.846,361.838,320.686,361.959,320.489,361.846Z" transform="translate(-28.1 -149.644)" fill="#d4ecff"/>
      <path id="Trazado_139776" data-name="Trazado 139776" d="M326.259,365.187l-1.982-1.144a.856.856,0,0,1-.357-.683h0c0-.263.16-.384.357-.27l1.982,1.144a.855.855,0,0,1,.357.682h0C326.616,365.18,326.456,365.3,326.259,365.187Z" transform="translate(-30.75 -151.179)" fill="#d4ecff"/>
    </g>
  </g>
</svg>
