<svg xmlns="http://www.w3.org/2000/svg" width="335" height="199.946" viewBox="0 0 335 199.946">
  <g id="_14" data-name="14" transform="translate(6916 9813.474)">
    <path id="Rectángulo_35348" data-name="Rectángulo 35348" d="M0,0H178A157,157,0,0,1,335,157v0a0,0,0,0,1,0,0H0a0,0,0,0,1,0,0V0A0,0,0,0,1,0,0Z" transform="translate(-6916 -9792)" fill="#f3f9ff"/>
    <g id="Grupo_91459" data-name="Grupo 91459" transform="translate(-7110.467 -9837.781)">
      <path id="Trazado_139293" data-name="Trazado 139293" d="M511.7,242.99a2.471,2.471,0,0,1-1.273-.352l-7.629-4.574.462-.77,7.629,4.574a1.571,1.571,0,0,0,1.606.009l12.417-7.263a.624.624,0,0,0-.019-1.089l-16.549-8.862.424-.792,16.549,8.863a1.521,1.521,0,0,1,.048,2.656l-12.417,7.262A2.469,2.469,0,0,1,511.7,242.99Z" transform="translate(-105.745 -87.445)" fill="#b2d3ea"/>
      <path id="Trazado_139294" data-name="Trazado 139294" d="M436.993,346.253a3.2,3.2,0,0,1-1.562-.4L404.983,328.9a1.4,1.4,0,0,1-.008-2.444l13.78-7.771a.479.479,0,0,0,0-.831l-15.331-8.8a1.376,1.376,0,0,1-.05-2.356l6.263-3.968.481.758-6.263,3.969a.479.479,0,0,0,.017.819l15.331,8.8a1.377,1.377,0,0,1-.009,2.391l-13.78,7.771a.5.5,0,0,0,0,.878l30.448,16.949a2.322,2.322,0,0,0,2.326-.043l11.577-7.118a.216.216,0,0,0,.106-.188.22.22,0,0,0-.106-.188l-8.38-5.093.466-.767,8.38,5.094a1.118,1.118,0,0,1,.005,1.908l-11.58,7.119A3.219,3.219,0,0,1,436.993,346.253Z" transform="translate(-61.902 -121.999)" fill="#b2d3ea"/>
      <g id="Grupo_91332" data-name="Grupo 91332" transform="translate(368.686 100.348)">
        <path id="Trazado_139295" data-name="Trazado 139295" d="M475.194,243.762l-14.68-8.476c-.9-.52-.788-1.429.252-2.029l14.174-8.183a3.907,3.907,0,0,1,3.515-.146l14.679,8.475c.9.52.788,1.429-.252,2.029l-14.174,8.183A3.908,3.908,0,0,1,475.194,243.762Z" transform="translate(-455.639 -188.102)" fill="#b2d3ea"/>
        <g id="Grupo_91326" data-name="Grupo 91326" transform="translate(0 20.271)">
          <path id="Trazado_139296" data-name="Trazado 139296" d="M494.679,221.287h0v-6.342l-14.222-.008-4.916-2.838a4.89,4.89,0,0,0-4.4.183l-4.587,2.648-14.235-.008v6.523a1.276,1.276,0,0,0,.756,1.179l18.382,10.613a4.891,4.891,0,0,0,4.4-.183l17.749-10.247A1.744,1.744,0,0,0,494.679,221.287Z" transform="translate(-452.313 -202.713)" fill="#396caa"/>
          <path id="Trazado_139297" data-name="Trazado 139297" d="M473.5,211.665a5.075,5.075,0,0,0-2.359.619l-4.587,2.648-14.235-.008v6.523a1.276,1.276,0,0,0,.756,1.179l18.382,10.613a3.985,3.985,0,0,0,2.043.437Z" transform="translate(-452.313 -202.716)" fill="#396caa"/>
          <path id="Trazado_139298" data-name="Trazado 139298" d="M453.93,217.467h-1.611v6.523a1.276,1.276,0,0,0,.756,1.179l.855.494Z" transform="translate(-452.313 -205.258)" fill="#5793ce"/>
          <path id="Trazado_139299" data-name="Trazado 139299" d="M486.889,244.5a5.016,5.016,0,0,0,3.519-.04v-7.406h-3.519Z" transform="translate(-467.462 -213.843)" fill="#5793ce"/>
          <path id="Trazado_139300" data-name="Trazado 139300" d="M471.454,219.76l-18.382-10.613c-1.128-.652-.987-1.789.316-2.542l17.749-10.248a4.892,4.892,0,0,1,4.4-.182l18.382,10.613c1.128.651.987,1.789-.316,2.541l-17.749,10.248A4.893,4.893,0,0,1,471.454,219.76Z" transform="translate(-452.311 -195.736)" fill="#d4ecff"/>
          <path id="Trazado_139301" data-name="Trazado 139301" d="M474.462,219.4l-15.4-8.894c-.946-.546-.827-1.5.265-2.13l14.874-8.587a4.1,4.1,0,0,1,3.688-.153l15.4,8.894c.946.546.826,1.5-.265,2.129l-14.874,8.588A4.1,4.1,0,0,1,474.462,219.4Z" transform="translate(-454.988 -197.281)" fill="#5793ce"/>
          <g id="Grupo_91325" data-name="Grupo 91325" transform="translate(34.12 16.96)">
            <path id="Trazado_139302" data-name="Trazado 139302" d="M514.528,231.363a1.641,1.641,0,0,1-.743,1.286c-.41.237-.742.045-.742-.429a1.641,1.641,0,0,1,.742-1.286C514.2,230.7,514.528,230.889,514.528,231.363Z" transform="translate(-513.043 -228.074)" fill="#d4ecff"/>
            <path id="Trazado_139303" data-name="Trazado 139303" d="M518.779,228.908a1.641,1.641,0,0,1-.743,1.286c-.41.237-.743.045-.743-.429a1.642,1.642,0,0,1,.743-1.286C518.447,228.243,518.779,228.435,518.779,228.908Z" transform="translate(-514.906 -226.999)" fill="#d4ecff"/>
            <path id="Trazado_139304" data-name="Trazado 139304" d="M523.031,226.453a1.642,1.642,0,0,1-.742,1.286c-.41.237-.743.044-.743-.429a1.641,1.641,0,0,1,.743-1.285C522.7,225.788,523.031,225.98,523.031,226.453Z" transform="translate(-516.769 -225.923)" fill="#d4ecff"/>
          </g>
        </g>
        <g id="Grupo_91328" data-name="Grupo 91328" transform="translate(0 10.136)">
          <path id="Trazado_139305" data-name="Trazado 139305" d="M494.679,203.247h0V196.9l-14.222-.008-4.916-2.838a4.892,4.892,0,0,0-4.4.183l-4.587,2.648-14.235-.008V203.4a1.276,1.276,0,0,0,.756,1.179L471.457,215.2a4.893,4.893,0,0,0,4.4-.182l17.749-10.248A1.744,1.744,0,0,0,494.679,203.247Z" transform="translate(-452.313 -184.672)" fill="#396caa"/>
          <path id="Trazado_139306" data-name="Trazado 139306" d="M473.5,193.624a5.075,5.075,0,0,0-2.359.619l-4.587,2.648-14.235-.008v6.523a1.276,1.276,0,0,0,.756,1.179L471.457,215.2a3.986,3.986,0,0,0,2.043.437Z" transform="translate(-452.313 -184.675)" fill="#396caa"/>
          <path id="Trazado_139307" data-name="Trazado 139307" d="M453.93,199.426h-1.611v6.523a1.276,1.276,0,0,0,.756,1.179l.855.494Z" transform="translate(-452.313 -187.217)" fill="#5793ce"/>
          <path id="Trazado_139308" data-name="Trazado 139308" d="M486.889,226.463a5.016,5.016,0,0,0,3.519-.04v-7.406h-3.519Z" transform="translate(-467.462 -195.802)" fill="#5793ce"/>
          <path id="Trazado_139309" data-name="Trazado 139309" d="M471.454,201.719l-18.382-10.613c-1.128-.652-.987-1.789.316-2.542l17.749-10.248a4.892,4.892,0,0,1,4.4-.182l18.382,10.613c1.128.651.987,1.789-.316,2.541l-17.749,10.248A4.893,4.893,0,0,1,471.454,201.719Z" transform="translate(-452.311 -177.695)" fill="#d4ecff"/>
          <path id="Trazado_139310" data-name="Trazado 139310" d="M474.462,201.354l-15.4-8.894c-.946-.546-.827-1.5.265-2.13l14.874-8.587a4.1,4.1,0,0,1,3.688-.153l15.4,8.894c.946.546.826,1.5-.265,2.129L478.15,201.2A4.1,4.1,0,0,1,474.462,201.354Z" transform="translate(-454.988 -179.24)" fill="#5793ce"/>
          <g id="Grupo_91327" data-name="Grupo 91327" transform="translate(34.12 16.96)">
            <path id="Trazado_139311" data-name="Trazado 139311" d="M514.528,213.322a1.641,1.641,0,0,1-.743,1.286c-.41.237-.742.045-.742-.429a1.641,1.641,0,0,1,.742-1.286C514.2,212.656,514.528,212.848,514.528,213.322Z" transform="translate(-513.043 -210.033)" fill="#d4ecff"/>
            <path id="Trazado_139312" data-name="Trazado 139312" d="M518.779,210.867a1.641,1.641,0,0,1-.743,1.286c-.41.237-.743.045-.743-.429a1.642,1.642,0,0,1,.743-1.286C518.447,210.2,518.779,210.394,518.779,210.867Z" transform="translate(-514.906 -208.958)" fill="#d4ecff"/>
            <path id="Trazado_139313" data-name="Trazado 139313" d="M523.031,208.412a1.64,1.64,0,0,1-.742,1.285c-.41.237-.743.045-.743-.428a1.641,1.641,0,0,1,.743-1.286C522.7,207.747,523.031,207.939,523.031,208.412Z" transform="translate(-516.769 -207.882)" fill="#d4ecff"/>
          </g>
        </g>
        <g id="Grupo_91331" data-name="Grupo 91331" transform="translate(0)">
          <path id="Trazado_139314" data-name="Trazado 139314" d="M494.679,185.205h0v-6.342l-14.222-.008-4.916-2.838a4.89,4.89,0,0,0-4.4.183l-4.587,2.648-14.235-.008v6.523a1.276,1.276,0,0,0,.756,1.179l18.382,10.613a4.893,4.893,0,0,0,4.4-.182l17.749-10.248A1.744,1.744,0,0,0,494.679,185.205Z" transform="translate(-452.313 -166.631)" fill="#396caa"/>
          <path id="Trazado_139315" data-name="Trazado 139315" d="M473.5,175.583a5.075,5.075,0,0,0-2.359.619l-4.587,2.648-14.235-.008v6.523a1.276,1.276,0,0,0,.756,1.179l18.382,10.613a3.985,3.985,0,0,0,2.043.437Z" transform="translate(-452.313 -166.634)" fill="#396caa"/>
          <path id="Trazado_139316" data-name="Trazado 139316" d="M453.93,181.385h-1.611v6.523a1.276,1.276,0,0,0,.756,1.179l.855.494Z" transform="translate(-452.313 -169.176)" fill="#5793ce"/>
          <path id="Trazado_139317" data-name="Trazado 139317" d="M486.889,208.422a5.016,5.016,0,0,0,3.519-.04v-7.406h-3.519Z" transform="translate(-467.462 -177.761)" fill="#5793ce"/>
          <path id="Trazado_139318" data-name="Trazado 139318" d="M471.454,183.678l-18.382-10.613c-1.128-.652-.987-1.789.316-2.541l17.749-10.248a4.89,4.89,0,0,1,4.4-.183l18.382,10.613c1.128.651.987,1.789-.316,2.541L475.856,183.5A4.893,4.893,0,0,1,471.454,183.678Z" transform="translate(-452.311 -159.654)" fill="#d4ecff"/>
          <path id="Trazado_139319" data-name="Trazado 139319" d="M493.605,181.009l-17.749,10.248a4.891,4.891,0,0,1-4.4.183l-18.382-10.613a1.7,1.7,0,0,1-.563-.5,1.182,1.182,0,0,0,.563,1.748l18.382,10.613a4.893,4.893,0,0,0,4.4-.183l17.749-10.248c1.012-.584,1.32-1.4.879-2.042A2.46,2.46,0,0,1,493.605,181.009Z" transform="translate(-452.311 -168.664)" fill="#fff"/>
          <g id="Grupo_91329" data-name="Grupo 91329" transform="translate(34.12 16.96)">
            <path id="Trazado_139320" data-name="Trazado 139320" d="M514.528,195.281a1.64,1.64,0,0,1-.743,1.286c-.41.237-.742.045-.742-.429a1.642,1.642,0,0,1,.742-1.286C514.2,194.615,514.528,194.807,514.528,195.281Z" transform="translate(-513.043 -191.992)" fill="#d4ecff"/>
            <path id="Trazado_139321" data-name="Trazado 139321" d="M518.779,192.826a1.641,1.641,0,0,1-.743,1.286c-.41.237-.743.045-.743-.429a1.642,1.642,0,0,1,.743-1.286C518.447,192.161,518.779,192.353,518.779,192.826Z" transform="translate(-514.906 -190.917)" fill="#d4ecff"/>
            <path id="Trazado_139322" data-name="Trazado 139322" d="M523.031,190.371a1.642,1.642,0,0,1-.742,1.286c-.41.237-.743.044-.743-.429a1.641,1.641,0,0,1,.743-1.286C522.7,189.706,523.031,189.9,523.031,190.371Z" transform="translate(-516.769 -189.841)" fill="#d4ecff"/>
          </g>
          <g id="Grupo_91330" data-name="Grupo 91330" transform="translate(11.272 6.202)">
            <path id="Trazado_139323" data-name="Trazado 139323" d="M481.333,181.935l-8.6-4.966c-.528-.305-.462-.838.148-1.189l8.306-4.8a2.289,2.289,0,0,1,2.06-.085l8.6,4.966c.528.305.462.837-.148,1.189l-8.306,4.8A2.287,2.287,0,0,1,481.333,181.935Z" transform="translate(-472.375 -170.693)" fill="#5793ce"/>
            <path id="Trazado_139324" data-name="Trazado 139324" d="M488.819,182.089l-1.19-.687c-.073-.042-.063-.116.021-.165l1.149-.664a.317.317,0,0,1,.285-.012l1.19.687c.073.042.064.116-.021.165l-1.149.663A.316.316,0,0,1,488.819,182.089Z" transform="translate(-479.037 -175.005)" fill="#d4ecff"/>
            <path id="Trazado_139325" data-name="Trazado 139325" d="M472.731,176.969l.025.014a1.386,1.386,0,0,1,.123-.085l8.306-4.8a2.287,2.287,0,0,1,2.06-.085l8.578,4.952c.487-.349.512-.823.024-1.1l-8.6-4.966a2.291,2.291,0,0,0-2.06.085l-8.306,4.8C472.269,176.131,472.2,176.664,472.731,176.969Z" transform="translate(-472.375 -170.693)" fill="#396caa"/>
          </g>
        </g>
      </g>
      <g id="Grupo_91352" data-name="Grupo 91352" transform="translate(320.613 71.728)">
        <g id="Grupo_91344" data-name="Grupo 91344" transform="translate(0 0)">
          <g id="Grupo_91335" data-name="Grupo 91335">
            <path id="Trazado_139326" data-name="Trazado 139326" d="M402.906,287.989,371.18,269.9c-1.161-.67-1.015-1.841.325-2.614l18.255-10.539a5.032,5.032,0,0,1,4.527-.188l31.726,18.091c1.161.67,1.015,1.84-.325,2.614L407.433,287.8A5.032,5.032,0,0,1,402.906,287.989Z" transform="translate(-368.344 -173.297)" fill="#b2d3ea"/>
            <path id="Trazado_139327" data-name="Trazado 139327" d="M427.246,211.671h0V137.6L397.8,129.9l-5.423-3.132a5.4,5.4,0,0,0-4.856.2l-5.06,2.921-15.706-.008,4.651,71.5a1.408,1.408,0,0,0,.834,1.3l29.385,22.172a5.4,5.4,0,0,0,4.856-.2l19.583-11.306A1.924,1.924,0,0,0,427.246,211.671Z" transform="translate(-366.749 -116.41)" fill="#396caa"/>
            <path id="Trazado_139328" data-name="Trazado 139328" d="M390.121,126.287a5.608,5.608,0,0,0-2.6.683l-5.06,2.921-15.706-.008v74.267a1.408,1.408,0,0,0,.834,1.3l34.035,19.407a4.4,4.4,0,0,0,2.254.481l.351-74.731Z" transform="translate(-366.746 -116.413)" fill="#d4ecff"/>
            <path id="Trazado_139329" data-name="Trazado 139329" d="M429.377,243.291a5.531,5.531,0,0,0,3.882-.044V168.005h-3.882Z" transform="translate(-394.189 -134.693)" fill="#5793ce"/>
            <path id="Trazado_139330" data-name="Trazado 139330" d="M401.619,142.916l-34.035-19.407c-1.245-.719-1.089-1.974.348-2.8L387.516,109.4a5.4,5.4,0,0,1,4.856-.2L426.407,128.6c1.245.719,1.089,1.974-.348,2.8l-19.583,11.306A5.4,5.4,0,0,1,401.619,142.916Z" transform="translate(-366.744 -108.712)" fill="#d4ecff"/>
            <path id="Trazado_139331" data-name="Trazado 139331" d="M426.059,140.068l-19.583,11.306a5.4,5.4,0,0,1-4.856.2l-34.035-19.407a1.88,1.88,0,0,1-.621-.551,1.3,1.3,0,0,0,.621,1.928l34.035,19.407a5.4,5.4,0,0,0,4.856-.2l19.583-11.306c1.116-.645,1.456-1.546.97-2.253A2.721,2.721,0,0,1,426.059,140.068Z" transform="translate(-366.744 -118.749)" fill="#fafdff"/>
            <g id="Grupo_91334" data-name="Grupo 91334" transform="translate(12.785 6.279)">
              <path id="Trazado_139332" data-name="Trazado 139332" d="M412.554,139.948l-22.66-13.135c-.583-.337-.51-.924.163-1.312l9.164-5.291a2.527,2.527,0,0,1,2.273-.094l22.66,13.136c.583.336.51.924-.163,1.312l-9.164,5.291A2.527,2.527,0,0,1,412.554,139.948Z" transform="translate(-389.501 -119.888)" fill="#173d7a"/>
              <g id="Grupo_91333" data-name="Grupo 91333" transform="translate(9.452 5.798)">
                <path id="Trazado_139333" data-name="Trazado 139333" d="M407.693,131.924l-1.313-.758c-.08-.046-.07-.128.022-.181l1.268-.732a.351.351,0,0,1,.315-.013L409.3,131c.08.046.07.128-.022.181l-1.268.732A.351.351,0,0,1,407.693,131.924Z" transform="translate(-406.325 -130.208)" fill="#d4ecff"/>
                <path id="Trazado_139334" data-name="Trazado 139334" d="M415.5,136.414l-1.313-.758c-.08-.047-.07-.128.022-.181l1.268-.732a.349.349,0,0,1,.315-.013l1.313.758c.08.047.07.128-.022.181l-1.268.732A.351.351,0,0,1,415.5,136.414Z" transform="translate(-409.747 -132.175)" fill="#d4ecff"/>
                <path id="Trazado_139335" data-name="Trazado 139335" d="M423.309,140.9,422,140.146c-.08-.047-.07-.128.023-.181l1.267-.732a.349.349,0,0,1,.315-.013l1.313.758c.081.047.071.128-.022.181l-1.268.732A.348.348,0,0,1,423.309,140.9Z" transform="translate(-413.168 -134.143)" fill="#d4ecff"/>
                <path id="Trazado_139336" data-name="Trazado 139336" d="M431.117,145.393l-1.314-.758c-.08-.046-.07-.128.023-.181l1.267-.732a.351.351,0,0,1,.315-.013l1.313.758c.081.046.071.128-.022.181l-1.268.732A.35.35,0,0,1,431.117,145.393Z" transform="translate(-416.59 -136.11)" fill="#d4ecff"/>
              </g>
              <path id="Trazado_139337" data-name="Trazado 139337" d="M389.894,126.813l.027.015a1.513,1.513,0,0,1,.136-.093l9.164-5.291a2.525,2.525,0,0,1,2.273-.094l22.633,13.12c.537-.384.565-.907.026-1.219l-22.66-13.135a2.527,2.527,0,0,0-2.273.094l-9.164,5.291C389.385,125.889,389.312,126.476,389.894,126.813Z" transform="translate(-389.501 -119.888)" fill="#5793ce"/>
            </g>
          </g>
          <g id="Grupo_91337" data-name="Grupo 91337" transform="translate(42.243 33.236)">
            <path id="Trazado_139338" data-name="Trazado 139338" d="M443.246,183.512l12.884-7.376a3.146,3.146,0,0,0,1.313-2.509V169.02c0-.966-.588-1.411-1.313-.992L443.246,175.4a3.143,3.143,0,0,0-1.313,2.508v4.607C441.933,183.487,442.521,183.932,443.246,183.512Z" transform="translate(-441.933 -167.871)" fill="#173d7a"/>
            <path id="Trazado_139339" data-name="Trazado 139339" d="M457.024,167.9a1.285,1.285,0,0,1,.33.958v4.607a3.143,3.143,0,0,1-1.313,2.508l-12.884,7.377a.948.948,0,0,1-.638.139.782.782,0,0,0,.983.034l12.884-7.376a3.145,3.145,0,0,0,1.313-2.509v-4.607C457.7,168.379,457.426,167.972,457.024,167.9Z" transform="translate(-442.19 -167.885)" fill="#fff"/>
            <g id="Grupo_91336" data-name="Grupo 91336" transform="translate(4.902 5.613)">
              <path id="Trazado_139340" data-name="Trazado 139340" d="M450.944,184.665l1.182-.683a.685.685,0,0,0,.286-.547v-1.262c0-.211-.128-.307-.286-.216l-1.182.683a.685.685,0,0,0-.286.547v1.262C450.658,184.66,450.786,184.756,450.944,184.665Z" transform="translate(-450.658 -179.641)" fill="#396caa"/>
              <path id="Trazado_139341" data-name="Trazado 139341" d="M457.978,180.6l1.182-.683a.685.685,0,0,0,.286-.547v-1.262c0-.211-.128-.307-.286-.216l-1.182.683a.685.685,0,0,0-.286.547v1.262C457.692,180.6,457.82,180.7,457.978,180.6Z" transform="translate(-453.74 -177.862)" fill="#fff"/>
            </g>
          </g>
          <g id="Grupo_91339" data-name="Grupo 91339" transform="translate(42.243 66.529)">
            <path id="Trazado_139342" data-name="Trazado 139342" d="M443.246,242.773,456.13,235.4a3.145,3.145,0,0,0,1.313-2.509V228.28c0-.966-.588-1.411-1.313-.992l-12.884,7.377a3.143,3.143,0,0,0-1.313,2.508v4.607C441.933,242.747,442.521,243.191,443.246,242.773Z" transform="translate(-441.933 -227.131)" fill="#173d7a"/>
            <path id="Trazado_139343" data-name="Trazado 139343" d="M457.024,227.164a1.285,1.285,0,0,1,.33.958v4.607a3.143,3.143,0,0,1-1.313,2.508l-12.884,7.377a.945.945,0,0,1-.638.139.783.783,0,0,0,.983.034l12.884-7.377A3.145,3.145,0,0,0,457.7,232.9v-4.607C457.7,227.639,457.426,227.232,457.024,227.164Z" transform="translate(-442.19 -227.145)" fill="#fff"/>
            <g id="Grupo_91338" data-name="Grupo 91338" transform="translate(4.902 5.613)">
              <path id="Trazado_139344" data-name="Trazado 139344" d="M450.944,243.925l1.182-.682a.687.687,0,0,0,.286-.547v-1.262c0-.211-.128-.307-.286-.216l-1.182.683a.685.685,0,0,0-.286.547v1.262C450.658,243.92,450.786,244.016,450.944,243.925Z" transform="translate(-450.658 -238.902)" fill="#396caa"/>
              <path id="Trazado_139345" data-name="Trazado 139345" d="M457.978,239.864l1.182-.683a.685.685,0,0,0,.286-.547v-1.262c0-.211-.128-.307-.286-.216l-1.182.683a.685.685,0,0,0-.286.547v1.262C457.692,239.859,457.82,239.955,457.978,239.864Z" transform="translate(-453.74 -237.122)" fill="#396caa"/>
            </g>
          </g>
          <g id="Grupo_91341" data-name="Grupo 91341" transform="translate(42.243 83.176)">
            <path id="Trazado_139346" data-name="Trazado 139346" d="M443.246,272.4l12.884-7.377a3.145,3.145,0,0,0,1.313-2.509v-4.607c0-.967-.588-1.411-1.313-.993l-12.884,7.377a3.143,3.143,0,0,0-1.313,2.509v4.607C441.933,272.377,442.521,272.822,443.246,272.4Z" transform="translate(-441.933 -256.761)" fill="#173d7a"/>
            <path id="Trazado_139347" data-name="Trazado 139347" d="M457.024,256.794a1.285,1.285,0,0,1,.33.958v4.607a3.143,3.143,0,0,1-1.313,2.508l-12.884,7.377a.945.945,0,0,1-.638.139.783.783,0,0,0,.983.034l12.884-7.377a3.145,3.145,0,0,0,1.313-2.508v-4.607C457.7,257.269,457.426,256.862,457.024,256.794Z" transform="translate(-442.19 -256.775)" fill="#fff"/>
            <g id="Grupo_91340" data-name="Grupo 91340" transform="translate(4.902 5.613)">
              <path id="Trazado_139348" data-name="Trazado 139348" d="M450.944,273.555l1.182-.682a.687.687,0,0,0,.286-.547v-1.262c0-.211-.128-.308-.286-.217l-1.182.683a.685.685,0,0,0-.286.547v1.262C450.658,273.55,450.786,273.646,450.944,273.555Z" transform="translate(-450.658 -268.532)" fill="#fff"/>
              <path id="Trazado_139349" data-name="Trazado 139349" d="M457.978,269.494l1.182-.683a.685.685,0,0,0,.286-.547V267c0-.211-.128-.307-.286-.216l-1.182.683a.685.685,0,0,0-.286.547v1.262C457.692,269.489,457.82,269.586,457.978,269.494Z" transform="translate(-453.74 -266.752)" fill="#396caa"/>
            </g>
          </g>
          <g id="Grupo_91343" data-name="Grupo 91343" transform="translate(42.243 49.883)">
            <path id="Trazado_139350" data-name="Trazado 139350" d="M443.246,213.142l12.884-7.376a3.145,3.145,0,0,0,1.313-2.509V198.65c0-.966-.588-1.411-1.313-.992l-12.884,7.377a3.143,3.143,0,0,0-1.313,2.508v4.607C441.933,213.117,442.521,213.562,443.246,213.142Z" transform="translate(-441.933 -197.501)" fill="#173d7a"/>
            <path id="Trazado_139351" data-name="Trazado 139351" d="M457.024,197.534a1.285,1.285,0,0,1,.33.958V203.1a3.143,3.143,0,0,1-1.313,2.508l-12.884,7.377a.945.945,0,0,1-.638.139.782.782,0,0,0,.983.034l12.884-7.376a3.145,3.145,0,0,0,1.313-2.509v-4.607C457.7,198.009,457.426,197.6,457.024,197.534Z" transform="translate(-442.19 -197.515)" fill="#fff"/>
            <g id="Grupo_91342" data-name="Grupo 91342" transform="translate(4.902 5.613)">
              <path id="Trazado_139352" data-name="Trazado 139352" d="M450.944,214.3l1.182-.683a.685.685,0,0,0,.286-.547V211.8c0-.211-.128-.307-.286-.216l-1.182.683a.685.685,0,0,0-.286.547v1.262C450.658,214.29,450.786,214.386,450.944,214.3Z" transform="translate(-450.658 -209.271)" fill="#fff"/>
              <path id="Trazado_139353" data-name="Trazado 139353" d="M457.978,210.234l1.182-.683a.685.685,0,0,0,.286-.547v-1.262c0-.211-.128-.307-.286-.216l-1.182.683a.685.685,0,0,0-.286.547v1.262C457.692,210.229,457.82,210.325,457.978,210.234Z" transform="translate(-453.74 -207.492)" fill="#fff"/>
            </g>
          </g>
        </g>
        <g id="Grupo_91345" data-name="Grupo 91345" transform="translate(1.468 17.976)">
          <path id="Trazado_139354" data-name="Trazado 139354" d="M400.286,166.895l-29.724-17.161a2.886,2.886,0,0,1-1.2-2.3v-5.668c0-.887.539-1.295,1.2-.911l29.724,17.161a2.884,2.884,0,0,1,1.2,2.3v5.668C401.49,166.87,400.951,167.278,400.286,166.895Z" transform="translate(-369.357 -140.709)" fill="#5793ce"/>
          <path id="Trazado_139355" data-name="Trazado 139355" d="M400.561,166.512l-28.017-16.176a1.463,1.463,0,0,1-.611-1.167v-4.261c0-.45.274-.657.611-.462l28.017,16.176a1.464,1.464,0,0,1,.611,1.167v4.261C401.172,166.5,400.9,166.707,400.561,166.512Z" transform="translate(-370.485 -142.314)" fill="#d4ecff" opacity="0.4"/>
          <path id="Trazado_139356" data-name="Trazado 139356" d="M379.688,153.982l-4.181-2.414a1.423,1.423,0,0,1-.593-1.134h0c0-.437.266-.638.593-.448l4.181,2.414a1.421,1.421,0,0,1,.594,1.134h0C380.282,153.97,380.016,154.171,379.688,153.982Z" transform="translate(-371.792 -144.742)" fill="#d4ecff"/>
          <path id="Trazado_139357" data-name="Trazado 139357" d="M388.685,158.409c0,.437-.307.615-.685.4a1.515,1.515,0,0,1-.685-1.187c0-.437.307-.614.685-.4A1.515,1.515,0,0,1,388.685,158.409Z" transform="translate(-377.226 -147.903)" fill="#173d7a"/>
          <path id="Trazado_139358" data-name="Trazado 139358" d="M392.989,160.893c0,.437-.307.614-.685.4a1.514,1.514,0,0,1-.685-1.187c0-.437.307-.615.685-.4A1.515,1.515,0,0,1,392.989,160.893Z" transform="translate(-379.111 -148.992)" fill="#173d7a"/>
          <path id="Trazado_139359" data-name="Trazado 139359" d="M397.292,163.378c0,.437-.307.615-.685.4a1.515,1.515,0,0,1-.685-1.187c0-.437.307-.614.685-.4A1.514,1.514,0,0,1,397.292,163.378Z" transform="translate(-380.997 -150.081)" fill="#d4ecff"/>
          <path id="Trazado_139360" data-name="Trazado 139360" d="M401.595,165.862c0,.437-.307.614-.685.4a1.516,1.516,0,0,1-.685-1.187c0-.437.307-.614.685-.4A1.515,1.515,0,0,1,401.595,165.862Z" transform="translate(-382.882 -151.169)" fill="#173d7a"/>
          <path id="Trazado_139361" data-name="Trazado 139361" d="M419.4,176.933l-1.408-.814a.912.912,0,0,1-.38-.728V173.9c0-.28.17-.41.38-.288l1.408.814a.911.911,0,0,1,.381.728v1.49C419.777,176.925,419.607,177.054,419.4,176.933Z" transform="translate(-390.499 -155.107)" fill="#173d7a"/>
        </g>
        <g id="Grupo_91346" data-name="Grupo 91346" transform="translate(1.468 27.971)">
          <path id="Trazado_139362" data-name="Trazado 139362" d="M400.286,184.685l-29.724-17.161a2.886,2.886,0,0,1-1.2-2.3v-5.668c0-.887.539-1.295,1.2-.911L400.286,175.8a2.885,2.885,0,0,1,1.2,2.3v5.668C401.49,184.661,400.951,185.068,400.286,184.685Z" transform="translate(-369.357 -158.499)" fill="#5793ce"/>
          <path id="Trazado_139363" data-name="Trazado 139363" d="M400.561,184.3l-28.017-16.176a1.463,1.463,0,0,1-.611-1.167V162.7c0-.45.274-.657.611-.462l28.017,16.176a1.463,1.463,0,0,1,.611,1.168v4.261C401.172,184.29,400.9,184.5,400.561,184.3Z" transform="translate(-370.485 -160.104)" fill="#d4ecff" opacity="0.4"/>
          <path id="Trazado_139364" data-name="Trazado 139364" d="M379.688,171.772l-4.181-2.414a1.421,1.421,0,0,1-.593-1.134h0c0-.437.266-.638.593-.448l4.181,2.414a1.421,1.421,0,0,1,.594,1.134h0C380.282,171.76,380.016,171.961,379.688,171.772Z" transform="translate(-371.792 -162.532)" fill="#d4ecff"/>
          <path id="Trazado_139365" data-name="Trazado 139365" d="M388.685,176.2c0,.437-.307.614-.685.4a1.515,1.515,0,0,1-.685-1.187c0-.437.307-.614.685-.4A1.515,1.515,0,0,1,388.685,176.2Z" transform="translate(-377.226 -165.693)" fill="#fff"/>
          <path id="Trazado_139366" data-name="Trazado 139366" d="M392.989,178.683c0,.437-.307.614-.685.4a1.515,1.515,0,0,1-.685-1.187c0-.437.307-.614.685-.4A1.515,1.515,0,0,1,392.989,178.683Z" transform="translate(-379.111 -166.782)" fill="#173d7a"/>
          <path id="Trazado_139367" data-name="Trazado 139367" d="M397.292,181.168c0,.437-.307.615-.685.4a1.515,1.515,0,0,1-.685-1.187c0-.437.307-.614.685-.4A1.514,1.514,0,0,1,397.292,181.168Z" transform="translate(-380.997 -167.871)" fill="#d4ecff"/>
          <path id="Trazado_139368" data-name="Trazado 139368" d="M401.595,183.652c0,.437-.307.614-.685.4a1.516,1.516,0,0,1-.685-1.187c0-.437.307-.614.685-.4A1.515,1.515,0,0,1,401.595,183.652Z" transform="translate(-382.882 -168.959)" fill="#173d7a"/>
          <path id="Trazado_139369" data-name="Trazado 139369" d="M419.4,194.723l-1.408-.814a.912.912,0,0,1-.38-.728v-1.49c0-.281.17-.41.38-.288l1.408.814a.911.911,0,0,1,.381.728v1.49C419.777,194.715,419.607,194.844,419.4,194.723Z" transform="translate(-390.499 -172.897)" fill="#173d7a"/>
        </g>
        <g id="Grupo_91347" data-name="Grupo 91347" transform="translate(1.468 37.965)">
          <path id="Trazado_139370" data-name="Trazado 139370" d="M400.286,202.474l-29.724-17.161a2.885,2.885,0,0,1-1.2-2.3v-5.668c0-.887.539-1.295,1.2-.911l29.724,17.161a2.885,2.885,0,0,1,1.2,2.3v5.668C401.49,202.45,400.951,202.858,400.286,202.474Z" transform="translate(-369.357 -176.289)" fill="#5793ce"/>
          <path id="Trazado_139371" data-name="Trazado 139371" d="M400.561,202.092l-28.017-16.176a1.463,1.463,0,0,1-.611-1.167v-4.261c0-.45.274-.657.611-.462L400.561,196.2a1.463,1.463,0,0,1,.611,1.167v4.261C401.172,202.08,400.9,202.287,400.561,202.092Z" transform="translate(-370.485 -177.894)" fill="#d4ecff" opacity="0.4"/>
          <path id="Trazado_139372" data-name="Trazado 139372" d="M379.688,189.562l-4.181-2.414a1.421,1.421,0,0,1-.593-1.134h0c0-.437.266-.638.593-.448l4.181,2.414a1.421,1.421,0,0,1,.594,1.134h0C380.282,189.55,380.016,189.751,379.688,189.562Z" transform="translate(-371.792 -180.322)" fill="#d4ecff"/>
          <path id="Trazado_139373" data-name="Trazado 139373" d="M388.685,193.989c0,.437-.307.615-.685.4a1.515,1.515,0,0,1-.685-1.187c0-.437.307-.614.685-.4A1.515,1.515,0,0,1,388.685,193.989Z" transform="translate(-377.226 -183.483)" fill="#fff"/>
          <path id="Trazado_139374" data-name="Trazado 139374" d="M392.989,196.473c0,.437-.307.614-.685.4a1.515,1.515,0,0,1-.685-1.187c0-.437.307-.614.685-.4A1.515,1.515,0,0,1,392.989,196.473Z" transform="translate(-379.111 -184.572)" fill="#173d7a"/>
          <path id="Trazado_139375" data-name="Trazado 139375" d="M397.292,198.958c0,.437-.307.615-.685.4a1.513,1.513,0,0,1-.685-1.187c0-.437.307-.614.685-.4A1.514,1.514,0,0,1,397.292,198.958Z" transform="translate(-380.997 -185.661)" fill="#d4ecff"/>
          <path id="Trazado_139376" data-name="Trazado 139376" d="M401.595,201.442c0,.437-.307.614-.685.4a1.516,1.516,0,0,1-.685-1.187c0-.437.307-.614.685-.4A1.515,1.515,0,0,1,401.595,201.442Z" transform="translate(-382.882 -186.749)" fill="#173d7a"/>
          <path id="Trazado_139377" data-name="Trazado 139377" d="M419.4,212.513l-1.408-.814a.912.912,0,0,1-.38-.728v-1.49c0-.28.17-.41.38-.288l1.408.813a.913.913,0,0,1,.381.728v1.49C419.777,212.5,419.607,212.634,419.4,212.513Z" transform="translate(-390.499 -190.687)" fill="#173d7a"/>
        </g>
        <g id="Grupo_91348" data-name="Grupo 91348" transform="translate(1.468 47.96)">
          <path id="Trazado_139378" data-name="Trazado 139378" d="M400.286,220.264,370.562,203.1a2.886,2.886,0,0,1-1.2-2.3v-5.668c0-.887.539-1.295,1.2-.911l29.724,17.161a2.885,2.885,0,0,1,1.2,2.3v5.668C401.49,220.24,400.951,220.648,400.286,220.264Z" transform="translate(-369.357 -194.079)" fill="#5793ce"/>
          <path id="Trazado_139379" data-name="Trazado 139379" d="M400.561,219.882l-28.017-16.176a1.463,1.463,0,0,1-.611-1.167v-4.261c0-.45.274-.657.611-.462l28.017,16.176a1.463,1.463,0,0,1,.611,1.167v4.261C401.172,219.87,400.9,220.077,400.561,219.882Z" transform="translate(-370.485 -195.684)" fill="#d4ecff" opacity="0.4"/>
          <path id="Trazado_139380" data-name="Trazado 139380" d="M379.688,207.351l-4.181-2.414a1.421,1.421,0,0,1-.593-1.134h0c0-.437.266-.638.593-.449l4.181,2.414a1.421,1.421,0,0,1,.594,1.134h0C380.282,207.34,380.016,207.541,379.688,207.351Z" transform="translate(-371.792 -198.112)" fill="#d4ecff"/>
          <path id="Trazado_139381" data-name="Trazado 139381" d="M388.685,211.779c0,.437-.307.615-.685.4a1.515,1.515,0,0,1-.685-1.187c0-.437.307-.614.685-.4A1.514,1.514,0,0,1,388.685,211.779Z" transform="translate(-377.226 -201.273)" fill="#173d7a"/>
          <path id="Trazado_139382" data-name="Trazado 139382" d="M392.989,214.263c0,.437-.307.614-.685.4a1.515,1.515,0,0,1-.685-1.187c0-.437.307-.614.685-.4A1.515,1.515,0,0,1,392.989,214.263Z" transform="translate(-379.111 -202.362)" fill="#173d7a"/>
          <path id="Trazado_139383" data-name="Trazado 139383" d="M397.292,216.747c0,.437-.307.614-.685.4a1.514,1.514,0,0,1-.685-1.187c0-.437.307-.614.685-.4A1.515,1.515,0,0,1,397.292,216.747Z" transform="translate(-380.997 -203.451)" fill="#d4ecff"/>
          <path id="Trazado_139384" data-name="Trazado 139384" d="M401.595,219.232c0,.437-.307.614-.685.4a1.516,1.516,0,0,1-.685-1.187c0-.437.307-.614.685-.4A1.515,1.515,0,0,1,401.595,219.232Z" transform="translate(-382.882 -204.539)" fill="#173d7a"/>
          <path id="Trazado_139385" data-name="Trazado 139385" d="M419.4,230.3l-1.408-.814a.912.912,0,0,1-.38-.728v-1.49c0-.281.17-.41.38-.288l1.408.813a.913.913,0,0,1,.381.728v1.49C419.777,230.295,419.607,230.424,419.4,230.3Z" transform="translate(-390.499 -208.477)" fill="#d4ecff"/>
        </g>
        <g id="Grupo_91349" data-name="Grupo 91349" transform="translate(1.468 57.955)">
          <path id="Trazado_139386" data-name="Trazado 139386" d="M400.286,238.054l-29.724-17.161a2.886,2.886,0,0,1-1.2-2.3v-5.668c0-.887.539-1.294,1.2-.91l29.724,17.161a2.885,2.885,0,0,1,1.2,2.3v5.668C401.49,238.03,400.951,238.438,400.286,238.054Z" transform="translate(-369.357 -211.869)" fill="#5793ce"/>
          <path id="Trazado_139387" data-name="Trazado 139387" d="M400.561,237.672,372.543,221.5a1.463,1.463,0,0,1-.611-1.167v-4.261c0-.45.274-.657.611-.462l28.017,16.176a1.463,1.463,0,0,1,.611,1.167v4.261C401.172,237.66,400.9,237.867,400.561,237.672Z" transform="translate(-370.485 -213.474)" fill="#d4ecff" opacity="0.4"/>
          <path id="Trazado_139388" data-name="Trazado 139388" d="M379.688,225.141l-4.181-2.414a1.421,1.421,0,0,1-.593-1.134h0c0-.437.266-.638.593-.449l4.181,2.414a1.421,1.421,0,0,1,.594,1.134h0C380.282,225.129,380.016,225.331,379.688,225.141Z" transform="translate(-371.792 -215.902)" fill="#d4ecff"/>
          <path id="Trazado_139389" data-name="Trazado 139389" d="M388.685,229.569c0,.437-.307.614-.685.4a1.513,1.513,0,0,1-.685-1.187c0-.437.307-.614.685-.4A1.514,1.514,0,0,1,388.685,229.569Z" transform="translate(-377.226 -219.063)" fill="#173d7a"/>
          <path id="Trazado_139390" data-name="Trazado 139390" d="M392.989,232.053c0,.437-.307.614-.685.4a1.515,1.515,0,0,1-.685-1.187c0-.437.307-.614.685-.4A1.515,1.515,0,0,1,392.989,232.053Z" transform="translate(-379.111 -220.152)" fill="#fff"/>
          <path id="Trazado_139391" data-name="Trazado 139391" d="M397.292,234.537c0,.437-.307.614-.685.4a1.513,1.513,0,0,1-.685-1.187c0-.437.307-.615.685-.4A1.513,1.513,0,0,1,397.292,234.537Z" transform="translate(-380.997 -221.241)" fill="#d4ecff"/>
          <path id="Trazado_139392" data-name="Trazado 139392" d="M401.595,237.022c0,.437-.307.614-.685.4a1.516,1.516,0,0,1-.685-1.187c0-.437.307-.614.685-.4A1.515,1.515,0,0,1,401.595,237.022Z" transform="translate(-382.882 -222.329)" fill="#fff"/>
          <path id="Trazado_139393" data-name="Trazado 139393" d="M419.4,248.093l-1.408-.814a.912.912,0,0,1-.38-.728v-1.49c0-.281.17-.41.38-.288l1.408.813a.911.911,0,0,1,.381.728v1.49C419.777,248.085,419.607,248.214,419.4,248.093Z" transform="translate(-390.499 -226.267)" fill="#d4ecff"/>
        </g>
        <g id="Grupo_91350" data-name="Grupo 91350" transform="translate(1.468 67.949)">
          <path id="Trazado_139394" data-name="Trazado 139394" d="M400.286,255.844l-29.724-17.161a2.885,2.885,0,0,1-1.2-2.3v-5.668c0-.887.539-1.294,1.2-.911l29.724,17.161a2.885,2.885,0,0,1,1.2,2.3v5.668C401.49,255.82,400.951,256.228,400.286,255.844Z" transform="translate(-369.357 -229.658)" fill="#5793ce"/>
          <path id="Trazado_139395" data-name="Trazado 139395" d="M400.561,255.462l-28.017-16.176a1.463,1.463,0,0,1-.611-1.167v-4.261c0-.45.274-.657.611-.462l28.017,16.176a1.463,1.463,0,0,1,.611,1.167V255C401.172,255.45,400.9,255.657,400.561,255.462Z" transform="translate(-370.485 -231.264)" fill="#d4ecff" opacity="0.4"/>
          <path id="Trazado_139396" data-name="Trazado 139396" d="M379.688,242.931l-4.181-2.414a1.421,1.421,0,0,1-.593-1.134h0c0-.437.266-.638.593-.449l4.181,2.414a1.421,1.421,0,0,1,.594,1.134h0C380.282,242.92,380.016,243.121,379.688,242.931Z" transform="translate(-371.792 -233.692)" fill="#d4ecff"/>
          <path id="Trazado_139397" data-name="Trazado 139397" d="M388.685,247.359c0,.437-.307.614-.685.4a1.513,1.513,0,0,1-.685-1.187c0-.437.307-.614.685-.4A1.514,1.514,0,0,1,388.685,247.359Z" transform="translate(-377.226 -236.853)" fill="#173d7a"/>
          <path id="Trazado_139398" data-name="Trazado 139398" d="M392.989,249.843c0,.437-.307.614-.685.4a1.515,1.515,0,0,1-.685-1.187c0-.437.307-.614.685-.4A1.515,1.515,0,0,1,392.989,249.843Z" transform="translate(-379.111 -237.942)" fill="#173d7a"/>
          <path id="Trazado_139399" data-name="Trazado 139399" d="M397.292,252.327c0,.437-.307.614-.685.4a1.514,1.514,0,0,1-.685-1.187c0-.437.307-.614.685-.4A1.515,1.515,0,0,1,397.292,252.327Z" transform="translate(-380.997 -239.03)" fill="#d4ecff"/>
          <path id="Trazado_139400" data-name="Trazado 139400" d="M401.595,254.812c0,.437-.307.614-.685.4a1.516,1.516,0,0,1-.685-1.187c0-.437.307-.614.685-.4A1.515,1.515,0,0,1,401.595,254.812Z" transform="translate(-382.882 -240.119)" fill="#173d7a"/>
          <path id="Trazado_139401" data-name="Trazado 139401" d="M419.4,265.882l-1.408-.813a.912.912,0,0,1-.38-.728v-1.49c0-.28.17-.409.38-.288l1.408.813a.912.912,0,0,1,.381.728v1.49C419.777,265.875,419.607,266,419.4,265.882Z" transform="translate(-390.499 -244.057)" fill="#173d7a"/>
        </g>
        <g id="Grupo_91351" data-name="Grupo 91351" transform="translate(1.468 77.944)">
          <path id="Trazado_139402" data-name="Trazado 139402" d="M400.286,273.634l-29.724-17.161a2.886,2.886,0,0,1-1.2-2.3V248.5c0-.887.539-1.294,1.2-.911l29.724,17.161a2.885,2.885,0,0,1,1.2,2.3v5.668C401.49,273.61,400.951,274.018,400.286,273.634Z" transform="translate(-369.357 -247.448)" fill="#5793ce"/>
          <path id="Trazado_139403" data-name="Trazado 139403" d="M400.561,273.252l-28.017-16.176a1.464,1.464,0,0,1-.611-1.168v-4.261c0-.45.274-.657.611-.462l28.017,16.176a1.462,1.462,0,0,1,.611,1.167v4.261C401.172,273.24,400.9,273.447,400.561,273.252Z" transform="translate(-370.485 -249.054)" fill="#d4ecff" opacity="0.4"/>
          <path id="Trazado_139404" data-name="Trazado 139404" d="M379.688,260.721l-4.181-2.414a1.421,1.421,0,0,1-.593-1.134h0c0-.437.266-.638.593-.449l4.181,2.414a1.421,1.421,0,0,1,.594,1.134h0C380.282,260.709,380.016,260.911,379.688,260.721Z" transform="translate(-371.792 -251.482)" fill="#d4ecff"/>
          <path id="Trazado_139405" data-name="Trazado 139405" d="M388.685,265.148c0,.437-.307.614-.685.4a1.514,1.514,0,0,1-.685-1.187c0-.437.307-.614.685-.4A1.515,1.515,0,0,1,388.685,265.148Z" transform="translate(-377.226 -254.643)" fill="#fff"/>
          <path id="Trazado_139406" data-name="Trazado 139406" d="M392.989,267.633c0,.437-.307.614-.685.4a1.515,1.515,0,0,1-.685-1.187c0-.437.307-.614.685-.4A1.514,1.514,0,0,1,392.989,267.633Z" transform="translate(-379.111 -255.732)" fill="#173d7a"/>
          <path id="Trazado_139407" data-name="Trazado 139407" d="M397.292,270.117c0,.437-.307.614-.685.4a1.515,1.515,0,0,1-.685-1.187c0-.437.307-.615.685-.4A1.515,1.515,0,0,1,397.292,270.117Z" transform="translate(-380.997 -256.82)" fill="#d4ecff"/>
          <path id="Trazado_139408" data-name="Trazado 139408" d="M401.595,272.6c0,.437-.307.614-.685.4a1.516,1.516,0,0,1-.685-1.187c0-.437.307-.614.685-.4A1.515,1.515,0,0,1,401.595,272.6Z" transform="translate(-382.882 -257.909)" fill="#173d7a"/>
          <path id="Trazado_139409" data-name="Trazado 139409" d="M419.4,283.672l-1.408-.813a.912.912,0,0,1-.38-.728v-1.491c0-.28.17-.409.38-.288l1.408.813a.911.911,0,0,1,.381.728v1.49C419.777,283.665,419.607,283.794,419.4,283.672Z" transform="translate(-390.499 -261.846)" fill="#d4ecff"/>
        </g>
      </g>
      <g id="Grupo_91356" data-name="Grupo 91356" transform="translate(341.763 55.075)">
        <path id="Trazado_139410" data-name="Trazado 139410" d="M408.669,116.9a.449.449,0,0,1-.448-.449V97.974a.449.449,0,1,1,.9,0v18.477A.449.449,0,0,1,408.669,116.9Z" transform="translate(-406.069 -87.158)" fill="#5793ce"/>
        <g id="Grupo_91355" data-name="Grupo 91355" transform="translate(0)">
          <g id="Grupo_91353" data-name="Grupo 91353" transform="translate(0.996 9.654)">
            <rect id="Rectángulo_35329" data-name="Rectángulo 35329" width="3.21" height="6.927" transform="translate(0)" fill="#5793ce"/>
            <path id="Trazado_139411" data-name="Trazado 139411" d="M408.9,108.518a2.509,2.509,0,0,1-2.27,0,.692.692,0,0,1,0-1.311,2.509,2.509,0,0,1,2.27,0A.692.692,0,0,1,408.9,108.518Z" transform="translate(-406.162 -100.936)" fill="#5793ce"/>
          </g>
          <g id="Grupo_91354" data-name="Grupo 91354">
            <rect id="Rectángulo_35330" data-name="Rectángulo 35330" width="5.202" height="10.865" fill="#5793ce"/>
            <path id="Trazado_139412" data-name="Trazado 139412" d="M406.162,98.032v2.344a4.153,4.153,0,0,0,3.21,0V98.032A4.153,4.153,0,0,0,406.162,98.032Z" transform="translate(-405.166 -87.238)" fill="#396caa"/>
            <path id="Trazado_139413" data-name="Trazado 139413" d="M408.83,98.3a4.064,4.064,0,0,1-3.678,0,1.121,1.121,0,0,1,0-2.124,4.063,4.063,0,0,1,3.678,0A1.121,1.121,0,0,1,408.83,98.3Z" transform="translate(-404.39 -86.374)" fill="#5793ce"/>
          </g>
        </g>
      </g>
      <g id="Grupo_91360" data-name="Grupo 91360" transform="translate(346.15 57.694)">
        <path id="Trazado_139414" data-name="Trazado 139414" d="M416.477,121.562a.449.449,0,0,1-.449-.449V102.636a.449.449,0,0,1,.9,0v18.477A.449.449,0,0,1,416.477,121.562Z" transform="translate(-413.876 -91.82)" fill="#5793ce"/>
        <g id="Grupo_91359" data-name="Grupo 91359">
          <g id="Grupo_91357" data-name="Grupo 91357" transform="translate(0.996 9.654)">
            <rect id="Rectángulo_35331" data-name="Rectángulo 35331" width="3.21" height="6.927" transform="translate(0)" fill="#5793ce"/>
            <path id="Trazado_139415" data-name="Trazado 139415" d="M416.71,113.181a2.505,2.505,0,0,1-2.27,0,.691.691,0,0,1,0-1.31,2.509,2.509,0,0,1,2.27,0A.691.691,0,0,1,416.71,113.181Z" transform="translate(-413.97 -105.598)" fill="#5793ce"/>
          </g>
          <g id="Grupo_91358" data-name="Grupo 91358">
            <rect id="Rectángulo_35332" data-name="Rectángulo 35332" width="5.202" height="10.865" fill="#5793ce"/>
            <path id="Trazado_139416" data-name="Trazado 139416" d="M413.97,102.7v2.344a4.153,4.153,0,0,0,3.21,0V102.7A4.153,4.153,0,0,0,413.97,102.7Z" transform="translate(-412.974 -91.901)" fill="#396caa"/>
            <path id="Trazado_139417" data-name="Trazado 139417" d="M416.638,102.963a4.064,4.064,0,0,1-3.678,0,1.121,1.121,0,0,1,0-2.124,4.068,4.068,0,0,1,3.678,0A1.121,1.121,0,0,1,416.638,102.963Z" transform="translate(-412.198 -91.037)" fill="#5793ce"/>
          </g>
        </g>
      </g>
      <g id="Grupo_91364" data-name="Grupo 91364" transform="translate(350.537 60.314)">
        <path id="Trazado_139418" data-name="Trazado 139418" d="M424.286,126.225a.448.448,0,0,1-.449-.449V107.3a.449.449,0,0,1,.9,0v18.477A.449.449,0,0,1,424.286,126.225Z" transform="translate(-421.685 -96.483)" fill="#5793ce"/>
        <g id="Grupo_91363" data-name="Grupo 91363" transform="translate(0)">
          <g id="Grupo_91361" data-name="Grupo 91361" transform="translate(0.996 9.654)">
            <rect id="Rectángulo_35333" data-name="Rectángulo 35333" width="3.21" height="6.927" transform="translate(0)" fill="#5793ce"/>
            <path id="Trazado_139419" data-name="Trazado 139419" d="M424.518,117.843a2.509,2.509,0,0,1-2.27,0,.692.692,0,0,1,0-1.311,2.509,2.509,0,0,1,2.27,0A.692.692,0,0,1,424.518,117.843Z" transform="translate(-421.778 -110.261)" fill="#5793ce"/>
          </g>
          <g id="Grupo_91362" data-name="Grupo 91362">
            <rect id="Rectángulo_35334" data-name="Rectángulo 35334" width="5.202" height="10.865" fill="#5793ce"/>
            <path id="Trazado_139420" data-name="Trazado 139420" d="M421.778,107.357V109.7a4.152,4.152,0,0,0,3.21,0v-2.344A4.152,4.152,0,0,0,421.778,107.357Z" transform="translate(-420.782 -96.563)" fill="#396caa"/>
            <path id="Trazado_139421" data-name="Trazado 139421" d="M424.446,107.626a4.068,4.068,0,0,1-3.678,0,1.121,1.121,0,0,1,0-2.124,4.064,4.064,0,0,1,3.678,0A1.121,1.121,0,0,1,424.446,107.626Z" transform="translate(-420.006 -95.699)" fill="#5793ce"/>
          </g>
        </g>
      </g>
      <g id="Grupo_91368" data-name="Grupo 91368" transform="translate(354.924 62.933)">
        <path id="Trazado_139422" data-name="Trazado 139422" d="M432.093,130.887a.449.449,0,0,1-.449-.449V111.961a.449.449,0,0,1,.9,0v18.477A.448.448,0,0,1,432.093,130.887Z" transform="translate(-429.492 -101.145)" fill="#5793ce"/>
        <g id="Grupo_91367" data-name="Grupo 91367">
          <g id="Grupo_91365" data-name="Grupo 91365" transform="translate(0.996 9.654)">
            <rect id="Rectángulo_35335" data-name="Rectángulo 35335" width="3.21" height="6.927" fill="#5793ce"/>
            <path id="Trazado_139423" data-name="Trazado 139423" d="M432.326,122.505a2.509,2.509,0,0,1-2.27,0,.692.692,0,0,1,0-1.31,2.505,2.505,0,0,1,2.27,0A.691.691,0,0,1,432.326,122.505Z" transform="translate(-429.587 -114.923)" fill="#5793ce"/>
          </g>
          <g id="Grupo_91366" data-name="Grupo 91366">
            <rect id="Rectángulo_35336" data-name="Rectángulo 35336" width="5.202" height="10.865" fill="#5793ce"/>
            <path id="Trazado_139424" data-name="Trazado 139424" d="M429.586,112.02v2.344a4.153,4.153,0,0,0,3.21,0V112.02A4.157,4.157,0,0,0,429.586,112.02Z" transform="translate(-428.59 -101.226)" fill="#396caa"/>
            <path id="Trazado_139425" data-name="Trazado 139425" d="M432.254,112.288a4.064,4.064,0,0,1-3.678,0,1.121,1.121,0,0,1,0-2.124,4.064,4.064,0,0,1,3.678,0A1.121,1.121,0,0,1,432.254,112.288Z" transform="translate(-427.814 -100.361)" fill="#5793ce"/>
          </g>
        </g>
      </g>
      <g id="Grupo_91375" data-name="Grupo 91375" transform="translate(324.424 24.307)">
        <g id="Grupo_91371" data-name="Grupo 91371">
          <path id="Trazado_139426" data-name="Trazado 139426" d="M467.629,118.745l6.975-4.108-6.642-8.29-1.746,2.853Z" transform="translate(-414.141 -60.256)" fill="#5793ce"/>
          <path id="Trazado_139427" data-name="Trazado 139427" d="M378.592,42.434l11.131-6.4s-.419,6.391-.419,6.4-6.395,1.981-6.395,1.981Z" transform="translate(-375.746 -29.444)" fill="#5793ce"/>
          <path id="Trazado_139428" data-name="Trazado 139428" d="M437.624,61.95a7.018,7.018,0,0,0-2.409-.892c-1.122-5.9-5.227-12.162-10.12-14.988a9.906,9.906,0,0,0-4.141-1.4c-.669-7.149-5.639-15.274-11.676-18.759-3.153-1.82-6.014-2.035-8.125-.921v-.006l-.1.059c-.054.03-.107.061-.161.092l-6.564,3.877,2.181,1.723c-1.958.856-3.2,3.052-3.2,6.3,0,5.986,4.2,13.264,9.386,16.257l34.925,24.939c3.892,2.247,7.048.426,7.048-4.069A15.58,15.58,0,0,0,437.624,61.95Z" transform="translate(-382.196 -24.308)" fill="#5793ce"/>
          <path id="Trazado_139429" data-name="Trazado 139429" d="M393.89,34.4l15.065-8.8c-2.924-1.525-5.567-1.651-7.549-.6v-.006l-.1.059c-.054.03-.107.061-.161.092l-6.564,3.877,2.181,1.723A5.263,5.263,0,0,0,393.89,34.4Z" transform="translate(-382.449 -24.307)" fill="#5793ce"/>
          <path id="Trazado_139430" data-name="Trazado 139430" d="M434.464,76.812l10.992-6.451a21.293,21.293,0,0,0-7.355-7.769q-.571-.33-1.126-.579L422.994,70.19Z" transform="translate(-395.202 -40.829)" fill="#5793ce"/>
          <path id="Trazado_139431" data-name="Trazado 139431" d="M400.631,29.954l4.9,2.828L414.5,27.5a17.851,17.851,0,0,0-2.016-1.366,12.586,12.586,0,0,0-3.135-1.317Z" transform="translate(-385.403 -24.53)" fill="#d4ecff"/>
          <path id="Trazado_139432" data-name="Trazado 139432" d="M453.974,73.494,445.2,78.663l3.052,3.4,7.964-4.7A25.524,25.524,0,0,0,453.974,73.494Z" transform="translate(-404.933 -45.86)" fill="#d4ecff"/>
          <path id="Trazado_139433" data-name="Trazado 139433" d="M422.062,69.174a7.008,7.008,0,0,0-2.408-.893c-1.123-5.9-5.227-12.162-10.12-14.987a9.908,9.908,0,0,0-4.141-1.4c-.669-7.149-5.639-15.274-11.676-18.759-6.491-3.748-11.754-.71-11.754,6.786,0,.254.007.511.019.769-4.747-2.2-8.456.279-8.456,5.9,0,5.986,4.2,13.264,9.386,16.257l39.15,22.6c3.892,2.248,7.048.426,7.048-4.069A15.579,15.579,0,0,0,422.062,69.174Z" transform="translate(-373.526 -27.471)" fill="#d4ecff"/>
          <g id="Grupo_91369" data-name="Grupo 91369" transform="translate(2.147 3.498)">
            <path id="Trazado_139434" data-name="Trazado 139434" d="M383.656,46.783c-.012-.258-.019-.515-.019-.769,0-.011,0-.021,0-.032-2.623-1.02-4.876-.576-6.291,1.061C378.884,45.778,381.118,45.605,383.656,46.783Z" transform="translate(-377.347 -37.065)" fill="#fff"/>
            <path id="Trazado_139435" data-name="Trazado 139435" d="M431.244,68.179a7.018,7.018,0,0,0-2.409-.892c-1.122-5.9-5.227-12.162-10.12-14.988a9.9,9.9,0,0,0-4.141-1.4c-.668-7.149-5.639-15.274-11.675-18.759-4.045-2.335-7.612-2.035-9.726.335,2.155-1.841,5.453-1.912,9.153.224,6.037,3.484,11.007,11.609,11.676,18.759a9.914,9.914,0,0,1,4.141,1.4c4.893,2.825,9,9.089,10.12,14.988a7.008,7.008,0,0,1,2.409.893,15.579,15.579,0,0,1,7.048,12.207,5.806,5.806,0,0,1-1.124,3.75,5.22,5.22,0,0,0,1.7-4.308A15.58,15.58,0,0,0,431.244,68.179Z" transform="translate(-384.282 -30.534)" fill="#fff"/>
          </g>
          <g id="Grupo_91370" data-name="Grupo 91370" transform="translate(1.967 6.02)">
            <path id="Trazado_139436" data-name="Trazado 139436" d="M382.688,44l2.943,1.365-.15-3.24c-.011-.228-.017-.454-.017-.678,0-2.893.873-4.989,2.459-5.905s3.839-.622,6.344.823c5.387,3.111,10.087,10.682,10.7,17.238l.154,1.652,1.654.127a7.959,7.959,0,0,1,3.309,1.144c4.279,2.47,8.136,8.212,9.171,13.65l.259,1.362,1.369.214a5.093,5.093,0,0,1,1.73.653,13.631,13.631,0,0,1,6.064,10.5c0,1.42-.394,2.462-1.081,2.859s-1.785.216-3.016-.494l-39.15-22.6c-4.554-2.629-8.4-9.294-8.4-14.553,0-2.064.608-3.636,1.67-4.314a2.856,2.856,0,0,1,1.56-.417A5.881,5.881,0,0,1,382.688,44Z" transform="translate(-377.028 -35.022)" fill="#396caa"/>
          </g>
        </g>
        <g id="Grupo_91374" data-name="Grupo 91374" transform="translate(18.629 25.043)">
          <path id="Trazado_139437" data-name="Trazado 139437" d="M421.882,93.678l1.033-.519-1.017-.77Z" transform="translate(-413.344 -79.183)" fill="#5793ce"/>
          <path id="Trazado_139438" data-name="Trazado 139438" d="M416.362,69.456l1-.507.018.525Z" transform="translate(-410.925 -68.912)" fill="#5793ce"/>
          <path id="Trazado_139439" data-name="Trazado 139439" d="M426.372,86.974l1.046-.526L425.4,84.533Z" transform="translate(-414.887 -75.74)" fill="#5793ce"/>
          <g id="Grupo_91372" data-name="Grupo 91372" transform="translate(1.048)">
            <path id="Trazado_139440" data-name="Trazado 139440" d="M419.02,86.4l-4.89-2.879a1.044,1.044,0,0,1-.448-.822l.016-5.661,5.788,3.409-.016,5.661C419.47,86.414,419.268,86.545,419.02,86.4Z" transform="translate(-410.799 -72.455)" fill="#5793ce"/>
            <path id="Trazado_139441" data-name="Trazado 139441" d="M413.931,68.926l-5.281,3.4c-.224.144-.043.681.3.882l5.393,3.177,5.393,3.177c.34.2.524-.122.3-.53l-5.245-9.6C414.565,69.018,414.159,68.78,413.931,68.926Z" transform="translate(-408.551 -68.883)" fill="#5793ce"/>
          </g>
          <g id="Grupo_91373" data-name="Grupo 91373" transform="translate(0 0.528)">
            <path id="Trazado_139442" data-name="Trazado 139442" d="M417.153,87.339l-4.889-2.88a1.04,1.04,0,0,1-.448-.822l.016-5.661,5.788,3.409-.016,5.661C417.6,87.354,417.4,87.485,417.153,87.339Z" transform="translate(-408.933 -73.395)" fill="#d4ecff"/>
            <path id="Trazado_139443" data-name="Trazado 139443" d="M412.064,69.866l-5.281,3.4c-.224.144-.043.682.3.883l5.393,3.177,5.393,3.177c.34.2.524-.122.3-.53l-5.244-9.6C412.7,69.958,412.293,69.72,412.064,69.866Z" transform="translate(-406.685 -69.823)" fill="#d4ecff"/>
          </g>
        </g>
      </g>
      <path id="Trazado_139444" data-name="Trazado 139444" d="M452.285,232.555h-.6V199.089l3.952-2.282V180.333h.6v16.819l-3.952,2.282Z" transform="translate(-83.35 -68.368)" fill="#fff"/>
      <g id="Grupo_91376" data-name="Grupo 91376" transform="translate(261.467 146.712)">
        <path id="Trazado_139445" data-name="Trazado 139445" d="M273.931,266.885a2.053,2.053,0,0,1-1.012-.268L262,260.434a1.048,1.048,0,0,1-.009-1.82l27.239-15.756a5.077,5.077,0,0,1,5.066,0l31.133,17.994-.449.778-31.133-17.994a4.18,4.18,0,0,0-4.168,0L262.44,259.391a.15.15,0,0,0,0,.261l10.921,6.183a1.15,1.15,0,0,0,1.2-.035l4.614-2.984.488.754-4.615,2.984A2.05,2.05,0,0,1,273.931,266.885Z" transform="translate(-261.467 -242.18)" fill="#b2d3ea"/>
      </g>
      <g id="Grupo_91387" data-name="Grupo 91387" transform="translate(268.596 118.147)">
        <path id="Trazado_139446" data-name="Trazado 139446" d="M297.039,275.443l-14.679-8.475c-.9-.52-.788-1.429.252-2.029l14.174-8.184a3.907,3.907,0,0,1,3.515-.146l14.679,8.475c.9.52.788,1.429-.252,2.03L300.554,275.3A3.907,3.907,0,0,1,297.039,275.443Z" transform="translate(-277.484 -219.783)" fill="#b2d3ea"/>
        <g id="Grupo_91378" data-name="Grupo 91378" transform="translate(0 20.271)">
          <path id="Trazado_139447" data-name="Trazado 139447" d="M316.524,252.969h0v-6.342l-14.222-.008-4.916-2.838a4.892,4.892,0,0,0-4.4.183l-4.587,2.648-14.235-.008v6.523a1.275,1.275,0,0,0,.756,1.179L293.3,264.918a4.893,4.893,0,0,0,4.4-.183l17.749-10.248A1.743,1.743,0,0,0,316.524,252.969Z" transform="translate(-274.158 -234.395)" fill="#396caa"/>
          <path id="Trazado_139448" data-name="Trazado 139448" d="M295.344,243.347a5.073,5.073,0,0,0-2.359.619l-4.587,2.648-14.235-.008v6.523a1.275,1.275,0,0,0,.756,1.179L293.3,264.921a3.98,3.98,0,0,0,2.043.436Z" transform="translate(-274.158 -234.397)" fill="#396caa"/>
          <path id="Trazado_139449" data-name="Trazado 139449" d="M275.775,249.148h-1.611v6.523a1.275,1.275,0,0,0,.756,1.179l.855.494Z" transform="translate(-274.158 -236.939)" fill="#5793ce"/>
          <path id="Trazado_139450" data-name="Trazado 139450" d="M308.734,276.186a5.016,5.016,0,0,0,3.519-.04v-7.406h-3.519Z" transform="translate(-289.308 -245.524)" fill="#5793ce"/>
          <path id="Trazado_139451" data-name="Trazado 139451" d="M293.3,251.441l-18.382-10.613c-1.128-.651-.987-1.789.316-2.541l17.75-10.248a4.892,4.892,0,0,1,4.4-.183l18.382,10.613c1.128.652.987,1.789-.316,2.541L297.7,251.258A4.893,4.893,0,0,1,293.3,251.441Z" transform="translate(-274.156 -227.417)" fill="#d4ecff"/>
          <path id="Trazado_139452" data-name="Trazado 139452" d="M296.307,251.076l-15.4-8.894c-.946-.546-.827-1.5.265-2.129l14.874-8.588a4.1,4.1,0,0,1,3.688-.153l15.4,8.894c.945.546.826,1.5-.265,2.13L300,250.923A4.1,4.1,0,0,1,296.307,251.076Z" transform="translate(-276.833 -228.963)" fill="#5793ce"/>
          <g id="Grupo_91377" data-name="Grupo 91377" transform="translate(34.12 16.96)">
            <path id="Trazado_139453" data-name="Trazado 139453" d="M336.373,263.044a1.642,1.642,0,0,1-.743,1.286c-.41.237-.742.044-.742-.429a1.64,1.64,0,0,1,.742-1.286C336.04,262.379,336.373,262.571,336.373,263.044Z" transform="translate(-334.888 -259.756)" fill="#d4ecff"/>
            <path id="Trazado_139454" data-name="Trazado 139454" d="M340.624,260.589a1.641,1.641,0,0,1-.742,1.286c-.41.237-.743.044-.743-.429a1.641,1.641,0,0,1,.743-1.286C340.292,259.924,340.624,260.116,340.624,260.589Z" transform="translate(-336.751 -258.68)" fill="#d4ecff"/>
            <path id="Trazado_139455" data-name="Trazado 139455" d="M344.876,258.135a1.641,1.641,0,0,1-.742,1.286c-.41.237-.743.045-.743-.429a1.642,1.642,0,0,1,.743-1.286C344.544,257.469,344.876,257.661,344.876,258.135Z" transform="translate(-338.614 -257.605)" fill="#d4ecff"/>
          </g>
        </g>
        <g id="Grupo_91380" data-name="Grupo 91380" transform="translate(0 10.136)">
          <path id="Trazado_139456" data-name="Trazado 139456" d="M316.524,234.928h0v-6.342l-14.222-.008-4.916-2.838a4.892,4.892,0,0,0-4.4.183L288.4,228.57l-14.235-.008v6.523a1.277,1.277,0,0,0,.756,1.179L293.3,246.877a4.893,4.893,0,0,0,4.4-.183l17.749-10.248A1.743,1.743,0,0,0,316.524,234.928Z" transform="translate(-274.158 -216.354)" fill="#396caa"/>
          <path id="Trazado_139457" data-name="Trazado 139457" d="M295.344,225.306a5.066,5.066,0,0,0-2.359.619l-4.587,2.648-14.235-.008v6.523a1.277,1.277,0,0,0,.756,1.179L293.3,246.88a3.985,3.985,0,0,0,2.043.436Z" transform="translate(-274.158 -216.357)" fill="#396caa"/>
          <path id="Trazado_139458" data-name="Trazado 139458" d="M275.775,231.107h-1.611v6.523a1.277,1.277,0,0,0,.756,1.179l.855.493Z" transform="translate(-274.158 -218.898)" fill="#5793ce"/>
          <path id="Trazado_139459" data-name="Trazado 139459" d="M308.734,258.145a5.016,5.016,0,0,0,3.519-.04V250.7h-3.519Z" transform="translate(-289.308 -227.483)" fill="#5793ce"/>
          <path id="Trazado_139460" data-name="Trazado 139460" d="M293.3,233.4l-18.382-10.613c-1.128-.651-.987-1.789.316-2.541L292.983,210a4.892,4.892,0,0,1,4.4-.183l18.382,10.613c1.128.652.987,1.789-.316,2.542L297.7,233.218A4.893,4.893,0,0,1,293.3,233.4Z" transform="translate(-274.156 -209.376)" fill="#d4ecff"/>
          <path id="Trazado_139461" data-name="Trazado 139461" d="M296.307,233.035l-15.4-8.894c-.946-.546-.827-1.5.265-2.129l14.874-8.588a4.1,4.1,0,0,1,3.688-.153l15.4,8.894c.945.546.826,1.5-.265,2.13L300,232.883A4.1,4.1,0,0,1,296.307,233.035Z" transform="translate(-276.833 -210.922)" fill="#5793ce"/>
          <g id="Grupo_91379" data-name="Grupo 91379" transform="translate(34.12 16.96)">
            <path id="Trazado_139462" data-name="Trazado 139462" d="M336.373,245a1.642,1.642,0,0,1-.743,1.286c-.41.237-.742.044-.742-.429a1.64,1.64,0,0,1,.742-1.286C336.04,244.338,336.373,244.53,336.373,245Z" transform="translate(-334.888 -241.715)" fill="#d4ecff"/>
            <path id="Trazado_139463" data-name="Trazado 139463" d="M340.624,242.549a1.641,1.641,0,0,1-.742,1.286c-.41.237-.743.045-.743-.429a1.641,1.641,0,0,1,.743-1.286C340.292,241.883,340.624,242.075,340.624,242.549Z" transform="translate(-336.751 -240.639)" fill="#d4ecff"/>
            <path id="Trazado_139464" data-name="Trazado 139464" d="M344.876,240.094a1.64,1.64,0,0,1-.742,1.286c-.41.237-.743.045-.743-.429a1.641,1.641,0,0,1,.743-1.286C344.544,239.428,344.876,239.62,344.876,240.094Z" transform="translate(-338.614 -239.564)" fill="#d4ecff"/>
          </g>
        </g>
        <g id="Grupo_91383" data-name="Grupo 91383">
          <path id="Trazado_139465" data-name="Trazado 139465" d="M316.524,216.887h0v-6.342l-14.222-.008-4.916-2.838a4.892,4.892,0,0,0-4.4.183l-4.587,2.648-14.235-.008v6.523a1.277,1.277,0,0,0,.756,1.179L293.3,228.836a4.893,4.893,0,0,0,4.4-.183l17.749-10.248A1.743,1.743,0,0,0,316.524,216.887Z" transform="translate(-274.158 -198.313)" fill="#396caa"/>
          <path id="Trazado_139466" data-name="Trazado 139466" d="M295.344,207.265a5.073,5.073,0,0,0-2.359.619l-4.587,2.648-14.235-.008v6.523a1.277,1.277,0,0,0,.756,1.179L293.3,228.839a3.986,3.986,0,0,0,2.043.437Z" transform="translate(-274.158 -198.316)" fill="#396caa"/>
          <path id="Trazado_139467" data-name="Trazado 139467" d="M275.775,213.066h-1.611v6.523a1.277,1.277,0,0,0,.756,1.179l.855.493Z" transform="translate(-274.158 -200.857)" fill="#5793ce"/>
          <path id="Trazado_139468" data-name="Trazado 139468" d="M308.734,240.1a5.016,5.016,0,0,0,3.519-.04v-7.406h-3.519Z" transform="translate(-289.308 -209.442)" fill="#5793ce"/>
          <path id="Trazado_139469" data-name="Trazado 139469" d="M293.3,215.359l-18.382-10.613c-1.128-.651-.987-1.789.316-2.541l17.75-10.248a4.892,4.892,0,0,1,4.4-.183l18.382,10.613c1.128.652.987,1.789-.316,2.542L297.7,215.176A4.891,4.891,0,0,1,293.3,215.359Z" transform="translate(-274.156 -191.335)" fill="#d4ecff"/>
          <path id="Trazado_139470" data-name="Trazado 139470" d="M315.45,212.691,297.7,222.938a4.893,4.893,0,0,1-4.4.183l-18.382-10.613a1.691,1.691,0,0,1-.563-.5,1.182,1.182,0,0,0,.563,1.748L293.3,224.369a4.891,4.891,0,0,0,4.4-.183l17.749-10.247c1.012-.585,1.32-1.4.879-2.042A2.461,2.461,0,0,1,315.45,212.691Z" transform="translate(-274.156 -200.345)" fill="#fff"/>
          <g id="Grupo_91381" data-name="Grupo 91381" transform="translate(34.12 16.96)">
            <path id="Trazado_139471" data-name="Trazado 139471" d="M336.373,226.962a1.642,1.642,0,0,1-.743,1.286c-.41.237-.742.044-.742-.429a1.64,1.64,0,0,1,.742-1.286C336.04,226.3,336.373,226.489,336.373,226.962Z" transform="translate(-334.888 -223.674)" fill="#d4ecff"/>
            <path id="Trazado_139472" data-name="Trazado 139472" d="M340.624,224.508a1.641,1.641,0,0,1-.742,1.286c-.41.237-.743.045-.743-.429a1.641,1.641,0,0,1,.743-1.286C340.292,223.842,340.624,224.034,340.624,224.508Z" transform="translate(-336.751 -222.598)" fill="#d4ecff"/>
            <path id="Trazado_139473" data-name="Trazado 139473" d="M344.876,222.053a1.64,1.64,0,0,1-.742,1.286c-.41.237-.743.045-.743-.429a1.641,1.641,0,0,1,.743-1.286C344.544,221.387,344.876,221.579,344.876,222.053Z" transform="translate(-338.614 -221.523)" fill="#d4ecff"/>
          </g>
          <g id="Grupo_91382" data-name="Grupo 91382" transform="translate(11.272 6.202)">
            <path id="Trazado_139474" data-name="Trazado 139474" d="M303.178,213.617l-8.6-4.966c-.528-.3-.462-.837.148-1.189l8.306-4.8a2.289,2.289,0,0,1,2.06-.085l8.6,4.966c.528.3.462.837-.148,1.189l-8.306,4.8A2.291,2.291,0,0,1,303.178,213.617Z" transform="translate(-294.22 -202.375)" fill="#5793ce"/>
            <path id="Trazado_139475" data-name="Trazado 139475" d="M310.664,213.77l-1.191-.687c-.073-.042-.063-.116.021-.165l1.149-.663a.316.316,0,0,1,.285-.012l1.19.687c.073.043.063.116-.021.165l-1.149.663A.316.316,0,0,1,310.664,213.77Z" transform="translate(-300.882 -206.686)" fill="#d4ecff"/>
            <path id="Trazado_139476" data-name="Trazado 139476" d="M294.576,208.65l.025.014a1.386,1.386,0,0,1,.123-.085l8.306-4.8a2.291,2.291,0,0,1,2.06-.085l8.578,4.952c.487-.348.512-.823.024-1.1l-8.6-4.966a2.289,2.289,0,0,0-2.06.085l-8.306,4.8C294.114,207.813,294.049,208.346,294.576,208.65Z" transform="translate(-294.22 -202.375)" fill="#396caa"/>
          </g>
        </g>
        <g id="Grupo_91384" data-name="Grupo 91384" transform="translate(15.409 24.055)">
          <path id="Trazado_139477" data-name="Trazado 139477" d="M305.342,236.667c0,.319-.224.448-.5.289a1.106,1.106,0,0,1-.5-.866c0-.319.224-.448.5-.288A1.105,1.105,0,0,1,305.342,236.667Z" transform="translate(-302.793 -234.844)" fill="#d4ecff"/>
          <path id="Trazado_139478" data-name="Trazado 139478" d="M302.583,235.085c0,.319-.224.448-.5.288a1.1,1.1,0,0,1-.5-.865c0-.319.224-.448.5-.288A1.1,1.1,0,0,1,302.583,235.085Z" transform="translate(-301.584 -234.151)" fill="#d4ecff"/>
          <path id="Trazado_139479" data-name="Trazado 139479" d="M305.342,240c0,.319-.224.448-.5.288a1.1,1.1,0,0,1-.5-.865c0-.319.224-.448.5-.289A1.106,1.106,0,0,1,305.342,240Z" transform="translate(-302.793 -236.303)" fill="#d4ecff"/>
          <path id="Trazado_139480" data-name="Trazado 139480" d="M302.583,238.414c0,.319-.224.448-.5.289a1.1,1.1,0,0,1-.5-.866c0-.319.224-.448.5-.288A1.1,1.1,0,0,1,302.583,238.414Z" transform="translate(-301.584 -235.61)" fill="#d4ecff"/>
        </g>
        <g id="Grupo_91385" data-name="Grupo 91385" transform="translate(15.409 34.14)">
          <path id="Trazado_139481" data-name="Trazado 139481" d="M305.342,254.619c0,.319-.224.448-.5.288a1.1,1.1,0,0,1-.5-.865c0-.319.224-.448.5-.289A1.106,1.106,0,0,1,305.342,254.619Z" transform="translate(-302.793 -252.796)" fill="#d4ecff"/>
          <path id="Trazado_139482" data-name="Trazado 139482" d="M302.583,253.036c0,.319-.224.448-.5.289a1.1,1.1,0,0,1-.5-.866c0-.319.224-.447.5-.288A1.1,1.1,0,0,1,302.583,253.036Z" transform="translate(-301.584 -252.103)" fill="#d4ecff"/>
          <path id="Trazado_139483" data-name="Trazado 139483" d="M305.342,257.948c0,.319-.224.448-.5.289a1.106,1.106,0,0,1-.5-.866c0-.319.224-.448.5-.288A1.1,1.1,0,0,1,305.342,257.948Z" transform="translate(-302.793 -254.255)" fill="#d4ecff"/>
          <path id="Trazado_139484" data-name="Trazado 139484" d="M302.583,256.366c0,.319-.224.448-.5.288a1.1,1.1,0,0,1-.5-.865c0-.319.224-.448.5-.289A1.1,1.1,0,0,1,302.583,256.366Z" transform="translate(-301.584 -253.562)" fill="#d4ecff"/>
        </g>
        <g id="Grupo_91386" data-name="Grupo 91386" transform="translate(15.409 44.225)">
          <path id="Trazado_139485" data-name="Trazado 139485" d="M305.342,272.57c0,.319-.224.448-.5.288a1.1,1.1,0,0,1-.5-.865c0-.319.224-.448.5-.288A1.1,1.1,0,0,1,305.342,272.57Z" transform="translate(-302.793 -270.747)" fill="#d4ecff"/>
          <path id="Trazado_139486" data-name="Trazado 139486" d="M302.583,270.988c0,.319-.224.448-.5.288a1.1,1.1,0,0,1-.5-.865c0-.319.224-.448.5-.289A1.1,1.1,0,0,1,302.583,270.988Z" transform="translate(-301.584 -270.054)" fill="#d4ecff"/>
          <path id="Trazado_139487" data-name="Trazado 139487" d="M305.342,275.9c0,.319-.224.448-.5.288a1.1,1.1,0,0,1-.5-.865c0-.319.224-.448.5-.289A1.105,1.105,0,0,1,305.342,275.9Z" transform="translate(-302.793 -272.206)" fill="#d4ecff"/>
          <path id="Trazado_139488" data-name="Trazado 139488" d="M302.583,274.317c0,.319-.224.448-.5.289a1.106,1.106,0,0,1-.5-.866c0-.319.224-.448.5-.288A1.1,1.1,0,0,1,302.583,274.317Z" transform="translate(-301.584 -271.513)" fill="#d4ecff"/>
        </g>
      </g>
      <path id="Trazado_139489" data-name="Trazado 139489" d="M303.489,294.543a3.026,3.026,0,0,1-1.52-.408l-9.263-5.375a1.009,1.009,0,0,1,0-1.746l6.091-3.533.451.776-6.092,3.533a.111.111,0,0,0,0,.192l9.263,5.376a2.141,2.141,0,0,0,2.124.008l18.143-10.339a3.043,3.043,0,0,1,3.021.012l15.2,8.778a2.133,2.133,0,0,0,2.138,0l7.328-4.238.45.778-7.328,4.238a3.034,3.034,0,0,1-3.039,0l-15.2-8.777a2.14,2.14,0,0,0-2.127-.01l-18.143,10.339A3.025,3.025,0,0,1,303.489,294.543Z" transform="translate(-13.468 -113.193)" fill="#b2d3ea"/>
      <g id="Grupo_91395" data-name="Grupo 91395" transform="translate(350.932 159.889)">
        <path id="Trazado_139490" data-name="Trazado 139490" d="M443.593,349.742l-14.679-8.475c-.9-.52-.788-1.429.252-2.029l14.174-8.183a3.908,3.908,0,0,1,3.515-.146l14.679,8.476c.9.52.788,1.429-.252,2.029L447.108,349.6A3.907,3.907,0,0,1,443.593,349.742Z" transform="translate(-424.038 -294.082)" fill="#b2d3ea"/>
        <g id="Grupo_91389" data-name="Grupo 91389" transform="translate(0 20.271)">
          <path id="Trazado_139491" data-name="Trazado 139491" d="M463.078,327.268h0v-6.343l-14.222-.008-4.916-2.838a4.89,4.89,0,0,0-4.4.182l-4.587,2.648-14.235-.008v6.523a1.276,1.276,0,0,0,.756,1.179l18.382,10.613a4.893,4.893,0,0,0,4.4-.183l17.749-10.248A1.743,1.743,0,0,0,463.078,327.268Z" transform="translate(-420.712 -308.694)" fill="#396caa"/>
          <path id="Trazado_139492" data-name="Trazado 139492" d="M441.9,317.646a5.072,5.072,0,0,0-2.359.619l-4.587,2.648-14.235-.008v6.523a1.277,1.277,0,0,0,.756,1.179l18.382,10.613a3.985,3.985,0,0,0,2.043.437Z" transform="translate(-420.712 -308.697)" fill="#396caa"/>
          <path id="Trazado_139493" data-name="Trazado 139493" d="M422.329,323.447h-1.611v6.523a1.276,1.276,0,0,0,.756,1.179l.855.493Z" transform="translate(-420.712 -311.238)" fill="#5793ce"/>
          <path id="Trazado_139494" data-name="Trazado 139494" d="M455.288,350.485a5.013,5.013,0,0,0,3.519-.04v-7.406h-3.519Z" transform="translate(-435.861 -319.823)" fill="#5793ce"/>
          <path id="Trazado_139495" data-name="Trazado 139495" d="M439.853,325.74l-18.382-10.613c-1.129-.651-.987-1.789.316-2.541l17.749-10.248a4.892,4.892,0,0,1,4.4-.183l18.382,10.613c1.128.652.987,1.789-.316,2.542l-17.749,10.248A4.893,4.893,0,0,1,439.853,325.74Z" transform="translate(-420.71 -301.716)" fill="#d4ecff"/>
          <path id="Trazado_139496" data-name="Trazado 139496" d="M442.861,325.375l-15.4-8.894c-.946-.546-.827-1.5.265-2.129l14.874-8.587a4.1,4.1,0,0,1,3.688-.153l15.4,8.894c.945.546.826,1.5-.265,2.13l-14.874,8.587A4.1,4.1,0,0,1,442.861,325.375Z" transform="translate(-423.387 -303.262)" fill="#5793ce"/>
          <g id="Grupo_91388" data-name="Grupo 91388" transform="translate(34.12 16.96)">
            <path id="Trazado_139497" data-name="Trazado 139497" d="M482.927,337.344a1.642,1.642,0,0,1-.743,1.286c-.41.237-.742.045-.742-.429a1.64,1.64,0,0,1,.742-1.286C482.594,336.678,482.927,336.87,482.927,337.344Z" transform="translate(-481.442 -334.055)" fill="#d4ecff"/>
            <path id="Trazado_139498" data-name="Trazado 139498" d="M487.178,334.889a1.64,1.64,0,0,1-.742,1.286c-.41.237-.743.045-.743-.429a1.642,1.642,0,0,1,.743-1.286C486.846,334.223,487.178,334.415,487.178,334.889Z" transform="translate(-483.305 -332.979)" fill="#d4ecff"/>
            <path id="Trazado_139499" data-name="Trazado 139499" d="M491.43,332.434a1.64,1.64,0,0,1-.742,1.286c-.41.237-.743.045-.743-.429a1.642,1.642,0,0,1,.743-1.286C491.1,331.768,491.43,331.96,491.43,332.434Z" transform="translate(-485.168 -331.904)" fill="#d4ecff"/>
          </g>
        </g>
        <g id="Grupo_91391" data-name="Grupo 91391" transform="translate(0 10.136)">
          <path id="Trazado_139500" data-name="Trazado 139500" d="M463.078,309.227h0v-6.343l-14.222-.008-4.916-2.838a4.894,4.894,0,0,0-4.4.183l-4.587,2.648-14.235-.008v6.523a1.277,1.277,0,0,0,.756,1.179l18.382,10.613a4.893,4.893,0,0,0,4.4-.183l17.749-10.248A1.743,1.743,0,0,0,463.078,309.227Z" transform="translate(-420.712 -290.653)" fill="#396caa"/>
          <path id="Trazado_139501" data-name="Trazado 139501" d="M441.9,299.605a5.073,5.073,0,0,0-2.359.619l-4.587,2.648-14.235-.008v6.523a1.276,1.276,0,0,0,.756,1.179l18.382,10.613a3.986,3.986,0,0,0,2.043.437Z" transform="translate(-420.712 -290.656)" fill="#396caa"/>
          <path id="Trazado_139502" data-name="Trazado 139502" d="M422.329,305.406h-1.611v6.523a1.277,1.277,0,0,0,.756,1.179l.855.494Z" transform="translate(-420.712 -293.197)" fill="#5793ce"/>
          <path id="Trazado_139503" data-name="Trazado 139503" d="M455.288,332.444a5.017,5.017,0,0,0,3.519-.04V325h-3.519Z" transform="translate(-435.861 -301.782)" fill="#5793ce"/>
          <path id="Trazado_139504" data-name="Trazado 139504" d="M439.853,307.7l-18.382-10.613c-1.129-.651-.987-1.789.316-2.541L439.537,284.3a4.892,4.892,0,0,1,4.4-.183l18.382,10.613c1.128.651.987,1.789-.316,2.541l-17.749,10.248A4.893,4.893,0,0,1,439.853,307.7Z" transform="translate(-420.71 -283.675)" fill="#d4ecff"/>
          <path id="Trazado_139505" data-name="Trazado 139505" d="M442.861,307.334l-15.4-8.894c-.946-.546-.827-1.5.265-2.129l14.874-8.588a4.1,4.1,0,0,1,3.688-.153l15.4,8.894c.945.546.826,1.5-.265,2.129l-14.874,8.587A4.1,4.1,0,0,1,442.861,307.334Z" transform="translate(-423.387 -285.221)" fill="#5793ce"/>
          <g id="Grupo_91390" data-name="Grupo 91390" transform="translate(34.12 16.96)">
            <path id="Trazado_139506" data-name="Trazado 139506" d="M482.927,319.3a1.641,1.641,0,0,1-.743,1.286c-.41.237-.742.045-.742-.429a1.64,1.64,0,0,1,.742-1.286C482.594,318.637,482.927,318.829,482.927,319.3Z" transform="translate(-481.442 -316.014)" fill="#d4ecff"/>
            <path id="Trazado_139507" data-name="Trazado 139507" d="M487.178,316.848a1.64,1.64,0,0,1-.742,1.286c-.41.237-.743.045-.743-.429a1.642,1.642,0,0,1,.743-1.286C486.846,316.182,487.178,316.374,487.178,316.848Z" transform="translate(-483.305 -314.938)" fill="#d4ecff"/>
            <path id="Trazado_139508" data-name="Trazado 139508" d="M491.43,314.393a1.64,1.64,0,0,1-.742,1.286c-.41.237-.743.045-.743-.429a1.641,1.641,0,0,1,.743-1.286C491.1,313.727,491.43,313.919,491.43,314.393Z" transform="translate(-485.168 -313.863)" fill="#d4ecff"/>
          </g>
        </g>
        <g id="Grupo_91394" data-name="Grupo 91394" transform="translate(0 0)">
          <path id="Trazado_139509" data-name="Trazado 139509" d="M463.078,291.186h0v-6.343l-14.222-.008L443.941,282a4.892,4.892,0,0,0-4.4.182l-4.587,2.648-14.235-.008v6.523a1.276,1.276,0,0,0,.756,1.179l18.382,10.613a4.893,4.893,0,0,0,4.4-.183l17.749-10.248A1.743,1.743,0,0,0,463.078,291.186Z" transform="translate(-420.712 -272.612)" fill="#396caa"/>
          <path id="Trazado_139510" data-name="Trazado 139510" d="M441.9,281.564a5.079,5.079,0,0,0-2.359.619l-4.587,2.648-14.235-.008v6.523a1.276,1.276,0,0,0,.756,1.179l18.382,10.613a3.985,3.985,0,0,0,2.043.437Z" transform="translate(-420.712 -272.615)" fill="#396caa"/>
          <path id="Trazado_139511" data-name="Trazado 139511" d="M422.329,287.365h-1.611v6.523a1.276,1.276,0,0,0,.756,1.179l.855.494Z" transform="translate(-420.712 -275.156)" fill="#5793ce"/>
          <path id="Trazado_139512" data-name="Trazado 139512" d="M455.288,314.4a5.013,5.013,0,0,0,3.519-.04v-7.406h-3.519Z" transform="translate(-435.861 -283.741)" fill="#5793ce"/>
          <path id="Trazado_139513" data-name="Trazado 139513" d="M439.853,289.659l-18.382-10.613c-1.129-.651-.987-1.789.316-2.541l17.749-10.247a4.892,4.892,0,0,1,4.4-.183l18.382,10.613c1.128.651.987,1.789-.316,2.541l-17.749,10.248A4.895,4.895,0,0,1,439.853,289.659Z" transform="translate(-420.71 -265.634)" fill="#d4ecff"/>
          <path id="Trazado_139514" data-name="Trazado 139514" d="M462,286.99l-17.749,10.248a4.893,4.893,0,0,1-4.4.183l-18.382-10.613a1.7,1.7,0,0,1-.563-.5,1.182,1.182,0,0,0,.563,1.747l18.382,10.613a4.895,4.895,0,0,0,4.4-.183L462,288.239c1.012-.585,1.32-1.4.879-2.042A2.461,2.461,0,0,1,462,286.99Z" transform="translate(-420.71 -274.645)" fill="#fff"/>
          <g id="Grupo_91392" data-name="Grupo 91392" transform="translate(34.12 16.96)">
            <path id="Trazado_139515" data-name="Trazado 139515" d="M482.927,301.262a1.641,1.641,0,0,1-.743,1.286c-.41.237-.742.045-.742-.429a1.64,1.64,0,0,1,.742-1.286C482.594,300.6,482.927,300.788,482.927,301.262Z" transform="translate(-481.442 -297.973)" fill="#d4ecff"/>
            <path id="Trazado_139516" data-name="Trazado 139516" d="M487.178,298.807a1.64,1.64,0,0,1-.742,1.286c-.41.237-.743.045-.743-.429a1.642,1.642,0,0,1,.743-1.286C486.846,298.141,487.178,298.333,487.178,298.807Z" transform="translate(-483.305 -296.897)" fill="#d4ecff"/>
            <path id="Trazado_139517" data-name="Trazado 139517" d="M491.43,296.352a1.64,1.64,0,0,1-.742,1.286c-.41.237-.743.045-.743-.429a1.642,1.642,0,0,1,.743-1.286C491.1,295.687,491.43,295.879,491.43,296.352Z" transform="translate(-485.168 -295.822)" fill="#d4ecff"/>
          </g>
          <g id="Grupo_91393" data-name="Grupo 91393" transform="translate(11.272 6.202)">
            <path id="Trazado_139518" data-name="Trazado 139518" d="M449.732,287.916l-8.6-4.966c-.528-.3-.462-.837.148-1.189l8.306-4.8a2.291,2.291,0,0,1,2.06-.085l8.6,4.966c.528.3.462.837-.148,1.189l-8.306,4.8A2.291,2.291,0,0,1,449.732,287.916Z" transform="translate(-440.773 -276.674)" fill="#5793ce"/>
            <path id="Trazado_139519" data-name="Trazado 139519" d="M457.218,288.069l-1.19-.687c-.073-.042-.063-.116.021-.164l1.149-.663a.316.316,0,0,1,.285-.012l1.19.687c.073.042.064.116-.021.165l-1.149.664A.316.316,0,0,1,457.218,288.069Z" transform="translate(-447.436 -280.986)" fill="#d4ecff"/>
            <path id="Trazado_139520" data-name="Trazado 139520" d="M441.13,282.95l.024.014c.04-.029.078-.058.124-.085l8.306-4.8a2.287,2.287,0,0,1,2.06-.085l8.578,4.952c.487-.348.512-.822.024-1.1l-8.6-4.966a2.291,2.291,0,0,0-2.06.085l-8.306,4.8C440.668,282.112,440.6,282.645,441.13,282.95Z" transform="translate(-440.773 -276.674)" fill="#396caa"/>
          </g>
        </g>
      </g>
      <path id="Trazado_139521" data-name="Trazado 139521" d="M407.362,105.72c0,.319-.224.448-.5.289a1.1,1.1,0,0,1-.5-.866c0-.319.224-.448.5-.288A1.1,1.1,0,0,1,407.362,105.72Z" transform="translate(-63.491 -35.264)" fill="#d4ecff"/>
      <path id="Trazado_139522" data-name="Trazado 139522" d="M415.2,110.47c0,.319-.224.448-.5.289a1.106,1.106,0,0,1-.5-.866c0-.319.224-.448.5-.288A1.1,1.1,0,0,1,415.2,110.47Z" transform="translate(-66.924 -37.346)" fill="#d4ecff"/>
      <path id="Trazado_139523" data-name="Trazado 139523" d="M423.029,115.22c0,.319-.224.448-.5.289a1.106,1.106,0,0,1-.5-.866c0-.319.224-.448.5-.288A1.105,1.105,0,0,1,423.029,115.22Z" transform="translate(-70.356 -39.427)" fill="#d4ecff"/>
      <path id="Trazado_139524" data-name="Trazado 139524" d="M430.862,119.97c0,.319-.224.448-.5.289a1.1,1.1,0,0,1-.5-.866c0-.319.224-.448.5-.288A1.1,1.1,0,0,1,430.862,119.97Z" transform="translate(-73.788 -41.509)" fill="#d4ecff"/>
    </g>
  </g>
</svg>
