<svg xmlns="http://www.w3.org/2000/svg" width="335" height="190.335" viewBox="0 0 335 190.335">
  <g id="_17" data-name="17" transform="translate(6916 8521)">
    <path id="Rectángulo_35361" data-name="Rectángulo 35361" d="M0,0H178A157,157,0,0,1,335,157v0a0,0,0,0,1,0,0H0a0,0,0,0,1,0,0V0A0,0,0,0,1,0,0Z" transform="translate(-6916 -8496)" fill="#f3f9ff"/>
    <g id="Grupo_91603" data-name="Grupo 91603" transform="translate(-7170.622 -8564.233)">
      <g id="Grupo_91589" data-name="Grupo 91589" transform="translate(414.474 81.478)">
        <path id="Trazado_140035" data-name="Trazado 140035" d="M505.175,143.289a.612.612,0,0,1-.141-.016.625.625,0,0,1-.469-.749l6.094-26.459a.625.625,0,1,1,1.218.281L505.783,142.8A.625.625,0,0,1,505.175,143.289Z" transform="translate(-488.348 -108.618)" fill="#5793ce"/>
        <path id="Trazado_140036" data-name="Trazado 140036" d="M492.212,140.3a.616.616,0,0,1-.141-.016.625.625,0,0,1-.469-.749L497.7,113.08a.625.625,0,0,1,1.219.281l-6.094,26.458A.626.626,0,0,1,492.212,140.3Z" transform="translate(-483.485 -107.498)" fill="#5793ce"/>
        <path id="Trazado_140037" data-name="Trazado 140037" d="M479.248,137.318a.652.652,0,0,1-.141-.016.625.625,0,0,1-.469-.75l6.094-26.458a.625.625,0,0,1,1.219.281l-6.094,26.459A.625.625,0,0,1,479.248,137.318Z" transform="translate(-478.622 -106.378)" fill="#5793ce"/>
        <g id="Grupo_91578" data-name="Grupo 91578" transform="translate(1.98 0)">
          <g id="Grupo_91577" data-name="Grupo 91577">
            <g id="Grupo_91576" data-name="Grupo 91576">
              <g id="Grupo_91574" data-name="Grupo 91574" transform="translate(0 10.047)">
                <rect id="Rectángulo_35368" data-name="Rectángulo 35368" width="3.35" height="7.229" transform="translate(1.665 0) rotate(13.191)" fill="#5793ce"/>
                <path id="Trazado_140038" data-name="Trazado 140038" d="M484.434,132.719a2.618,2.618,0,0,1-2.306-.541.722.722,0,0,1,.312-1.332,2.618,2.618,0,0,1,2.306.54A.722.722,0,0,1,484.434,132.719Z" transform="translate(-481.791 -124.362)" fill="#5793ce"/>
              </g>
              <g id="Grupo_91575" data-name="Grupo 91575" transform="translate(0.341)">
                <rect id="Rectángulo_35369" data-name="Rectángulo 35369" width="5.429" height="11.339" transform="matrix(0.974, 0.228, -0.228, 0.974, 2.612, 0)" fill="#5793ce"/>
                <path id="Trazado_140039" data-name="Trazado 140039" d="M483.686,122.33l-.559,2.382a4.333,4.333,0,0,0,3.262.764l.559-2.382A4.335,4.335,0,0,0,483.686,122.33Z" transform="translate(-482.633 -111.125)" fill="#396caa"/>
                <path id="Trazado_140040" data-name="Trazado 140040" d="M486.619,123.624a4.241,4.241,0,0,1-3.737-.876,1.17,1.17,0,0,1,.505-2.158,4.241,4.241,0,0,1,3.737.876A1.17,1.17,0,0,1,486.619,123.624Z" transform="translate(-482.336 -110.449)" fill="#5793ce"/>
              </g>
            </g>
          </g>
          <path id="Trazado_140041" data-name="Trazado 140041" d="M483.35,130.491a.339.339,0,0,1-.614.186,1.228,1.228,0,0,1-.322-1.063c.081-.346.356-.429.614-.186A1.228,1.228,0,0,1,483.35,130.491Z" transform="translate(-482.016 -113.76)" fill="#d4ecff"/>
        </g>
        <g id="Grupo_91583" data-name="Grupo 91583" transform="translate(9.491 4.472)">
          <g id="Grupo_91582" data-name="Grupo 91582" transform="translate(0 0)">
            <g id="Grupo_91581" data-name="Grupo 91581">
              <g id="Grupo_91579" data-name="Grupo 91579" transform="translate(0 10.047)">
                <rect id="Rectángulo_35370" data-name="Rectángulo 35370" width="3.35" height="7.229" transform="translate(1.665 0) rotate(13.191)" fill="#5793ce"/>
                <path id="Trazado_140042" data-name="Trazado 140042" d="M496.454,139.876a2.616,2.616,0,0,1-2.306-.54A.722.722,0,0,1,494.46,138a2.62,2.62,0,0,1,2.306.541A.722.722,0,0,1,496.454,139.876Z" transform="translate(-493.811 -131.519)" fill="#5793ce"/>
              </g>
              <g id="Grupo_91580" data-name="Grupo 91580" transform="translate(0.341)">
                <rect id="Rectángulo_35371" data-name="Rectángulo 35371" width="5.429" height="11.339" transform="translate(2.612 0) rotate(13.192)" fill="#5793ce"/>
                <path id="Trazado_140043" data-name="Trazado 140043" d="M495.706,129.488l-.559,2.382a4.333,4.333,0,0,0,3.262.765l.559-2.382A4.335,4.335,0,0,0,495.706,129.488Z" transform="translate(-494.653 -118.283)" fill="#396caa"/>
                <path id="Trazado_140044" data-name="Trazado 140044" d="M498.639,130.782a4.245,4.245,0,0,1-3.737-.876,1.17,1.17,0,0,1,.506-2.158,4.243,4.243,0,0,1,3.737.876A1.17,1.17,0,0,1,498.639,130.782Z" transform="translate(-494.356 -117.606)" fill="#5793ce"/>
              </g>
            </g>
          </g>
          <path id="Trazado_140045" data-name="Trazado 140045" d="M495.37,137.649a.339.339,0,0,1-.614.186,1.229,1.229,0,0,1-.322-1.064.339.339,0,0,1,.614-.186A1.229,1.229,0,0,1,495.37,137.649Z" transform="translate(-494.036 -120.918)" fill="#d4ecff"/>
        </g>
        <g id="Grupo_91588" data-name="Grupo 91588" transform="translate(17.086 8.91)">
          <g id="Grupo_91587" data-name="Grupo 91587" transform="translate(0 0)">
            <g id="Grupo_91586" data-name="Grupo 91586">
              <g id="Grupo_91584" data-name="Grupo 91584" transform="translate(0 10.047)">
                <rect id="Rectángulo_35372" data-name="Rectángulo 35372" width="3.35" height="7.229" transform="translate(1.665) rotate(13.191)" fill="#5793ce"/>
                <path id="Trazado_140046" data-name="Trazado 140046" d="M508.608,146.979a2.618,2.618,0,0,1-2.306-.541.722.722,0,0,1,.312-1.332,2.618,2.618,0,0,1,2.306.54A.722.722,0,0,1,508.608,146.979Z" transform="translate(-505.965 -138.622)" fill="#5793ce"/>
              </g>
              <g id="Grupo_91585" data-name="Grupo 91585" transform="translate(0.34)">
                <rect id="Rectángulo_35373" data-name="Rectángulo 35373" width="5.429" height="11.339" transform="translate(2.612 0) rotate(13.192)" fill="#5793ce"/>
                <path id="Trazado_140047" data-name="Trazado 140047" d="M507.86,136.59l-.558,2.382a4.335,4.335,0,0,0,3.262.765l.558-2.383A4.334,4.334,0,0,0,507.86,136.59Z" transform="translate(-506.807 -125.385)" fill="#396caa"/>
                <path id="Trazado_140048" data-name="Trazado 140048" d="M510.793,137.884a4.242,4.242,0,0,1-3.737-.876,1.17,1.17,0,0,1,.506-2.158,4.241,4.241,0,0,1,3.737.876A1.17,1.17,0,0,1,510.793,137.884Z" transform="translate(-506.51 -124.708)" fill="#5793ce"/>
              </g>
            </g>
          </g>
          <path id="Trazado_140049" data-name="Trazado 140049" d="M507.524,144.751a.339.339,0,0,1-.614.186,1.225,1.225,0,0,1-.321-1.064.338.338,0,0,1,.614-.186A1.229,1.229,0,0,1,507.524,144.751Z" transform="translate(-506.191 -128.02)" fill="#d4ecff"/>
        </g>
      </g>
      <g id="Grupo_91595" data-name="Grupo 91595" transform="translate(307.622 82.717)">
        <g id="Grupo_91591" data-name="Grupo 91591" transform="translate(0 0)">
          <path id="Trazado_140050" data-name="Trazado 140050" d="M381.581,300.823l-72.573-41.9c-2.053-1.185-1.8-3.256.575-4.624L359,225.777c2.371-1.369,5.957-1.517,8.01-.332l72.573,41.9c2.053,1.185,1.8,3.256-.576,4.625L389.59,300.491C387.22,301.859,383.634,302.008,381.581,300.823Z" transform="translate(-307.622 -150.772)" fill="#b2d3ea"/>
          <path id="Trazado_140051" data-name="Trazado 140051" d="M493.5,148.77l-72.573-41.9a2.932,2.932,0,0,0-2.459-.3l0-.008-.132.05-.032.012-2.623,1,2.354,1.152c-.011.044-.024.084-.034.128l-11.821,53.809c-.591,2.693.593,5.836,2.646,7.022l70.828,40.892-.252,3,2.866-1.11a4.028,4.028,0,0,0,2.053-2.92l11.821-53.808C496.733,153.1,495.549,149.955,493.5,148.77Z" transform="translate(-344.538 -106.422)" fill="#173d7a"/>
          <path id="Trazado_140052" data-name="Trazado 140052" d="M496.007,148.77l-72.573-41.9a2.932,2.932,0,0,0-2.459-.3l0-.008-.132.05-.032.012-2.623,1,2.354,1.152c-.011.044-.024.084-.034.128l-7.791,35.463,35.509,27.665L498.3,151.662A5.639,5.639,0,0,0,496.007,148.77Z" transform="translate(-347.049 -106.422)" fill="#396caa"/>
          <path id="Trazado_140053" data-name="Trazado 140053" d="M538.351,182.7l5.524-2.352a6.921,6.921,0,0,0-2.238-5.532l-8.745,3.679Z" transform="translate(-392.129 -132.078)" fill="#274f89"/>
          <path id="Trazado_140054" data-name="Trazado 140054" d="M474.168,213.953l-72.573-41.9c-2.053-1.185-3.238-4.329-2.646-7.022l11.821-53.808c.592-2.693,2.736-3.915,4.789-2.73l72.573,41.9c2.053,1.185,3.237,4.329,2.646,7.022l-11.82,53.809C478.364,213.916,476.22,215.138,474.168,213.953Z" transform="translate(-341.825 -107.029)" fill="#d4ecff"/>
          <path id="Trazado_140055" data-name="Trazado 140055" d="M474.386,212.32l-68.253-39.387c-1.879-1.085-2.963-3.962-2.421-6.425l10.817-49.239c.541-2.464,2.5-3.582,4.382-2.5l68.254,39.386c1.878,1.085,2.962,3.962,2.421,6.426l-10.818,49.239C478.226,212.287,476.265,213.405,474.386,212.32Z" transform="translate(-343.617 -109.398)" fill="#fff"/>
          <path id="Trazado_140056" data-name="Trazado 140056" d="M474.386,212.32l-68.253-39.387c-1.879-1.085-2.963-3.962-2.421-6.425l10.817-49.239c.541-2.464,2.5-3.582,4.382-2.5l68.254,39.386c1.878,1.085,2.962,3.962,2.421,6.426l-10.818,49.239C478.226,212.287,476.265,213.405,474.386,212.32Z" transform="translate(-343.617 -109.398)" fill="#fff"/>
          <path id="Trazado_140057" data-name="Trazado 140057" d="M440.968,257l-9.92-1.31-64.037-36.972c-2.053-1.185-5.639-1.037-8.01.332l-45.376,26.189-6-.792v3.4h.006a2.336,2.336,0,0,0,1.377,2.1l72.573,41.9c2.053,1.185,5.639,1.037,8.009-.332L439.009,263c1.334-.77,2-1.762,1.96-2.694h0Z" transform="translate(-307.624 -148.246)" fill="#173d7a"/>
          <path id="Trazado_140058" data-name="Trazado 140058" d="M392.853,241.494l-4.55-2.626h-50.02l-24.659,14.227-6-.792v3.4h.006a2.336,2.336,0,0,0,1.377,2.1l72.573,41.9a7.511,7.511,0,0,0,4.133.775Z" transform="translate(-307.624 -156.107)" fill="#396caa"/>
          <path id="Trazado_140059" data-name="Trazado 140059" d="M310.289,260.72l-2.662-.351v3.4h.006a2.336,2.336,0,0,0,1.377,2.1l1.279.739Z" transform="translate(-307.624 -164.173)" fill="#5793ce"/>
          <path id="Trazado_140060" data-name="Trazado 140060" d="M427.152,331.968a9.3,9.3,0,0,0,6.805-.422v-7.591h-6.805Z" transform="translate(-352.462 -188.026)" fill="#274f89"/>
          <path id="Trazado_140061" data-name="Trazado 140061" d="M381.581,285.062l-72.573-41.9c-2.053-1.185-1.8-3.256.575-4.625L359,210.016c2.371-1.368,5.957-1.517,8.01-.332l72.573,41.9c2.053,1.185,1.8,3.256-.576,4.624L389.59,284.73C387.22,286.1,383.634,286.247,381.581,285.062Z" transform="translate(-307.622 -144.859)" fill="#d4ecff"/>
          <path id="Trazado_140062" data-name="Trazado 140062" d="M439.01,273.96l-49.417,28.521c-2.371,1.368-5.956,1.517-8.009.332l-72.573-41.9a2.7,2.7,0,0,1-1.276-1.4,2.2,2.2,0,0,0,1.276,2.639l72.573,41.9c2.053,1.185,5.639,1.037,8.009-.332L439.01,275.2c1.593-.92,2.228-2.156,1.851-3.228A3.858,3.858,0,0,1,439.01,273.96Z" transform="translate(-307.625 -163.853)" fill="#fff"/>
          <g id="Grupo_91590" data-name="Grupo 91590" transform="translate(28.79 66.606)">
            <path id="Trazado_140063" data-name="Trazado 140063" d="M357.159,238.616l-3.284-1.9c-.264-.152-.231-.418.074-.594l3.876-2.238a1.143,1.143,0,0,1,1.029-.042l3.284,1.9c.264.152.231.418-.074.594l-3.876,2.238A1.145,1.145,0,0,1,357.159,238.616Z" transform="translate(-353.697 -220.79)" fill="#173d7a"/>
            <path id="Trazado_140064" data-name="Trazado 140064" d="M365.274,243.3l-3.284-1.9c-.264-.152-.231-.418.074-.594l3.876-2.238a1.143,1.143,0,0,1,1.029-.043l3.284,1.9c.264.152.231.419-.074.594l-3.876,2.238A1.143,1.143,0,0,1,365.274,243.3Z" transform="translate(-356.741 -222.548)" fill="#173d7a"/>
            <path id="Trazado_140065" data-name="Trazado 140065" d="M373.389,247.987l-3.284-1.9c-.264-.152-.231-.418.074-.594l3.875-2.238a1.143,1.143,0,0,1,1.029-.042l3.284,1.9c.264.152.231.418-.074.594l-3.876,2.238A1.143,1.143,0,0,1,373.389,247.987Z" transform="translate(-359.786 -224.306)" fill="#173d7a"/>
            <path id="Trazado_140066" data-name="Trazado 140066" d="M384.613,244.333l-3.284-1.9c-.264-.152-.231-.418.074-.594l3.254-1.878a1.141,1.141,0,0,1,1.029-.042l3.284,1.9c.264.152.231.419-.074.594l-3.254,1.878A1.143,1.143,0,0,1,384.613,244.333Z" transform="translate(-363.996 -223.07)" fill="#173d7a"/>
            <path id="Trazado_140067" data-name="Trazado 140067" d="M392.728,249.019l-3.284-1.9c-.263-.152-.231-.419.074-.594l3.253-1.878a1.144,1.144,0,0,1,1.029-.043l3.283,1.9c.264.152.231.418-.074.594l-3.253,1.878A1.145,1.145,0,0,1,392.728,249.019Z" transform="translate(-367.041 -224.827)" fill="#173d7a"/>
            <path id="Trazado_140068" data-name="Trazado 140068" d="M400.844,253.7l-3.284-1.9c-.264-.152-.231-.418.074-.594l3.254-1.879a1.143,1.143,0,0,1,1.029-.042l3.284,1.9c.264.152.231.418-.074.594l-3.254,1.878A1.145,1.145,0,0,1,400.844,253.7Z" transform="translate(-370.085 -226.585)" fill="#173d7a"/>
            <path id="Trazado_140069" data-name="Trazado 140069" d="M408.959,258.389l-3.284-1.9c-.264-.152-.231-.418.074-.594L409,254.022a1.143,1.143,0,0,1,1.029-.043l3.284,1.9c.264.152.231.419-.074.594l-3.254,1.878A1.143,1.143,0,0,1,408.959,258.389Z" transform="translate(-373.129 -228.343)" fill="#173d7a"/>
            <path id="Trazado_140070" data-name="Trazado 140070" d="M417.074,263.074l-3.284-1.9c-.264-.152-.231-.418.074-.594l3.254-1.878a1.143,1.143,0,0,1,1.029-.043l3.284,1.9c.264.152.231.418-.074.594l-3.254,1.878A1.141,1.141,0,0,1,417.074,263.074Z" transform="translate(-376.173 -230.1)" fill="#173d7a"/>
            <path id="Trazado_140071" data-name="Trazado 140071" d="M425.189,267.76l-3.284-1.9c-.264-.152-.231-.418.074-.594l3.253-1.878a1.144,1.144,0,0,1,1.029-.043l3.283,1.9c.264.152.231.418-.074.594l-3.254,1.878A1.145,1.145,0,0,1,425.189,267.76Z" transform="translate(-379.218 -231.858)" fill="#173d7a"/>
            <path id="Trazado_140072" data-name="Trazado 140072" d="M433.3,272.445l-3.284-1.9c-.264-.152-.231-.418.074-.594l3.254-1.878a1.143,1.143,0,0,1,1.029-.043l3.284,1.9c.264.152.231.419-.074.594l-3.254,1.878A1.143,1.143,0,0,1,433.3,272.445Z" transform="translate(-382.262 -233.616)" fill="#173d7a"/>
            <path id="Trazado_140073" data-name="Trazado 140073" d="M441.42,277.131l-3.284-1.9c-.264-.153-.231-.418.074-.594l3.254-1.878a1.143,1.143,0,0,1,1.029-.042l3.284,1.9c.264.152.231.418-.074.594l-3.254,1.878A1.143,1.143,0,0,1,441.42,277.131Z" transform="translate(-385.307 -235.373)" fill="#173d7a"/>
            <path id="Trazado_140074" data-name="Trazado 140074" d="M449.535,281.816l-3.284-1.9c-.264-.152-.231-.418.074-.594l3.254-1.878a1.145,1.145,0,0,1,1.029-.042l3.284,1.9c.264.152.231.418-.074.594l-3.254,1.879A1.143,1.143,0,0,1,449.535,281.816Z" transform="translate(-388.351 -237.131)" fill="#173d7a"/>
            <path id="Trazado_140075" data-name="Trazado 140075" d="M457.65,286.5l-3.284-1.9c-.264-.152-.231-.418.074-.594l3.253-1.878a1.141,1.141,0,0,1,1.029-.042l3.284,1.9c.264.153.231.418-.074.594l-3.254,1.878A1.143,1.143,0,0,1,457.65,286.5Z" transform="translate(-391.395 -238.889)" fill="#173d7a"/>
            <path id="Trazado_140076" data-name="Trazado 140076" d="M396.57,242.115l-3.284-1.9c-.263-.152-.231-.418.074-.594l3.253-1.878a1.144,1.144,0,0,1,1.029-.043l3.284,1.9c.263.152.231.418-.074.594l-3.253,1.878A1.144,1.144,0,0,1,396.57,242.115Z" transform="translate(-368.482 -222.238)" fill="#396caa"/>
            <path id="Trazado_140077" data-name="Trazado 140077" d="M388.334,237.36l-3.284-1.9c-.264-.152-.231-.418.074-.594l3.254-1.878a1.143,1.143,0,0,1,1.029-.042l3.284,1.9c.264.152.231.418-.074.594l-3.254,1.879A1.145,1.145,0,0,1,388.334,237.36Z" transform="translate(-365.392 -220.454)" fill="#396caa"/>
            <path id="Trazado_140078" data-name="Trazado 140078" d="M377.809,231.284l-7.072-4.083c-.264-.152-.231-.418.074-.594l3.253-1.878a1.144,1.144,0,0,1,1.029-.043l7.072,4.083c.264.152.231.418-.074.594l-3.254,1.878A1.143,1.143,0,0,1,377.809,231.284Z" transform="translate(-360.023 -217.354)" fill="#173d7a"/>
            <path id="Trazado_140079" data-name="Trazado 140079" d="M384.376,225.953l-5.739-3.314c-.264-.152-.231-.418.074-.594l3.254-1.878a1.143,1.143,0,0,1,1.029-.042l5.739,3.313c.264.152.231.418-.074.594l-3.254,1.878A1.143,1.143,0,0,1,384.376,225.953Z" transform="translate(-362.986 -215.643)" fill="#173d7a"/>
            <path id="Trazado_140080" data-name="Trazado 140080" d="M404.686,246.8l-3.284-1.9c-.264-.152-.231-.418.074-.594l3.254-1.878a1.141,1.141,0,0,1,1.029-.043l3.284,1.9c.264.152.231.419-.074.594l-3.254,1.878A1.143,1.143,0,0,1,404.686,246.8Z" transform="translate(-371.526 -223.995)" fill="#396caa"/>
            <path id="Trazado_140081" data-name="Trazado 140081" d="M412.8,251.486l-3.284-1.9c-.264-.152-.231-.418.074-.594l3.254-1.878a1.143,1.143,0,0,1,1.029-.043l3.284,1.9c.264.152.231.418-.074.594l-3.254,1.878A1.143,1.143,0,0,1,412.8,251.486Z" transform="translate(-374.57 -225.753)" fill="#173d7a"/>
            <path id="Trazado_140082" data-name="Trazado 140082" d="M420.916,256.171l-3.284-1.9c-.264-.152-.231-.418.074-.594l3.254-1.879a1.145,1.145,0,0,1,1.029-.042l3.284,1.9c.264.152.231.418-.074.594l-3.254,1.878A1.143,1.143,0,0,1,420.916,256.171Z" transform="translate(-377.615 -227.511)" fill="#173d7a"/>
            <path id="Trazado_140083" data-name="Trazado 140083" d="M429.031,260.856l-3.284-1.9c-.263-.152-.231-.418.074-.594l3.253-1.878a1.142,1.142,0,0,1,1.029-.042l3.284,1.9c.263.152.231.419-.074.594l-3.253,1.878A1.144,1.144,0,0,1,429.031,260.856Z" transform="translate(-380.659 -229.268)" fill="#173d7a"/>
            <path id="Trazado_140084" data-name="Trazado 140084" d="M437.147,265.542l-3.284-1.9c-.264-.152-.231-.418.074-.594l3.254-1.878a1.143,1.143,0,0,1,1.029-.042l3.284,1.9c.264.152.231.418-.074.594l-3.254,1.878A1.143,1.143,0,0,1,437.147,265.542Z" transform="translate(-383.704 -231.026)" fill="#173d7a"/>
            <path id="Trazado_140085" data-name="Trazado 140085" d="M445.262,270.227l-3.284-1.9c-.264-.152-.231-.418.074-.594l3.254-1.878a1.143,1.143,0,0,1,1.029-.043l3.284,1.9c.264.152.231.418-.074.594l-3.254,1.878A1.143,1.143,0,0,1,445.262,270.227Z" transform="translate(-386.748 -232.784)" fill="#173d7a"/>
            <path id="Trazado_140086" data-name="Trazado 140086" d="M453.377,274.913l-3.284-1.9c-.264-.152-.231-.418.074-.594l3.254-1.878a1.143,1.143,0,0,1,1.029-.043l3.284,1.9c.264.152.231.418-.074.594l-3.254,1.878A1.143,1.143,0,0,1,453.377,274.913Z" transform="translate(-389.792 -234.541)" fill="#173d7a"/>
            <path id="Trazado_140087" data-name="Trazado 140087" d="M461.492,279.6l-3.284-1.9c-.263-.152-.231-.418.074-.594l3.253-1.878a1.144,1.144,0,0,1,1.029-.043l3.284,1.9c.263.152.231.418-.074.594l-3.253,1.878A1.145,1.145,0,0,1,461.492,279.6Z" transform="translate(-392.836 -236.299)" fill="#173d7a"/>
            <path id="Trazado_140088" data-name="Trazado 140088" d="M469.608,284.283l-3.284-1.9c-.264-.152-.231-.418.074-.594l3.254-1.878a1.143,1.143,0,0,1,1.029-.043l3.284,1.9c.264.152.231.418-.074.594l-3.254,1.878A1.143,1.143,0,0,1,469.608,284.283Z" transform="translate(-395.881 -238.056)" fill="#173d7a"/>
            <path id="Trazado_140089" data-name="Trazado 140089" d="M481.7,291.268l-7.165-4.137c-.264-.153-.231-.418.074-.594l3.254-1.878a1.143,1.143,0,0,1,1.029-.042l7.165,4.137c.264.152.231.418-.074.594l-3.254,1.878A1.145,1.145,0,0,1,481.7,291.268Z" transform="translate(-398.963 -239.836)" fill="#173d7a"/>
            <path id="Trazado_140090" data-name="Trazado 140090" d="M498.175,282.533l-6.047-3.492c-.263-.152-.231-.418.074-.594l3.253-1.878a1.144,1.144,0,0,1,1.029-.043l6.047,3.491c.264.152.231.418-.074.594L499.2,282.49A1.143,1.143,0,0,1,498.175,282.533Z" transform="translate(-405.561 -236.801)" fill="#173d7a"/>
            <path id="Trazado_140091" data-name="Trazado 140091" d="M418.9,245.884l-3.284-1.9c-.264-.152-.231-.419.074-.594l3.254-1.878a1.143,1.143,0,0,1,1.029-.042l3.284,1.9c.264.152.231.418-.074.594l-3.254,1.878A1.143,1.143,0,0,1,418.9,245.884Z" transform="translate(-376.857 -223.651)" fill="#173d7a"/>
            <path id="Trazado_140092" data-name="Trazado 140092" d="M410.58,241.082l-3.284-1.9c-.264-.152-.231-.418.074-.594l3.254-1.878a1.143,1.143,0,0,1,1.029-.042l3.284,1.9c.264.152.231.418-.074.594l-3.254,1.878A1.143,1.143,0,0,1,410.58,241.082Z" transform="translate(-373.737 -221.85)" fill="#173d7a"/>
            <path id="Trazado_140093" data-name="Trazado 140093" d="M402.263,236.28l-3.284-1.9c-.264-.152-.231-.418.074-.594l3.254-1.878a1.145,1.145,0,0,1,1.029-.042l3.284,1.9c.264.152.231.418-.074.594l-3.254,1.879A1.145,1.145,0,0,1,402.263,236.28Z" transform="translate(-370.617 -220.049)" fill="#396caa"/>
            <path id="Trazado_140094" data-name="Trazado 140094" d="M393.946,231.478l-3.284-1.9c-.264-.152-.231-.418.074-.594l3.254-1.879a1.145,1.145,0,0,1,1.029-.042l3.284,1.9c.264.152.231.418-.074.594l-3.254,1.879A1.143,1.143,0,0,1,393.946,231.478Z" transform="translate(-367.497 -218.247)" fill="#173d7a"/>
            <path id="Trazado_140095" data-name="Trazado 140095" d="M427.012,250.569l-3.283-1.9c-.264-.152-.231-.418.074-.594l3.254-1.879a1.145,1.145,0,0,1,1.029-.042l3.284,1.9c.264.152.231.418-.074.594l-3.253,1.879A1.146,1.146,0,0,1,427.012,250.569Z" transform="translate(-379.902 -225.409)" fill="#173d7a"/>
            <path id="Trazado_140096" data-name="Trazado 140096" d="M435.128,255.254l-3.284-1.9c-.264-.152-.231-.418.074-.594l3.254-1.878a1.143,1.143,0,0,1,1.029-.042l3.284,1.9c.264.152.231.418-.074.594l-3.254,1.878A1.143,1.143,0,0,1,435.128,255.254Z" transform="translate(-382.946 -227.167)" fill="#173d7a"/>
            <path id="Trazado_140097" data-name="Trazado 140097" d="M443.243,259.94l-3.284-1.9c-.264-.152-.231-.418.074-.594l3.254-1.878a1.143,1.143,0,0,1,1.029-.042l3.284,1.9c.264.152.231.418-.074.594l-3.254,1.878A1.143,1.143,0,0,1,443.243,259.94Z" transform="translate(-385.99 -228.924)" fill="#173d7a"/>
            <path id="Trazado_140098" data-name="Trazado 140098" d="M451.358,264.625l-3.284-1.9c-.264-.152-.231-.418.074-.594l3.254-1.879a1.145,1.145,0,0,1,1.029-.043l3.284,1.9c.264.152.231.418-.074.594l-3.254,1.878A1.145,1.145,0,0,1,451.358,264.625Z" transform="translate(-389.035 -230.682)" fill="#173d7a"/>
            <path id="Trazado_140099" data-name="Trazado 140099" d="M459.473,269.31l-3.284-1.9c-.263-.152-.231-.418.074-.594l3.253-1.878a1.144,1.144,0,0,1,1.029-.043l3.284,1.9c.263.152.231.418-.074.594l-3.253,1.878A1.144,1.144,0,0,1,459.473,269.31Z" transform="translate(-392.079 -232.44)" fill="#173d7a"/>
            <path id="Trazado_140100" data-name="Trazado 140100" d="M467.589,274l-3.284-1.9c-.264-.152-.231-.418.074-.594l3.254-1.878a1.143,1.143,0,0,1,1.029-.042l3.284,1.9c.264.152.231.418-.074.594l-3.254,1.878A1.143,1.143,0,0,1,467.589,274Z" transform="translate(-395.124 -234.197)" fill="#173d7a"/>
            <path id="Trazado_140101" data-name="Trazado 140101" d="M475.7,278.681l-3.284-1.9c-.264-.152-.231-.418.074-.594l3.254-1.879a1.145,1.145,0,0,1,1.029-.042l3.284,1.9c.264.152.231.418-.074.594l-3.254,1.878A1.143,1.143,0,0,1,475.7,278.681Z" transform="translate(-398.168 -235.955)" fill="#173d7a"/>
            <path id="Trazado_140102" data-name="Trazado 140102" d="M483.819,283.366l-3.284-1.9c-.264-.152-.231-.418.074-.594L483.863,279a1.145,1.145,0,0,1,1.029-.043l3.284,1.9c.264.152.231.419-.074.594l-3.254,1.878A1.143,1.143,0,0,1,483.819,283.366Z" transform="translate(-401.212 -237.713)" fill="#173d7a"/>
            <path id="Trazado_140103" data-name="Trazado 140103" d="M491.934,288.052l-3.284-1.9c-.263-.152-.231-.418.074-.594l3.253-1.878a1.144,1.144,0,0,1,1.029-.042l3.284,1.9c.263.152.231.418-.074.594l-3.253,1.878A1.144,1.144,0,0,1,491.934,288.052Z" transform="translate(-404.256 -239.47)" fill="#173d7a"/>
            <path id="Trazado_140104" data-name="Trazado 140104" d="M414.624,234.3l-3.284-1.9c-.264-.152-.231-.418.074-.594l3.254-1.878a1.143,1.143,0,0,1,1.029-.042l3.284,1.9c.264.152.231.418-.074.594l-3.254,1.878A1.143,1.143,0,0,1,414.624,234.3Z" transform="translate(-375.254 -219.304)" fill="#173d7a"/>
            <path id="Trazado_140105" data-name="Trazado 140105" d="M406.549,229.633l-3.284-1.9c-.264-.152-.231-.418.074-.594l3.254-1.878a1.143,1.143,0,0,1,1.029-.043l3.284,1.9c.264.152.231.418-.074.594l-3.254,1.878A1.143,1.143,0,0,1,406.549,229.633Z" transform="translate(-372.225 -217.555)" fill="#173d7a"/>
            <path id="Trazado_140106" data-name="Trazado 140106" d="M398.474,224.971l-3.284-1.9c-.264-.152-.231-.418.074-.594l3.253-1.878a1.143,1.143,0,0,1,1.029-.043l3.284,1.9c.264.152.231.418-.074.594l-3.254,1.878A1.143,1.143,0,0,1,398.474,224.971Z" transform="translate(-369.196 -215.806)" fill="#173d7a"/>
            <path id="Trazado_140107" data-name="Trazado 140107" d="M390.4,220.309l-3.284-1.9c-.263-.152-.231-.418.074-.594l3.253-1.878a1.144,1.144,0,0,1,1.029-.042l3.284,1.9c.263.152.231.418-.074.594l-3.253,1.878A1.144,1.144,0,0,1,390.4,220.309Z" transform="translate(-366.167 -214.057)" fill="#173d7a"/>
            <path id="Trazado_140108" data-name="Trazado 140108" d="M398.7,216.27l-3.284-1.9c-.264-.152-.231-.418.074-.594l1.075-.621a1.145,1.145,0,0,1,1.029-.043l3.284,1.9c.264.152.231.418-.074.594l-1.075.621A1.143,1.143,0,0,1,398.7,216.27Z" transform="translate(-369.282 -213.014)" fill="#173d7a"/>
            <path id="Trazado_140109" data-name="Trazado 140109" d="M409.241,222.354l-3.284-1.9c-.264-.152-.231-.419.074-.594l1.075-.621a1.143,1.143,0,0,1,1.029-.043l3.284,1.9c.264.152.231.418-.074.594l-1.075.621A1.143,1.143,0,0,1,409.241,222.354Z" transform="translate(-373.235 -215.296)" fill="#173d7a"/>
            <path id="Trazado_140110" data-name="Trazado 140110" d="M417.282,227,414,225.1c-.264-.152-.231-.418.074-.594l1.075-.621a1.143,1.143,0,0,1,1.029-.043l3.284,1.9c.264.152.231.418-.074.594l-1.075.621A1.143,1.143,0,0,1,417.282,227Z" transform="translate(-376.251 -217.038)" fill="#173d7a"/>
            <path id="Trazado_140111" data-name="Trazado 140111" d="M425.323,231.639l-3.284-1.9c-.264-.152-.231-.418.074-.594l1.075-.62a1.144,1.144,0,0,1,1.029-.043l3.284,1.9c.263.152.231.419-.074.594l-1.075.62A1.143,1.143,0,0,1,425.323,231.639Z" transform="translate(-379.268 -218.779)" fill="#173d7a"/>
            <path id="Trazado_140112" data-name="Trazado 140112" d="M433.364,236.281l-3.284-1.9c-.264-.152-.231-.418.074-.594l1.076-.621a1.143,1.143,0,0,1,1.029-.042l3.284,1.9c.264.152.231.418-.074.594l-1.076.621A1.143,1.143,0,0,1,433.364,236.281Z" transform="translate(-382.284 -220.521)" fill="#173d7a"/>
            <path id="Trazado_140113" data-name="Trazado 140113" d="M478.257,262.2l-3.284-1.9c-.264-.152-.231-.418.074-.594l1.076-.621a1.143,1.143,0,0,1,1.029-.043l3.284,1.9c.264.152.231.418-.074.594l-1.076.621A1.143,1.143,0,0,1,478.257,262.2Z" transform="translate(-399.125 -230.244)" fill="#173d7a"/>
            <path id="Trazado_140114" data-name="Trazado 140114" d="M486.3,266.843l-3.284-1.9c-.264-.152-.231-.418.074-.594l1.075-.621a1.143,1.143,0,0,1,1.029-.043l3.284,1.9c.264.152.231.419-.074.594l-1.076.621A1.145,1.145,0,0,1,486.3,266.843Z" transform="translate(-402.142 -231.986)" fill="#173d7a"/>
            <path id="Trazado_140115" data-name="Trazado 140115" d="M494.34,271.486l-3.284-1.9c-.264-.152-.231-.419.074-.594l1.075-.621a1.145,1.145,0,0,1,1.029-.042l3.284,1.9c.264.152.231.418-.074.594l-1.075.621A1.143,1.143,0,0,1,494.34,271.486Z" transform="translate(-405.159 -233.727)" fill="#173d7a"/>
            <path id="Trazado_140116" data-name="Trazado 140116" d="M502.381,276.128l-3.284-1.9c-.264-.152-.231-.418.074-.594l1.075-.621a1.143,1.143,0,0,1,1.029-.043l3.284,1.9c.264.152.231.418-.074.594l-1.075.621A1.143,1.143,0,0,1,502.381,276.128Z" transform="translate(-408.175 -235.469)" fill="#173d7a"/>
            <path id="Trazado_140117" data-name="Trazado 140117" d="M422.739,238.98l-3.284-1.9c-.264-.152-.231-.418.074-.594l3.253-1.878a1.143,1.143,0,0,1,1.029-.043l3.284,1.9c.264.152.231.418-.074.594l-3.254,1.878A1.143,1.143,0,0,1,422.739,238.98Z" transform="translate(-378.299 -221.062)" fill="#173d7a"/>
            <path id="Trazado_140118" data-name="Trazado 140118" d="M430.855,243.665l-3.284-1.9c-.264-.152-.231-.418.074-.594L430.9,239.3a1.143,1.143,0,0,1,1.029-.042l3.284,1.9c.264.152.231.418-.074.594l-3.253,1.878A1.143,1.143,0,0,1,430.855,243.665Z" transform="translate(-381.343 -222.819)" fill="#173d7a"/>
            <path id="Trazado_140119" data-name="Trazado 140119" d="M438.97,248.351l-3.284-1.9c-.264-.152-.231-.418.074-.594l3.254-1.878a1.143,1.143,0,0,1,1.029-.042l3.284,1.9c.264.152.231.418-.074.594L440,248.309A1.145,1.145,0,0,1,438.97,248.351Z" transform="translate(-384.387 -224.577)" fill="#173d7a"/>
            <path id="Trazado_140120" data-name="Trazado 140120" d="M447.085,253.036l-3.284-1.9c-.264-.152-.231-.418.074-.594l3.254-1.879a1.145,1.145,0,0,1,1.029-.043l3.284,1.9c.264.152.231.418-.074.594l-3.254,1.878A1.143,1.143,0,0,1,447.085,253.036Z" transform="translate(-387.432 -226.335)" fill="#173d7a"/>
            <path id="Trazado_140121" data-name="Trazado 140121" d="M455.2,257.721l-3.284-1.9c-.264-.152-.231-.418.074-.594l3.254-1.878a1.143,1.143,0,0,1,1.029-.042l3.284,1.9c.264.152.231.418-.074.594l-3.254,1.878A1.143,1.143,0,0,1,455.2,257.721Z" transform="translate(-390.476 -228.092)" fill="#173d7a"/>
            <path id="Trazado_140122" data-name="Trazado 140122" d="M463.316,262.407l-3.284-1.9c-.264-.153-.231-.418.074-.594l3.254-1.878a1.143,1.143,0,0,1,1.029-.042l3.284,1.9c.264.152.231.418-.074.594l-3.253,1.879A1.145,1.145,0,0,1,463.316,262.407Z" transform="translate(-393.521 -229.85)" fill="#173d7a"/>
            <path id="Trazado_140123" data-name="Trazado 140123" d="M471.431,267.092l-3.284-1.9c-.264-.152-.231-.418.074-.594l3.254-1.878a1.143,1.143,0,0,1,1.029-.043l3.284,1.9c.264.152.231.418-.074.594l-3.254,1.878A1.143,1.143,0,0,1,471.431,267.092Z" transform="translate(-396.565 -231.607)" fill="#173d7a"/>
            <path id="Trazado_140124" data-name="Trazado 140124" d="M479.546,271.777l-3.284-1.9c-.264-.152-.231-.418.074-.594l3.254-1.878a1.143,1.143,0,0,1,1.029-.042l3.284,1.9c.264.152.231.418-.074.594l-3.254,1.878A1.143,1.143,0,0,1,479.546,271.777Z" transform="translate(-399.609 -233.365)" fill="#173d7a"/>
            <path id="Trazado_140125" data-name="Trazado 140125" d="M487.661,276.463l-3.284-1.9c-.264-.152-.231-.418.074-.594l3.254-1.878a1.143,1.143,0,0,1,1.029-.042l3.284,1.9c.264.152.231.418-.074.594l-3.254,1.878A1.143,1.143,0,0,1,487.661,276.463Z" transform="translate(-402.653 -235.123)" fill="#173d7a"/>
            <path id="Trazado_140126" data-name="Trazado 140126" d="M372.509,237.345l-9.67-5.584c-.264-.152-.231-.418.074-.594l3.254-1.878a1.143,1.143,0,0,1,1.029-.043l9.67,5.584c.264.152.231.418-.074.594l-3.254,1.878A1.145,1.145,0,0,1,372.509,237.345Z" transform="translate(-357.059 -219.065)" fill="#173d7a"/>
            <path id="Trazado_140127" data-name="Trazado 140127" d="M472.206,294.905l-9.671-5.583c-.263-.152-.231-.418.074-.594l3.253-1.878a1.144,1.144,0,0,1,1.029-.043l9.67,5.583c.264.152.231.418-.074.594l-3.254,1.878A1.143,1.143,0,0,1,472.206,294.905Z" transform="translate(-394.46 -240.658)" fill="#173d7a"/>
            <path id="Trazado_140128" data-name="Trazado 140128" d="M443.587,288.516l-3.284-1.9c-.264-.152-.231-.418.074-.594l3.876-2.238a1.143,1.143,0,0,1,1.029-.043l3.284,1.9c.264.152.231.418-.074.594l-3.876,2.238A1.143,1.143,0,0,1,443.587,288.516Z" transform="translate(-386.119 -239.509)" fill="#173d7a"/>
            <path id="Trazado_140129" data-name="Trazado 140129" d="M383.472,253.809l-5.251-3.032c-.264-.152-.231-.418.074-.594l3.875-2.238a1.146,1.146,0,0,1,1.029-.042l5.251,3.032c.264.152.231.418-.074.594l-3.876,2.238A1.143,1.143,0,0,1,383.472,253.809Z" transform="translate(-362.83 -226.063)" fill="#173d7a"/>
            <path id="Trazado_140130" data-name="Trazado 140130" d="M434.586,283.319l-5.251-3.032c-.264-.152-.231-.419.074-.594l3.875-2.238a1.144,1.144,0,0,1,1.029-.042l5.251,3.032c.264.152.231.418-.074.594l-3.875,2.238A1.143,1.143,0,0,1,434.586,283.319Z" transform="translate(-382.005 -237.134)" fill="#173d7a"/>
            <path id="Trazado_140131" data-name="Trazado 140131" d="M395.18,260.568l-5.251-3.032c-.264-.152-.231-.418.074-.594l3.876-2.238a1.143,1.143,0,0,1,1.029-.043l5.251,3.032c.264.152.231.418-.074.594l-3.876,2.238A1.143,1.143,0,0,1,395.18,260.568Z" transform="translate(-367.222 -228.599)" fill="#173d7a"/>
            <path id="Trazado_140132" data-name="Trazado 140132" d="M395.071,254.757,417.9,267.939a.313.313,0,0,1,0,.592l-3.952,2.281a1.133,1.133,0,0,1-1.026,0l-22.832-13.181Z" transform="translate(-367.351 -228.673)" fill="#173d7a"/>
            <path id="Trazado_140133" data-name="Trazado 140133" d="M466.764,299.885,470.421,302c.216.124.189.342-.061.487l-1.585.915a.935.935,0,0,1-.843.035l-3.658-2.111c-.216-.125-.189-.342.061-.487l1.585-.915A.938.938,0,0,1,466.764,299.885Z" transform="translate(-395.124 -245.571)" fill="#173d7a"/>
            <path id="Trazado_140134" data-name="Trazado 140134" d="M458.581,295.161l3.658,2.111c.216.125.189.343-.061.487l-1.586.915a.935.935,0,0,1-.843.035l-3.657-2.111c-.216-.125-.189-.343.061-.487l1.585-.915A.935.935,0,0,1,458.581,295.161Z" transform="translate(-392.055 -243.799)" fill="#173d7a"/>
            <path id="Trazado_140135" data-name="Trazado 140135" d="M450.466,290.476l3.657,2.111c.216.125.189.342-.061.487l-1.585.915a.935.935,0,0,1-.843.035l-3.658-2.112c-.216-.124-.189-.342.061-.487l1.586-.915A.935.935,0,0,1,450.466,290.476Z" transform="translate(-389.01 -242.041)" fill="#173d7a"/>
            <path id="Trazado_140136" data-name="Trazado 140136" d="M463.063,292.574l3.657,2.111c.216.125.189.342-.061.487l-1.585.915a.935.935,0,0,1-.843.035l-3.658-2.112c-.216-.124-.189-.342.061-.487l1.585-.915A.937.937,0,0,1,463.063,292.574Z" transform="translate(-393.736 -242.828)" fill="#173d7a"/>
          </g>
        </g>
        <g id="Grupo_91594" data-name="Grupo 91594" transform="translate(65.018 15.092)">
          <g id="Grupo_91592" data-name="Grupo 91592">
            <path id="Trazado_140137" data-name="Trazado 140137" d="M450.606,146.1l-4.853-2.8a1.387,1.387,0,0,1-.592-1.437h0a.675.675,0,0,1,1.039-.5l4.852,2.8a1.387,1.387,0,0,1,.592,1.437h0A.675.675,0,0,1,450.606,146.1Z" transform="translate(-424.225 -134.58)" fill="#d4ecff"/>
            <path id="Trazado_140138" data-name="Trazado 140138" d="M467.722,155.979l-7.155-4.131a1.388,1.388,0,0,1-.592-1.437h0a.675.675,0,0,1,1.039-.5l7.155,4.131a1.389,1.389,0,0,1,.592,1.437h0A.675.675,0,0,1,467.722,155.979Z" transform="translate(-429.782 -137.789)" fill="#d4ecff"/>
            <path id="Trazado_140139" data-name="Trazado 140139" d="M437.069,182.346l-4.853-2.8a1.388,1.388,0,0,1-.592-1.437h0a.675.675,0,0,1,1.039-.5l4.853,2.8a1.388,1.388,0,0,1,.592,1.437h0A.675.675,0,0,1,437.069,182.346Z" transform="translate(-419.147 -148.179)" fill="#d4ecff"/>
            <path id="Trazado_140140" data-name="Trazado 140140" d="M452.176,191.068l-7.155-4.131a1.389,1.389,0,0,1-.592-1.437h0a.675.675,0,0,1,1.038-.5l7.155,4.131a1.388,1.388,0,0,1,.592,1.437h0A.675.675,0,0,1,452.176,191.068Z" transform="translate(-423.95 -150.952)" fill="#d4ecff"/>
            <path id="Trazado_140141" data-name="Trazado 140141" d="M428.79,140.846l-3.031-1.75a1.388,1.388,0,0,1-.592-1.437h0a.675.675,0,0,1,1.039-.5l3.031,1.75a1.388,1.388,0,0,1,.592,1.437h0A.676.676,0,0,1,428.79,140.846Z" transform="translate(-416.724 -133.005)" fill="#d4ecff"/>
            <path id="Trazado_140142" data-name="Trazado 140142" d="M440,154.663l-9.262-5.348a1.387,1.387,0,0,1-.592-1.437h0a.675.675,0,0,1,1.038-.5l9.262,5.348a1.388,1.388,0,0,1,.592,1.437h0A.675.675,0,0,1,440,154.663Z" transform="translate(-418.593 -136.839)" fill="#d4ecff"/>
            <path id="Trazado_140143" data-name="Trazado 140143" d="M430.779,164.027l-3.032-1.75a1.389,1.389,0,0,1-.592-1.437h0a.675.675,0,0,1,1.038-.5l3.032,1.75a1.388,1.388,0,0,1,.592,1.437h0A.675.675,0,0,1,430.779,164.027Z" transform="translate(-417.47 -141.701)" fill="#d4ecff"/>
            <path id="Trazado_140144" data-name="Trazado 140144" d="M454.107,206.871l-8.1-4.675a1.387,1.387,0,0,1-.592-1.437h0a.676.676,0,0,1,1.039-.5l8.1,4.675a1.388,1.388,0,0,1,.592,1.437h0A.675.675,0,0,1,454.107,206.871Z" transform="translate(-424.321 -156.677)" fill="#d4ecff"/>
            <path id="Trazado_140145" data-name="Trazado 140145" d="M426.7,176.361l-1.945-1.124a1.388,1.388,0,0,1-.592-1.437h0a.675.675,0,0,1,1.039-.5l1.945,1.124a1.387,1.387,0,0,1,.592,1.437h0A.676.676,0,0,1,426.7,176.361Z" transform="translate(-416.348 -146.563)" fill="#d4ecff"/>
            <path id="Trazado_140146" data-name="Trazado 140146" d="M424.181,189.593l-2.416-1.395a1.388,1.388,0,0,1-.592-1.437h0a.675.675,0,0,1,1.038-.5l2.416,1.395a1.388,1.388,0,0,1,.592,1.437h0A.675.675,0,0,1,424.181,189.593Z" transform="translate(-415.226 -151.425)" fill="#d4ecff"/>
            <path id="Trazado_140147" data-name="Trazado 140147" d="M436.851,196.908l-6.37-3.678a1.388,1.388,0,0,1-.592-1.437h0a.675.675,0,0,1,1.038-.5l6.371,3.678a1.388,1.388,0,0,1,.592,1.437h0A.675.675,0,0,1,436.851,196.908Z" transform="translate(-418.495 -153.313)" fill="#d4ecff"/>
            <path id="Trazado_140148" data-name="Trazado 140148" d="M424.848,197.323l-4.58-2.644a1.388,1.388,0,0,1-.592-1.437h0a.675.675,0,0,1,1.039-.5l4.58,2.644a1.388,1.388,0,0,1,.592,1.437h0A.675.675,0,0,1,424.848,197.323Z" transform="translate(-414.664 -153.856)" fill="#d4ecff"/>
            <path id="Trazado_140149" data-name="Trazado 140149" d="M468.319,215.109l-2.942-1.7a1.387,1.387,0,0,1-.592-1.437h0a.675.675,0,0,1,1.038-.5l2.942,1.7a1.388,1.388,0,0,1,.592,1.437h0A.675.675,0,0,1,468.319,215.109Z" transform="translate(-431.587 -160.883)" fill="#d4ecff"/>
            <path id="Trazado_140150" data-name="Trazado 140150" d="M445.784,172.69l-8.1-4.675a1.388,1.388,0,0,1-.592-1.437h0a.676.676,0,0,1,1.039-.5l8.1,4.675a1.387,1.387,0,0,1,.592,1.437h0A.676.676,0,0,1,445.784,172.69Z" transform="translate(-421.199 -143.854)" fill="#d4ecff"/>
            <path id="Trazado_140151" data-name="Trazado 140151" d="M443.355,163.943,429.243,155.8a1.387,1.387,0,0,1-.592-1.437h0a.675.675,0,0,1,1.038-.5l14.111,8.147a1.389,1.389,0,0,1,.592,1.437h0A.675.675,0,0,1,443.355,163.943Z" transform="translate(-418.031 -139.27)" fill="#d4ecff"/>
            <path id="Trazado_140152" data-name="Trazado 140152" d="M434.349,173.431l-8.1-4.675a1.387,1.387,0,0,1-.592-1.437h0a.675.675,0,0,1,1.038-.5l8.1,4.675a1.389,1.389,0,0,1,.592,1.437h0A.675.675,0,0,1,434.349,173.431Z" transform="translate(-416.909 -144.132)" fill="#d4ecff"/>
            <path id="Trazado_140153" data-name="Trazado 140153" d="M458.706,180.151l-2.942-1.7a1.388,1.388,0,0,1-.592-1.437h0a.675.675,0,0,1,1.039-.5l2.942,1.7a1.388,1.388,0,0,1,.592,1.437h0A.675.675,0,0,1,458.706,180.151Z" transform="translate(-427.98 -147.769)" fill="#d4ecff"/>
            <path id="Trazado_140154" data-name="Trazado 140154" d="M496.484,172.586l-17.42-10.058a1.388,1.388,0,0,1-.592-1.437h0a.675.675,0,0,1,1.039-.5l17.42,10.058a1.387,1.387,0,0,1,.592,1.437h0A.676.676,0,0,1,496.484,172.586Z" transform="translate(-436.721 -141.795)" fill="#d4ecff"/>
            <path id="Trazado_140155" data-name="Trazado 140155" d="M432.993,187.337l-9.732-5.619a1.387,1.387,0,0,1-.592-1.437h0a.675.675,0,0,1,1.039-.5l9.732,5.619a1.388,1.388,0,0,1,.592,1.437h0A.675.675,0,0,1,432.993,187.337Z" transform="translate(-415.787 -148.994)" fill="#d4ecff"/>
            <path id="Trazado_140156" data-name="Trazado 140156" d="M434.41,136.746l-7.155-4.131a1.388,1.388,0,0,1-.592-1.437h0a.675.675,0,0,1,1.039-.5l7.155,4.131a1.388,1.388,0,0,1,.592,1.437h0A.675.675,0,0,1,434.41,136.746Z" transform="translate(-417.285 -130.574)" fill="#d4ecff"/>
            <path id="Trazado_140157" data-name="Trazado 140157" d="M420.583,202.2,412.3,197.42a1.387,1.387,0,0,1-.592-1.437h0a.676.676,0,0,1,1.039-.5l8.287,4.785a1.386,1.386,0,0,1,.592,1.437h0A.675.675,0,0,1,420.583,202.2Z" transform="translate(-411.674 -154.885)" fill="#d4ecff"/>
          </g>
          <g id="Grupo_91593" data-name="Grupo 91593" transform="translate(53.92 41.054)">
            <path id="Trazado_140158" data-name="Trazado 140158" d="M512.4,231.347l-4.853-2.8a1.388,1.388,0,0,1-.592-1.437h0a.675.675,0,0,1,1.038-.5l4.853,2.8a1.387,1.387,0,0,1,.592,1.437h0A.676.676,0,0,1,512.4,231.347Z" transform="translate(-501.325 -207.615)" fill="#d4ecff"/>
            <path id="Trazado_140159" data-name="Trazado 140159" d="M515.329,203.664l-9.262-5.348a1.388,1.388,0,0,1-.592-1.437h0a.675.675,0,0,1,1.038-.5l9.262,5.348a1.388,1.388,0,0,1,.592,1.437h0A.675.675,0,0,1,515.329,203.664Z" transform="translate(-500.771 -196.275)" fill="#d4ecff"/>
            <path id="Trazado_140160" data-name="Trazado 140160" d="M506.106,213.028l-3.031-1.75a1.388,1.388,0,0,1-.592-1.437h0a.675.675,0,0,1,1.039-.5l3.031,1.75a1.388,1.388,0,0,1,.592,1.437h0A.676.676,0,0,1,506.106,213.028Z" transform="translate(-499.649 -201.137)" fill="#d4ecff"/>
            <path id="Trazado_140161" data-name="Trazado 140161" d="M502.029,225.362l-1.946-1.123a1.389,1.389,0,0,1-.592-1.437h0a.676.676,0,0,1,1.039-.5l1.946,1.123a1.388,1.388,0,0,1,.592,1.437h0A.675.675,0,0,1,502.029,225.362Z" transform="translate(-498.526 -205.999)" fill="#d4ecff"/>
            <path id="Trazado_140162" data-name="Trazado 140162" d="M521.112,221.69l-8.1-4.674a1.389,1.389,0,0,1-.592-1.437h0a.675.675,0,0,1,1.038-.5l8.1,4.674a1.389,1.389,0,0,1,.592,1.437h0A.675.675,0,0,1,521.112,221.69Z" transform="translate(-503.378 -203.29)" fill="#d4ecff"/>
            <path id="Trazado_140163" data-name="Trazado 140163" d="M518.683,212.944,504.571,204.8a1.387,1.387,0,0,1-.592-1.437h0a.676.676,0,0,1,1.039-.5l14.111,8.148a1.387,1.387,0,0,1,.592,1.437h0A.675.675,0,0,1,518.683,212.944Z" transform="translate(-500.21 -198.706)" fill="#d4ecff"/>
            <path id="Trazado_140164" data-name="Trazado 140164" d="M509.676,222.432l-8.1-4.675a1.387,1.387,0,0,1-.592-1.437h0a.675.675,0,0,1,1.039-.5l8.1,4.675a1.388,1.388,0,0,1,.592,1.437h0A.675.675,0,0,1,509.676,222.432Z" transform="translate(-499.088 -203.568)" fill="#d4ecff"/>
            <path id="Trazado_140165" data-name="Trazado 140165" d="M508.32,236.338l-9.733-5.619a1.387,1.387,0,0,1-.592-1.437h0a.675.675,0,0,1,1.038-.5l9.733,5.619a1.388,1.388,0,0,1,.592,1.437h0A.675.675,0,0,1,508.32,236.338Z" transform="translate(-497.965 -208.43)" fill="#d4ecff"/>
          </g>
        </g>
      </g>
      <g id="Grupo_91602" data-name="Grupo 91602" transform="translate(399.808 43.233)">
        <g id="Grupo_91598" data-name="Grupo 91598" transform="translate(0)">
          <path id="Trazado_140166" data-name="Trazado 140166" d="M549.4,139.054l7.647-3.042-1.72-11.25-3.712,3.289Z" transform="translate(-490.506 -73.818)" fill="#5793ce"/>
          <path id="Trazado_140167" data-name="Trazado 140167" d="M467.493,59.26l18.474-7.383s-3.4,7.368-3.409,7.383-9.865,2.283-9.865,2.283Z" transform="translate(-459.781 -46.476)" fill="#5793ce"/>
          <path id="Trazado_140168" data-name="Trazado 140168" d="M531.876,86.629a8.131,8.131,0,0,0-2.994-1.029c1.02-6.8-1.918-13.976-7.555-17.234a12.3,12.3,0,0,0-5.283-1.66c2.209-8.242-1.2-17.608-8.157-21.626a12.808,12.808,0,0,0-11.021-1.062l0-.006-.17.068c-.089.034-.178.069-.266.106l-5.789,2.277,2.309,1.986a11.722,11.722,0,0,0-7.267,7.26c-2.636,6.9.068,15.291,6.04,18.742l35.5,29.923c4.484,2.591,7.206,1.509,9.185-3.672S536.361,89.22,531.876,86.629Z" transform="translate(-466.228 -43.233)" fill="#5793ce"/>
          <path id="Trazado_140169" data-name="Trazado 140169" d="M488.88,52.672l19.913-7.956a12.723,12.723,0,0,0-10.35-.7l0-.006-.17.068c-.089.034-.178.069-.266.106l-5.789,2.277,2.309,1.986A11.049,11.049,0,0,0,488.88,52.672Z" transform="translate(-467.804 -43.233)" fill="#5793ce"/>
          <path id="Trazado_140170" data-name="Trazado 140170" d="M525.31,97.185l13.15-5.244a15.846,15.846,0,0,0-6.922-8.956,12.821,12.821,0,0,0-1.328-.668L512.1,89.55Z" transform="translate(-476.513 -57.895)" fill="#5793ce"/>
          <path id="Trazado_140171" data-name="Trazado 140171" d="M500.691,47.493l5.643,3.26,9.793-3.9a15.615,15.615,0,0,0-2.233-1.575,13.845,13.845,0,0,0-3.828-1.518Z" transform="translate(-472.235 -43.431)" fill="#d4ecff"/>
          <path id="Trazado_140172" data-name="Trazado 140172" d="M547.214,94.216l-9.465,3.768,2.793,3.923,8.121-3.229A18.234,18.234,0,0,0,547.214,94.216Z" transform="translate(-486.137 -62.359)" fill="#d4ecff"/>
          <path id="Trazado_140173" data-name="Trazado 140173" d="M514.471,90.609a8.142,8.142,0,0,0-2.994-1.029c1.019-6.8-1.994-14.021-7.631-17.277a11.91,11.91,0,0,0-5.206-1.616c2.209-8.241-1.2-17.608-8.157-21.625-7.479-4.321-16.218-.819-19.519,7.823q-.168.44-.311.886c-5.706-2.538-12.015.322-14.491,6.8-2.636,6.9.068,15.291,6.039,18.741l45.1,26.058c4.485,2.591,9.724.491,11.7-4.691S518.955,93.2,514.471,90.609Z" transform="translate(-455.151 -44.725)" fill="#d4ecff"/>
          <g id="Grupo_91596" data-name="Grupo 91596" transform="translate(6.817 1.965)">
            <path id="Trazado_140174" data-name="Trazado 140174" d="M529.173,89.776a8.127,8.127,0,0,0-2.994-1.029c1.02-6.8-1.993-14.021-7.631-17.278a11.919,11.919,0,0,0-5.207-1.615c2.209-8.242-1.2-17.608-8.157-21.626a12.733,12.733,0,0,0-13.322.061,12.747,12.747,0,0,1,12.392.459c6.953,4.018,10.366,13.385,8.157,21.626a11.91,11.91,0,0,1,5.206,1.616c5.638,3.257,8.651,10.478,7.631,17.277a8.143,8.143,0,0,1,2.994,1.029c4.484,2.591,6.515,8.892,4.535,14.073a9.3,9.3,0,0,1-3.525,4.526,9.032,9.032,0,0,0,4.456-5.046C535.687,98.667,533.657,92.367,529.173,89.776Z" transform="translate(-475.74 -46.378)" fill="#fff"/>
            <path id="Trazado_140175" data-name="Trazado 140175" d="M474.745,63.252c.084-.259.176-.517.272-.774a10.042,10.042,0,0,0-8.956.913A10.071,10.071,0,0,1,474.745,63.252Z" transform="translate(-466.061 -52.172)" fill="#fff"/>
          </g>
          <g id="Grupo_91597" data-name="Grupo 91597" transform="translate(2.906 4.748)">
            <path id="Trazado_140176" data-name="Trazado 140176" d="M467.3,60.478a5.927,5.927,0,0,0-2.378.481,8.628,8.628,0,0,0-4.248,4.973c-2.316,6.062.16,13.746,5.406,16.777l45.1,26.057a4.7,4.7,0,0,0,4.024.569,5.533,5.533,0,0,0,2.779-3.3c1.672-4.376-.116-9.92-3.9-12.109a5.86,5.86,0,0,0-2.145-.753l-1.831-.247.236-1.57c.94-6.271-1.955-12.889-6.885-15.737a9.5,9.5,0,0,0-4.149-1.318l-2.27-.147.51-1.9c2.025-7.558-1.249-16.286-7.456-19.872a9.717,9.717,0,0,0-8.559-.949,11.371,11.371,0,0,0-6.059,6.808c-.1.259-.189.519-.274.782l-1.217,3.735-3.538-1.573A7.771,7.771,0,0,0,467.3,60.478Z" transform="translate(-459.802 -50.831)" fill="#396caa"/>
          </g>
        </g>
        <g id="Grupo_91601" data-name="Grupo 91601" transform="translate(23.306 25.887)">
          <path id="Trazado_140177" data-name="Trazado 140177" d="M507.17,111.721l1.554-.626-1.208-.929Z" transform="translate(-497.971 -94.23)" fill="#5793ce"/>
          <path id="Trazado_140178" data-name="Trazado 140178" d="M505.927,85.346l1.509-.612-.107.633Z" transform="translate(-497.505 -84.689)" fill="#5793ce"/>
          <path id="Trazado_140179" data-name="Trazado 140179" d="M514.546,104.588l1.575-.635-2.3-2.311Z" transform="translate(-500.468 -91.032)" fill="#5793ce"/>
          <g id="Grupo_91599" data-name="Grupo 91599" transform="translate(1.578)">
            <path id="Trazado_140180" data-name="Trazado 140180" d="M505.132,104.807l-6.019-3.475a.975.975,0,0,1-.411-.992l1.442-6.83,7.125,4.113-1.442,6.831A.454.454,0,0,1,505.132,104.807Z" transform="translate(-496.366 -87.981)" fill="#5793ce"/>
            <path id="Trazado_140181" data-name="Trazado 140181" d="M503.311,84.715l-8.133,4.1c-.346.174-.231.822.189,1.064l6.639,3.834,6.639,3.833c.419.242.753-.147.548-.639L504.37,85.326C504.162,84.826,503.662,84.538,503.311,84.715Z" transform="translate(-494.974 -84.662)" fill="#5793ce"/>
          </g>
          <g id="Grupo_91600" data-name="Grupo 91600" transform="translate(0 0.637)">
            <path id="Trazado_140182" data-name="Trazado 140182" d="M502.607,105.826l-6.019-3.475a.976.976,0,0,1-.411-.992l1.442-6.831,7.125,4.114-1.442,6.83A.453.453,0,0,1,502.607,105.826Z" transform="translate(-493.84 -89)" fill="#d4ecff"/>
            <path id="Trazado_140183" data-name="Trazado 140183" d="M500.786,85.734l-8.134,4.1c-.345.174-.23.823.189,1.065l6.639,3.833,6.639,3.834c.419.242.753-.147.549-.639l-4.823-11.581C501.636,85.846,501.137,85.557,500.786,85.734Z" transform="translate(-492.449 -85.682)" fill="#d4ecff"/>
          </g>
        </g>
      </g>
    </g>
  </g>
</svg>
