<svg xmlns="http://www.w3.org/2000/svg" width="925" height="85" viewBox="0 0 925 85">
  <g id="Grupo_91936" data-name="Grupo 91936" transform="translate(-285 -2607.523)">
    <g id="Grupo_91154" data-name="Grupo 91154" transform="translate(0 -178.477)">
      <rect id="Rectángulo_35269" data-name="Rectángulo 35269" width="253" height="73" rx="10" transform="translate(327 2792)" fill="#ff6b79"/>
      <rect id="Rectángulo_35270" data-name="Rectángulo 35270" width="253" height="73" rx="10" transform="translate(642 2792)" fill="#01d1dd"/>
      <rect id="Rectángulo_35271" data-name="Rectángulo 35271" width="253" height="73" rx="10" transform="translate(957 2792)" fill="#a66bd2"/>
      <path id="Trazado_140474" data-name="Trazado 140474" d="M-20.355-12.8l2.856,8.9,2.848-8.9h4.061V0h-3.094V-2.988l.3-6.117L-16.479,0h-2.039l-3.1-9.114.3,6.126V0h-3.085V-12.8ZM2.224-6.135a7.562,7.562,0,0,1-.589,3.1A5.385,5.385,0,0,1,.009-.914L2.074.721.167,2.338-2.584.123a5.718,5.718,0,0,1-.773.053,5.547,5.547,0,0,1-2.9-.756A5.141,5.141,0,0,1-8.231-2.742a7.343,7.343,0,0,1-.734-3.234v-.677a7.572,7.572,0,0,1,.69-3.322A5.142,5.142,0,0,1-6.306-12.19a5.5,5.5,0,0,1,2.931-.782,5.479,5.479,0,0,1,2.9.773A5.211,5.211,0,0,1,1.507-10a7.362,7.362,0,0,1,.716,3.274ZM-.914-6.671a5.381,5.381,0,0,0-.637-2.9,2.044,2.044,0,0,0-1.824-.989,2.03,2.03,0,0,0-1.837.976,5.451,5.451,0,0,0-.624,2.856v.589a5.531,5.531,0,0,0,.624,2.9A2.043,2.043,0,0,0-3.357-2.232a2.014,2.014,0,0,0,1.806-.993A5.414,5.414,0,0,0-.914-6.082Zm14.467-3.744H9.712V0H6.627V-10.415H2.856V-12.8h10.7Zm11.487,0H21.2V0H18.114V-10.415H14.344V-12.8h10.7Z" transform="translate(451 2836)" fill="#12263f"/>
      <path id="Trazado_140472" data-name="Trazado 140472" d="M-6.3-10.415h-3.841V0h-3.085V-10.415H-17V-12.8H-6.3ZM5.106-4.333a4.673,4.673,0,0,1-.721,2.36A4.35,4.35,0,0,1,2.536-.387,6.3,6.3,0,0,1-.185.176,5.025,5.025,0,0,1-4.157-1.468a6.786,6.786,0,0,1-1.45-4.641v-.633a7.746,7.746,0,0,1,.655-3.292,4.961,4.961,0,0,1,1.885-2.18A5.26,5.26,0,0,1-.22-12.981a5.516,5.516,0,0,1,3.744,1.226A4.844,4.844,0,0,1,5.133-8.376H2.057a2.292,2.292,0,0,0-.589-1.679,2.422,2.422,0,0,0-1.687-.51A1.843,1.843,0,0,0-1.907-9.7,5.536,5.536,0,0,0-2.47-6.952v.905A6.125,6.125,0,0,0-1.956-3.12a1.882,1.882,0,0,0,1.771.879,2.369,2.369,0,0,0,1.626-.5,2.126,2.126,0,0,0,.6-1.591ZM9.65-4.342V0H6.565V-12.8h5.106a5.948,5.948,0,0,1,2.6.541,4.074,4.074,0,0,1,1.749,1.538,4.2,4.2,0,0,1,.62,2.263A3.7,3.7,0,0,1,15.3-5.462a5.561,5.561,0,0,1-3.678,1.121Zm0-2.382h2.021a1.906,1.906,0,0,0,1.367-.448,1.665,1.665,0,0,0,.47-1.266,2.059,2.059,0,0,0-.483-1.433,1.712,1.712,0,0,0-1.318-.545H9.65Z" transform="translate(766 2836)" fill="#12263f"/>
      <path id="Trazado_140471" data-name="Trazado 140471" d="M-4.32,0H-7.4V-12.8H-4.32ZM.91-4.342V0H-2.175V-12.8H2.931a5.948,5.948,0,0,1,2.6.541,4.074,4.074,0,0,1,1.749,1.538A4.2,4.2,0,0,1,7.9-8.455a3.7,3.7,0,0,1-1.34,2.993A5.561,5.561,0,0,1,2.878-4.342Zm0-2.382H2.931A1.906,1.906,0,0,0,4.3-7.172a1.665,1.665,0,0,0,.47-1.266A2.059,2.059,0,0,0,4.285-9.87a1.712,1.712,0,0,0-1.318-.545H.91Z" transform="translate(1081 2836)" fill="#12263f"/>
      <circle id="Elipse_4403" data-name="Elipse 4403" cx="42.5" cy="42.5" r="42.5" transform="translate(285 2786)" fill="#ffd85f"/>
      <circle id="Elipse_4404" data-name="Elipse 4404" cx="42.5" cy="42.5" r="42.5" transform="translate(600 2786)" fill="#ffd85f"/>
      <circle id="Elipse_4405" data-name="Elipse 4405" cx="42.5" cy="42.5" r="42.5" transform="translate(915 2786)" fill="#ffd85f"/>
      <path id="Trazado_140475" data-name="Trazado 140475" d="M-2.76-6.135a7.546,7.546,0,0,1-.694,3.313A5.132,5.132,0,0,1-5.427-.6,5.494,5.494,0,0,1-8.341.176a5.572,5.572,0,0,1-2.9-.751,5.123,5.123,0,0,1-1.973-2.149,7.329,7.329,0,0,1-.743-3.208v-.721a7.58,7.58,0,0,1,.69-3.318A5.119,5.119,0,0,1-11.29-12.19a5.533,5.533,0,0,1,2.931-.782,5.479,5.479,0,0,1,2.9.773A5.211,5.211,0,0,1-3.476-10,7.362,7.362,0,0,1-2.76-6.724ZM-5.9-6.671a5.381,5.381,0,0,0-.637-2.9,2.044,2.044,0,0,0-1.824-.989q-2.32,0-2.452,3.48l-.009.94A5.535,5.535,0,0,0-10.2-3.243,2.041,2.041,0,0,0-8.341-2.232a2.016,2.016,0,0,0,1.8-.993A5.383,5.383,0,0,0-5.9-6.082ZM5.432-3.4a1.268,1.268,0,0,0-.479-1.055A5.954,5.954,0,0,0,3.27-5.238,16.147,16.147,0,0,1,1.3-6.021Q-1.187-7.242-1.187-9.378a3.011,3.011,0,0,1,.62-1.876A4.008,4.008,0,0,1,1.187-12.52a6.823,6.823,0,0,1,2.549-.453,5.969,5.969,0,0,1,2.474.492,3.917,3.917,0,0,1,1.7,1.4A3.661,3.661,0,0,1,8.517-9H5.44a1.547,1.547,0,0,0-.479-1.213,1.867,1.867,0,0,0-1.3-.431,2.106,2.106,0,0,0-1.305.365,1.119,1.119,0,0,0-.479.927,1.127,1.127,0,0,0,.527.892,6.65,6.65,0,0,0,1.854.826,11.36,11.36,0,0,1,2.18.918,3.663,3.663,0,0,1,2.074,3.3A3.125,3.125,0,0,1,7.251-.782,5.629,5.629,0,0,1,3.779.176,6.888,6.888,0,0,1,.962-.382a4.247,4.247,0,0,1-1.9-1.529,3.985,3.985,0,0,1-.637-2.237H1.521a1.963,1.963,0,0,0,.532,1.516,2.513,2.513,0,0,0,1.727.488,1.985,1.985,0,0,0,1.208-.33A1.088,1.088,0,0,0,5.432-3.4ZM13.386,0H10.31V-12.8h3.076Zm-26.9,14.749.782-6.546h7.479v2.285h-5.071l-.29,2.56a3.493,3.493,0,0,1,.831-.327,3.79,3.79,0,0,1,1.006-.141,3.754,3.754,0,0,1,2.931,1.129,4.549,4.549,0,0,1,1.024,3.168,4.541,4.541,0,0,1-.549,2.228A3.776,3.776,0,0,1-6.913,20.64a4.87,4.87,0,0,1-2.347.536,5.24,5.24,0,0,1-2.259-.5,4.052,4.052,0,0,1-1.652-1.361,3.308,3.308,0,0,1-.589-1.954h2.971a1.68,1.68,0,0,0,.448,1.114,1.423,1.423,0,0,0,1.063.412q1.494,0,1.494-2.21,0-2.044-1.828-2.044a1.824,1.824,0,0,0-1.547.667ZM2.571,16.623H-2.711V14.338H2.571ZM13.724,9.785,8.943,21H5.814L10.6,10.488H4.5V8.2h9.22Z" transform="translate(327 2824)" fill="#12263f"/>
      <path id="Trazado_140473" data-name="Trazado 140473" d="M-9.207-4.333a4.673,4.673,0,0,1-.721,2.36,4.35,4.35,0,0,1-1.85,1.586A6.3,6.3,0,0,1-14.5.176,5.025,5.025,0,0,1-18.47-1.468a6.786,6.786,0,0,1-1.45-4.641v-.633a7.746,7.746,0,0,1,.655-3.292,4.961,4.961,0,0,1,1.885-2.18,5.26,5.26,0,0,1,2.848-.769,5.516,5.516,0,0,1,3.744,1.226A4.844,4.844,0,0,1-9.18-8.376h-3.076a2.292,2.292,0,0,0-.589-1.679,2.422,2.422,0,0,0-1.687-.51A1.843,1.843,0,0,0-16.22-9.7a5.536,5.536,0,0,0-.562,2.751v.905a6.126,6.126,0,0,0,.514,2.927,1.882,1.882,0,0,0,1.771.879,2.369,2.369,0,0,0,1.626-.5,2.126,2.126,0,0,0,.6-1.591ZM-2.527,0a3.344,3.344,0,0,1-.281-.853A2.754,2.754,0,0,1-5.093.176,3.374,3.374,0,0,1-7.378-.637a2.588,2.588,0,0,1-.94-2.043A2.66,2.66,0,0,1-7.176-5.019,5.821,5.821,0,0,1-3.854-5.81h.914v-.5q0-1.316-1.134-1.316A.927.927,0,0,0-5.128-6.587H-8.09A2.655,2.655,0,0,1-6.917-8.825a4.931,4.931,0,0,1,2.993-.86A4.323,4.323,0,0,1-1.05-8.8,3.086,3.086,0,0,1,.031-6.363v4.21a4.311,4.311,0,0,0,.4,2V0ZM-4.381-1.934a1.652,1.652,0,0,0,.918-.237,1.487,1.487,0,0,0,.523-.536V-4.228H-3.8q-1.547,0-1.547,1.389a.848.848,0,0,0,.272.655A.986.986,0,0,0-4.381-1.934ZM10.5-4.685a5.735,5.735,0,0,1-1,3.538A3.2,3.2,0,0,1,6.807.176,2.742,2.742,0,0,1,4.654-.782V3.656H1.692V-9.51H4.46l.088.879A2.742,2.742,0,0,1,6.79-9.686a3.224,3.224,0,0,1,2.733,1.3A5.805,5.805,0,0,1,10.5-4.825ZM7.537-4.869Q7.537-7.4,6.06-7.4a1.394,1.394,0,0,0-1.406.756V-2.9a1.439,1.439,0,0,0,1.424.791q1.415,0,1.459-2.443ZM17.161,0a3.344,3.344,0,0,1-.281-.853A2.754,2.754,0,0,1,14.594.176a3.374,3.374,0,0,1-2.285-.813,2.588,2.588,0,0,1-.94-2.043,2.66,2.66,0,0,1,1.143-2.338,5.821,5.821,0,0,1,3.322-.791h.914v-.5q0-1.316-1.134-1.316a.927.927,0,0,0-1.055,1.042H11.6a2.655,2.655,0,0,1,1.173-2.239,4.931,4.931,0,0,1,2.993-.86,4.323,4.323,0,0,1,2.874.888,3.086,3.086,0,0,1,1.081,2.435v4.21a4.311,4.311,0,0,0,.4,2V0ZM15.306-1.934a1.652,1.652,0,0,0,.918-.237,1.487,1.487,0,0,0,.523-.536V-4.228h-.861q-1.547,0-1.547,1.389a.848.848,0,0,0,.272.655A.986.986,0,0,0,15.306-1.934Zm-25.519,16.8a7.546,7.546,0,0,1-.694,3.313A5.132,5.132,0,0,1-12.88,20.4a5.494,5.494,0,0,1-2.914.778,5.572,5.572,0,0,1-2.9-.751,5.123,5.123,0,0,1-1.973-2.149,7.329,7.329,0,0,1-.743-3.208v-.721a7.58,7.58,0,0,1,.69-3.318A5.119,5.119,0,0,1-18.743,8.81a5.533,5.533,0,0,1,2.931-.782,5.479,5.479,0,0,1,2.9.773A5.211,5.211,0,0,1-10.929,11a7.362,7.362,0,0,1,.716,3.274Zm-3.138-.536a5.381,5.381,0,0,0-.637-2.9,2.044,2.044,0,0,0-1.824-.989q-2.32,0-2.452,3.48l-.009.94a5.535,5.535,0,0,0,.624,2.892,2.041,2.041,0,0,0,1.854,1.011,2.016,2.016,0,0,0,1.8-.993,5.383,5.383,0,0,0,.642-2.856ZM-2.021,17.6A1.268,1.268,0,0,0-2.5,16.544a5.954,5.954,0,0,0-1.683-.782,16.147,16.147,0,0,1-1.969-.782Q-8.64,13.758-8.64,11.622a3.011,3.011,0,0,1,.62-1.876A4.008,4.008,0,0,1-6.267,8.48a6.823,6.823,0,0,1,2.549-.453,5.969,5.969,0,0,1,2.474.492,3.917,3.917,0,0,1,1.7,1.4A3.661,3.661,0,0,1,1.063,12H-2.013a1.547,1.547,0,0,0-.479-1.213,1.867,1.867,0,0,0-1.3-.431,2.106,2.106,0,0,0-1.305.365,1.119,1.119,0,0,0-.479.927,1.127,1.127,0,0,0,.527.892,6.65,6.65,0,0,0,1.854.826,11.36,11.36,0,0,1,2.18.918,3.663,3.663,0,0,1,2.074,3.3A3.125,3.125,0,0,1-.2,20.218a5.629,5.629,0,0,1-3.472.958,6.888,6.888,0,0,1-2.817-.558,4.247,4.247,0,0,1-1.9-1.529,3.985,3.985,0,0,1-.637-2.237h3.094A1.963,1.963,0,0,0-5.4,18.368a2.513,2.513,0,0,0,1.727.488,1.985,1.985,0,0,0,1.208-.33A1.088,1.088,0,0,0-2.021,17.6ZM5.933,21H2.856V8.2H5.933ZM20.2,16h1.3v2.285H20.2V21H17.235V18.284H12.287l-.176-1.811,5.124-8.244V8.2H20.2Zm-5.265,0h2.3V12.062l-.185.3Z" transform="translate(642 2824)" fill="#12263f"/>
      <path id="Trazado_140470" data-name="Trazado 140470" d="M-9.207-4.333a4.673,4.673,0,0,1-.721,2.36,4.35,4.35,0,0,1-1.85,1.586A6.3,6.3,0,0,1-14.5.176,5.025,5.025,0,0,1-18.47-1.468a6.786,6.786,0,0,1-1.45-4.641v-.633a7.746,7.746,0,0,1,.655-3.292,4.961,4.961,0,0,1,1.885-2.18,5.26,5.26,0,0,1,2.848-.769,5.516,5.516,0,0,1,3.744,1.226A4.844,4.844,0,0,1-9.18-8.376h-3.076a2.292,2.292,0,0,0-.589-1.679,2.422,2.422,0,0,0-1.687-.51A1.843,1.843,0,0,0-16.22-9.7a5.536,5.536,0,0,0-.562,2.751v.905a6.126,6.126,0,0,0,.514,2.927,1.882,1.882,0,0,0,1.771.879,2.369,2.369,0,0,0,1.626-.5,2.126,2.126,0,0,0,.6-1.591ZM-2.527,0a3.344,3.344,0,0,1-.281-.853A2.754,2.754,0,0,1-5.093.176,3.374,3.374,0,0,1-7.378-.637a2.588,2.588,0,0,1-.94-2.043A2.66,2.66,0,0,1-7.176-5.019,5.821,5.821,0,0,1-3.854-5.81h.914v-.5q0-1.316-1.134-1.316A.927.927,0,0,0-5.128-6.587H-8.09A2.655,2.655,0,0,1-6.917-8.825a4.931,4.931,0,0,1,2.993-.86A4.323,4.323,0,0,1-1.05-8.8,3.086,3.086,0,0,1,.031-6.363v4.21a4.311,4.311,0,0,0,.4,2V0ZM-4.381-1.934a1.652,1.652,0,0,0,.918-.237,1.487,1.487,0,0,0,.523-.536V-4.228H-3.8q-1.547,0-1.547,1.389a.848.848,0,0,0,.272.655A.986.986,0,0,0-4.381-1.934ZM10.5-4.685a5.735,5.735,0,0,1-1,3.538A3.2,3.2,0,0,1,6.807.176,2.742,2.742,0,0,1,4.654-.782V3.656H1.692V-9.51H4.46l.088.879A2.742,2.742,0,0,1,6.79-9.686a3.224,3.224,0,0,1,2.733,1.3A5.805,5.805,0,0,1,10.5-4.825ZM7.537-4.869Q7.537-7.4,6.06-7.4a1.394,1.394,0,0,0-1.406.756V-2.9a1.439,1.439,0,0,0,1.424.791q1.415,0,1.459-2.443ZM17.161,0a3.344,3.344,0,0,1-.281-.853A2.754,2.754,0,0,1,14.594.176a3.374,3.374,0,0,1-2.285-.813,2.588,2.588,0,0,1-.94-2.043,2.66,2.66,0,0,1,1.143-2.338,5.821,5.821,0,0,1,3.322-.791h.914v-.5q0-1.316-1.134-1.316a.927.927,0,0,0-1.055,1.042H11.6a2.655,2.655,0,0,1,1.173-2.239,4.931,4.931,0,0,1,2.993-.86,4.323,4.323,0,0,1,2.874.888,3.086,3.086,0,0,1,1.081,2.435v4.21a4.311,4.311,0,0,0,.4,2V0ZM15.306-1.934a1.652,1.652,0,0,0,.918-.237,1.487,1.487,0,0,0,.523-.536V-4.228h-.861q-1.547,0-1.547,1.389a.848.848,0,0,0,.272.655A.986.986,0,0,0,15.306-1.934Zm-25.519,16.8a7.546,7.546,0,0,1-.694,3.313A5.132,5.132,0,0,1-12.88,20.4a5.494,5.494,0,0,1-2.914.778,5.572,5.572,0,0,1-2.9-.751,5.123,5.123,0,0,1-1.973-2.149,7.329,7.329,0,0,1-.743-3.208v-.721a7.58,7.58,0,0,1,.69-3.318A5.119,5.119,0,0,1-18.743,8.81a5.533,5.533,0,0,1,2.931-.782,5.479,5.479,0,0,1,2.9.773A5.211,5.211,0,0,1-10.929,11a7.362,7.362,0,0,1,.716,3.274Zm-3.138-.536a5.381,5.381,0,0,0-.637-2.9,2.044,2.044,0,0,0-1.824-.989q-2.32,0-2.452,3.48l-.009.94a5.535,5.535,0,0,0,.624,2.892,2.041,2.041,0,0,0,1.854,1.011,2.016,2.016,0,0,0,1.8-.993,5.383,5.383,0,0,0,.642-2.856ZM-2.021,17.6A1.268,1.268,0,0,0-2.5,16.544a5.954,5.954,0,0,0-1.683-.782,16.147,16.147,0,0,1-1.969-.782Q-8.64,13.758-8.64,11.622a3.011,3.011,0,0,1,.62-1.876A4.008,4.008,0,0,1-6.267,8.48a6.823,6.823,0,0,1,2.549-.453,5.969,5.969,0,0,1,2.474.492,3.917,3.917,0,0,1,1.7,1.4A3.661,3.661,0,0,1,1.063,12H-2.013a1.547,1.547,0,0,0-.479-1.213,1.867,1.867,0,0,0-1.3-.431,2.106,2.106,0,0,0-1.305.365,1.119,1.119,0,0,0-.479.927,1.127,1.127,0,0,0,.527.892,6.65,6.65,0,0,0,1.854.826,11.36,11.36,0,0,1,2.18.918,3.663,3.663,0,0,1,2.074,3.3A3.125,3.125,0,0,1-.2,20.218a5.629,5.629,0,0,1-3.472.958,6.888,6.888,0,0,1-2.817-.558,4.247,4.247,0,0,1-1.9-1.529,3.985,3.985,0,0,1-.637-2.237h3.094A1.963,1.963,0,0,0-5.4,18.368a2.513,2.513,0,0,0,1.727.488,1.985,1.985,0,0,0,1.208-.33A1.088,1.088,0,0,0-2.021,17.6ZM5.933,21H2.856V8.2H5.933Zm9.149-7.638h1.4a1.453,1.453,0,0,0,1.661-1.626,1.406,1.406,0,0,0-.4-1.033,1.5,1.5,0,0,0-1.116-.4,1.606,1.606,0,0,0-1.024.343,1.046,1.046,0,0,0-.435.853H12.208a3.032,3.032,0,0,1,.563-1.8,3.715,3.715,0,0,1,1.56-1.235,5.334,5.334,0,0,1,2.193-.444,5.241,5.241,0,0,1,3.357.976A3.243,3.243,0,0,1,21.1,11.675a2.7,2.7,0,0,1-.505,1.56,3.6,3.6,0,0,1-1.472,1.191,3.441,3.441,0,0,1,1.6,1.121,2.951,2.951,0,0,1,.58,1.859,3.3,3.3,0,0,1-1.318,2.742,5.472,5.472,0,0,1-3.463,1.028A5.675,5.675,0,0,1,14.19,20.7a3.656,3.656,0,0,1-1.63-1.327,3.45,3.45,0,0,1-.554-1.929h2.979a1.334,1.334,0,0,0,.475,1.02,1.676,1.676,0,0,0,1.169.431,1.755,1.755,0,0,0,1.248-.435,1.454,1.454,0,0,0,.466-1.112,1.7,1.7,0,0,0-.483-1.371,2.021,2.021,0,0,0-1.336-.4H15.082Z" transform="translate(958 2824)" fill="#12263f"/>
    </g>
  </g>
</svg>
